<svg width="10" height="6" viewBox="0 0 10 6" fill="none" xmlns="http://www.w3.org/2000/svg">
<path fill-rule="evenodd" clip-rule="evenodd" d="M0.354433 0.0764481C0.274712 0.118512 0.16605 0.214644 0.112936 0.290057L0.016376 0.427135L0.00236578 0.621142C-0.00536293 0.727831 0.00647665 0.87221 0.0286762 0.941966L0.0690298 1.06878L2.26053 3.26492C3.72702 4.7345 4.4963 5.48257 4.58579 5.52598C4.75118 5.6063 5.02274 5.611 5.18708 5.53641C5.26332 5.50181 6.09082 4.70049 7.45403 3.34112L9.60094 1.20034L9.68221 1.03767C9.97728 0.447163 9.38019 -0.170673 8.77686 0.100851L8.62886 0.16745L6.76246 2.03191L4.89606 3.89637L2.99677 1.99883C1.6821 0.685373 1.05985 0.0856898 0.975197 0.0505981C0.791221 -0.0256695 0.526997 -0.0146521 0.354433 0.0764481Z" fill="white"/>
</svg>
