<svg width="170" height="41" viewBox="0 0 170 41" fill="none" xmlns="http://www.w3.org/2000/svg">
<path d="M57.8625 34.6874V10.15H75.4965V14.1203H62.5124V20.7018H74.2089V24.6721H62.5124V34.6874H57.8625ZM79.2657 34.6874V8.82651H83.6295V34.6874H79.2657ZM93.1066 35.1166C92.5819 35.1166 91.9739 35.0451 91.2823 34.902C90.6147 34.7828 89.9589 34.5443 89.3151 34.1866C88.6951 33.829 88.1824 33.3043 87.777 32.6128C87.3716 31.8974 87.1689 30.9674 87.1689 29.8228C87.1689 28.5352 87.4551 27.474 88.0274 26.6394C88.5997 25.781 89.3985 25.1133 90.4239 24.6364C91.4731 24.1356 92.7131 23.7898 94.1439 23.5991C95.5985 23.3844 97.1842 23.2771 98.9011 23.2771V21.7391C98.9011 21.1906 98.8176 20.7018 98.6507 20.2726C98.4838 19.8433 98.1738 19.5095 97.7207 19.271C97.2915 19.0087 96.6357 18.8776 95.7534 18.8776C94.8712 18.8776 94.1796 18.9849 93.6789 19.1995C93.1781 19.4141 92.8323 19.6764 92.6416 19.9864C92.4508 20.2964 92.3554 20.6183 92.3554 20.9522V21.4529H88.1347C88.1108 21.3337 88.0989 21.2145 88.0989 21.0952C88.0989 20.976 88.0989 20.8329 88.0989 20.666C88.0989 19.5929 88.4208 18.663 89.0647 17.876C89.7085 17.0891 90.6027 16.493 91.7473 16.0876C92.8919 15.6584 94.2154 15.4438 95.7177 15.4438C97.4346 15.4438 98.8415 15.6822 99.9384 16.1591C101.059 16.6361 101.894 17.3157 102.442 18.198C102.991 19.0803 103.265 20.1533 103.265 21.4172V30.2878C103.265 30.7409 103.396 31.0628 103.658 31.2536C103.921 31.4444 104.207 31.5397 104.517 31.5397H105.661V34.5443C105.423 34.6397 105.077 34.747 104.624 34.8663C104.171 35.0093 103.611 35.0809 102.943 35.0809C102.323 35.0809 101.763 34.9736 101.262 34.7589C100.785 34.5682 100.38 34.282 100.046 33.9005C99.7119 33.519 99.4734 33.0659 99.3303 32.5413H99.1157C98.7103 33.042 98.2215 33.4951 97.6492 33.9005C97.1007 34.282 96.445 34.5801 95.6819 34.7947C94.9427 35.0093 94.0842 35.1166 93.1066 35.1166ZM94.43 31.5397C95.1454 31.5397 95.7773 31.4324 96.3258 31.2178C96.8981 31.0032 97.363 30.7051 97.7207 30.3236C98.1023 29.9421 98.3884 29.4771 98.5792 28.9286C98.7938 28.3802 98.9011 27.784 98.9011 27.1402V26.2817C97.5896 26.2817 96.3734 26.3652 95.2527 26.5321C94.1558 26.699 93.2735 27.009 92.6058 27.4621C91.9619 27.9152 91.64 28.559 91.64 29.3936C91.64 29.8228 91.7354 30.2044 91.9262 30.5382C92.1408 30.8482 92.4508 31.0986 92.8562 31.2894C93.2854 31.4563 93.81 31.5397 94.43 31.5397ZM108.153 34.6874V15.873H111.802L112.159 18.3768H112.41C112.815 17.8045 113.28 17.3037 113.805 16.8745C114.329 16.4214 114.925 16.0757 115.593 15.8372C116.285 15.5749 117.036 15.4438 117.847 15.4438C118.944 15.4438 119.921 15.6703 120.78 16.1234C121.638 16.5764 122.306 17.3276 122.783 18.3768H123.033C123.438 17.8045 123.915 17.3037 124.464 16.8745C125.012 16.4214 125.644 16.0757 126.36 15.8372C127.075 15.5749 127.85 15.4438 128.685 15.4438C129.805 15.4438 130.795 15.6464 131.653 16.0518C132.512 16.4572 133.191 17.1249 133.692 18.0549C134.193 18.9849 134.443 20.2249 134.443 21.7748V34.6874H130.08V22.6691C130.08 22.0252 130.008 21.4887 129.865 21.0595C129.722 20.6064 129.519 20.2606 129.257 20.0222C129.018 19.7599 128.708 19.5691 128.327 19.4499C127.969 19.3306 127.576 19.271 127.147 19.271C126.455 19.271 125.835 19.4618 125.287 19.8433C124.738 20.2249 124.297 20.7495 123.963 21.4172C123.653 22.0848 123.498 22.8598 123.498 23.7421V34.6874H119.134V22.6691C119.134 22.0252 119.063 21.4887 118.92 21.0595C118.777 20.6064 118.574 20.2606 118.312 20.0222C118.073 19.7599 117.763 19.5691 117.382 19.4499C117.024 19.3306 116.63 19.271 116.201 19.271C115.51 19.271 114.878 19.4618 114.305 19.8433C113.757 20.2249 113.316 20.7495 112.982 21.4172C112.672 22.0848 112.517 22.8598 112.517 23.7421V34.6874H108.153ZM138.962 40.8754V15.873H142.575L142.932 18.3768H143.183C143.803 17.3991 144.613 16.6718 145.615 16.1949C146.617 15.6941 147.725 15.4438 148.941 15.4438C150.491 15.4438 151.815 15.7895 152.912 16.4811C154.033 17.1726 154.891 18.2456 155.487 19.7003C156.107 21.1549 156.417 23.0268 156.417 25.316C156.417 27.5575 156.107 29.4055 155.487 30.8601C154.867 32.3147 154.009 33.3878 152.912 34.0793C151.839 34.7709 150.599 35.1166 149.192 35.1166C148.333 35.1166 147.547 35.0213 146.831 34.8305C146.116 34.6397 145.484 34.3536 144.935 33.972C144.387 33.5667 143.922 33.0778 143.54 32.5055H143.326V40.8754H138.962ZM147.582 31.3609C148.655 31.3609 149.502 31.1582 150.122 30.7528C150.766 30.3236 151.219 29.6798 151.481 28.8213C151.767 27.9629 151.91 26.8779 151.91 25.5663V25.0656C151.91 23.7302 151.767 22.6333 151.481 21.7748C151.219 20.8925 150.766 20.2487 150.122 19.8433C149.502 19.4141 148.655 19.1995 147.582 19.1995C146.605 19.1995 145.794 19.426 145.15 19.8791C144.53 20.3322 144.065 20.9999 143.755 21.8822C143.469 22.7406 143.326 23.8017 143.326 25.0656V25.4948C143.326 26.4248 143.409 27.2594 143.576 27.9986C143.743 28.714 143.993 29.3221 144.327 29.8228C144.685 30.3236 145.126 30.7051 145.651 30.9674C146.199 31.2298 146.843 31.3609 147.582 31.3609ZM165.102 35.1166C163.933 35.1166 163.015 34.8901 162.348 34.437C161.68 33.9601 161.203 33.364 160.917 32.6486C160.654 31.9094 160.523 31.1582 160.523 30.3951V19.4499H158.27V15.873H160.631L161.418 10.615H164.887V15.873H168.142V19.4499H164.887V29.9659C164.887 30.4667 165.018 30.8601 165.281 31.1463C165.543 31.4086 165.936 31.5397 166.461 31.5397H168.142V34.5443C167.904 34.6397 167.606 34.7232 167.248 34.7947C166.914 34.8901 166.556 34.9616 166.175 35.0093C165.793 35.0809 165.436 35.1166 165.102 35.1166Z" fill="white"/>
<path d="M49.9274 34.2785H32.7881V17.1393L16.394 0H33.5333L49.9274 17.1393V34.2785Z" fill="white"/>
<path d="M16.7667 17.5118L0 34.2785H32.4155L16.7667 17.5118Z" fill="white"/>
</svg>
