<svg width="19" height="19" viewBox="0 0 19 19" fill="none" xmlns="http://www.w3.org/2000/svg">
<path fill-rule="evenodd" clip-rule="evenodd" d="M3.31123 0.0240147C3.04785 0.0787734 2.66047 0.291464 2.37254 0.539411C2.02773 0.836312 0.811143 2.0715 0.610421 2.3285C0.4044 2.59223 0.231039 2.9453 0.119034 3.32915L0.0266397 3.64595L0.00569507 4.07854C-0.0533536 5.30029 0.346252 6.74871 1.22899 8.5126C2.22752 10.5077 3.7626 12.5155 5.547 14.1603C8.64821 17.0186 12.7982 18.8711 14.9378 18.3521C15.2547 18.2752 15.7816 18.0295 16.0236 17.8458C16.2666 17.6614 17.8975 15.9881 18.049 15.7679C18.4317 15.2113 18.4724 14.498 18.1563 13.8876L18.0423 13.6676L16.5979 12.2232L15.1534 10.7787L14.9286 10.6622C14.368 10.3717 13.7617 10.3908 13.1995 10.7167C13.1043 10.7718 12.6579 11.1807 12.2074 11.6255L11.3883 12.434L11.1259 12.2976C10.4814 11.9625 10.0059 11.6407 9.2954 11.0585C8.56576 10.4608 7.54885 9.40983 6.98746 8.67338C6.5819 8.14137 5.98122 7.15827 5.97948 7.02369C5.97916 6.99788 6.25995 6.70268 6.60346 6.36771C7.32336 5.66568 7.60869 5.33728 7.76951 5.0257C8.04662 4.48875 8.015 3.88157 7.68079 3.32151L7.55174 3.10521L6.25158 1.80189C5.53651 1.08509 4.85053 0.425675 4.72713 0.336525C4.60377 0.247412 4.401 0.139192 4.27652 0.096041C4.0197 0.00699941 3.5586 -0.0273916 3.31123 0.0240147ZM3.34728 1.00019L3.14901 1.07676L2.22788 2.00088L1.30671 2.92497L1.17481 3.19534C0.803789 3.95565 0.858187 4.97437 1.34575 6.39734C2.37247 9.39386 4.84541 12.6321 7.72726 14.7537C8.63368 15.421 9.5166 15.9568 10.5391 16.4602C11.9088 17.1345 12.9447 17.4492 13.9479 17.496L14.4007 17.5172L14.6764 17.4558C14.8281 17.4221 15.0542 17.3443 15.1789 17.283L15.4057 17.1714L16.3253 16.2487L17.2449 15.3259L17.3347 15.1457L17.4245 14.9654V14.7491V14.5328L17.339 14.3655C17.225 14.1426 14.6792 11.5994 14.4609 11.4904C14.2637 11.3919 13.9818 11.3916 13.7656 11.4897L13.6036 11.5632L12.7382 12.4218C12.2623 12.8941 11.8161 13.31 11.7467 13.346C11.6699 13.386 11.5414 13.4121 11.418 13.4128L11.2154 13.4141L10.7691 13.1847C9.66455 12.6171 8.59226 11.7961 7.50977 10.689C6.43612 9.59101 5.76838 8.70561 5.27324 7.72345L5.02591 7.23278L5.01196 6.98595L4.99801 6.73912L5.05475 6.62942C5.08593 6.56911 5.49981 6.1327 5.97447 5.65966C6.53457 5.10144 6.86644 4.74257 6.91994 4.63731C7.03288 4.41503 7.03223 4.13694 6.91824 3.8983L6.83212 3.71805L5.54935 2.43365C4.77414 1.65751 4.19945 1.11094 4.09699 1.05236C3.99288 0.992838 3.85377 0.94929 3.7365 0.939557L3.54555 0.923659L3.34728 1.00019Z" fill="#331F33"/>
</svg>
