<svg width="16" height="9" viewBox="0 0 16 9" fill="none" xmlns="http://www.w3.org/2000/svg">
<path fill-rule="evenodd" clip-rule="evenodd" d="M0.958398 0.0137204C0.565195 0.0716601 0.226705 0.342134 0.066012 0.726763C-0.0309077 0.958743 -0.0195052 1.39994 0.0897007 1.64284L0.179107 1.84172L3.63538 5.30311L7.09165 8.76451L7.31263 8.87973L7.5336 8.99499L7.82127 8.99618L8.10893 8.99742L8.30741 8.90103L8.50589 8.80464L12.0255 5.27898L15.5451 1.75333L15.6035 1.57655C15.6357 1.47932 15.6611 1.28044 15.66 1.13459L15.6579 0.869425L15.5443 0.648449C15.4047 0.377048 15.2407 0.217415 14.9805 0.099591C14.7124 -0.0217685 14.2777 -0.022122 14.0082 0.0987515L13.8093 0.187981L10.8153 3.18012L7.82118 6.17225L4.80474 3.15851C3.07269 1.42801 1.73181 0.122352 1.65566 0.0922108C1.44591 0.00916835 1.18711 -0.0199562 0.958398 0.0137204Z" fill="#331F33"/>
</svg>
