<svg width="19" height="14" viewBox="0 0 19 14" fill="none" xmlns="http://www.w3.org/2000/svg">
<path fill-rule="evenodd" clip-rule="evenodd" d="M1.22328 0.0359141C0.646368 0.148578 0.150128 0.657869 0.0372477 1.25322C-0.0123619 1.51471 -0.0124338 12.281 0.0371399 12.5468C0.150343 13.1533 0.64698 13.6488 1.25779 13.7646C1.5209 13.8145 16.887 13.8145 17.1501 13.7646C17.7443 13.652 18.2885 13.1204 18.3607 12.582C18.3717 12.5001 18.3947 12.4244 18.4118 12.4139C18.4291 12.4032 18.4429 9.93474 18.4429 6.85847C18.4429 3.72299 18.4293 1.33069 18.4116 1.34166C18.3943 1.3523 18.3714 1.29474 18.3605 1.21375C18.2885 0.676993 17.7435 0.145199 17.1501 0.0326788C16.9096 -0.0129405 1.45738 -0.00981308 1.22328 0.0359141ZM1.46094 0.783079L1.39299 0.809753L3.0427 2.31933C7.06795 6.0027 8.75741 7.52266 8.89657 7.58586C9.08235 7.67023 9.32558 7.67023 9.51137 7.58586C9.65053 7.52266 11.34 6.0027 15.3652 2.31933L17.0149 0.809753L16.947 0.783079C16.9096 0.768412 13.4253 0.756441 9.20397 0.756441C4.98265 0.756441 1.49829 0.768412 1.46094 0.783079ZM0.778409 1.4389C0.748859 1.58658 0.749147 12.1762 0.778697 12.3239C0.791207 12.3864 0.814969 12.4329 0.831506 12.4272C0.848043 12.4215 1.47277 11.8416 2.21975 11.1386C3.81736 9.63503 5.0891 8.46593 6.12357 7.5498C6.5341 7.18622 6.86534 6.87565 6.85966 6.85965C6.84984 6.83208 0.830859 1.32656 0.810512 1.32656C0.805227 1.32656 0.790776 1.3771 0.778409 1.4389ZM14.5778 4.07432C12.9173 5.59022 11.554 6.84362 11.5483 6.85965C11.5426 6.87565 11.8738 7.18622 12.2844 7.5498C13.3188 8.46593 14.5906 9.63503 16.1882 11.1386C16.9352 11.8416 17.5599 12.4215 17.5764 12.4272C17.593 12.4329 17.6167 12.3864 17.6292 12.3239C17.6596 12.1721 17.6515 1.51216 17.6209 1.4032L17.5971 1.31811L14.5778 4.07432ZM0.0185183 6.89866C0.0185183 9.95343 0.0227962 11.2031 0.0279729 9.67572C0.0331495 8.14836 0.0331495 5.649 0.0279729 4.1216C0.0227962 2.59423 0.0185183 3.84389 0.0185183 6.89866ZM6.62822 8.12837C5.54558 9.08576 4.79482 9.7753 2.9213 11.5329L1.36592 12.992L1.44739 13.0154C1.55387 13.0459 16.854 13.0459 16.9608 13.0154L17.0425 12.992L15.4869 11.5334C13.4125 9.5884 11.4295 7.78326 10.9961 7.44537L10.9368 7.39918L10.5113 7.77991C10.0403 8.20145 9.78232 8.35053 9.42865 8.40554C8.8966 8.48829 8.51357 8.33206 7.89815 7.78128C7.66502 7.57267 7.46874 7.40195 7.46195 7.40195C7.45519 7.40195 7.07999 7.72883 6.62822 8.12837Z" fill="#331F33"/>
</svg>
