<svg width="17" height="17" viewBox="0 0 17 17" fill="none" xmlns="http://www.w3.org/2000/svg">
<path d="M12.6054 2.94629C12.0724 2.94629 11.6353 3.37745 11.6353 3.91042C11.6353 4.44338 12.0724 4.87455 12.6054 4.87455C13.1383 4.87455 13.5695 4.44338 13.5695 3.91042C13.5695 3.37745 13.1383 2.94629 12.6054 2.94629Z" fill="#374151"/>
<path fill-rule="evenodd" clip-rule="evenodd" d="M12.3662 8.24079C12.3662 10.4804 10.5457 12.3009 8.30609 12.3009C6.07242 12.3009 4.25195 10.4804 4.25195 8.24079C4.25195 6.00113 6.07242 4.18066 8.30609 4.18066C10.5457 4.18066 12.3662 6.00113 12.3662 8.24079ZM10.911 8.24079C10.911 6.80956 9.7433 5.64183 8.30609 5.64183C6.87487 5.64183 5.70713 6.80956 5.70713 8.24079C5.70713 9.678 6.87487 10.8397 8.30609 10.8397C9.7433 10.8397 10.911 9.678 10.911 8.24079Z" fill="#374151"/>
<path fill-rule="evenodd" clip-rule="evenodd" d="M11.5336 16.48H4.95239C2.22169 16.48 0 14.2583 0 11.5336V4.95238C0 2.22168 2.22169 0 4.95239 0H11.5336C14.2583 0 16.48 2.22168 16.48 4.95238V11.5336C16.48 14.2583 14.2583 16.48 11.5336 16.48ZM4.95239 1.55099C3.07803 1.55099 1.55099 3.07802 1.55099 4.95238V11.5336C1.55099 13.408 3.07803 14.929 4.95239 14.929H11.5336C13.408 14.929 14.929 13.408 14.929 11.5336V4.95238C14.929 3.07802 13.408 1.55099 11.5336 1.55099H4.95239Z" fill="#374151"/>
</svg>
