<svg width="244" height="100" viewBox="0 0 244 100" fill="none" xmlns="http://www.w3.org/2000/svg">
<path d="M0 0H244V100H0V0Z" fill="#F3F6F7"/>
<path d="M56.185 37.3141C57.1616 37.3141 58.1065 37.399 59.0194 37.5689C59.9324 37.7175 60.8348 38.0041 61.7265 38.4288L61.0259 40.8492C60.1129 40.4246 59.2848 40.1274 58.5417 39.9575C57.8198 39.7664 57.0767 39.6709 56.3124 39.6709C55.1021 39.6709 54.1467 39.9363 53.446 40.4671C52.7454 40.9979 52.395 41.741 52.395 42.6964C52.395 43.5032 52.6498 44.1508 53.1594 44.6392C53.6902 45.1275 54.5501 45.5521 55.7391 45.9131L57.7455 46.5501C59.5715 47.1233 60.856 47.9089 61.5991 48.9068C62.3635 49.8835 62.7457 50.9876 62.7457 52.219C62.7457 53.0895 62.5652 53.8857 62.2043 54.6076C61.8645 55.3083 61.3762 55.9134 60.7392 56.423C60.1235 56.9113 59.391 57.2935 58.5417 57.5695C57.6924 57.8243 56.7582 57.9517 55.7391 57.9517C54.7199 57.9517 53.6796 57.8561 52.618 57.665C51.5776 57.4952 50.5372 57.1661 49.4969 56.6777L50.1975 54.2891C51.1105 54.735 52.0022 55.0641 52.8728 55.2764C53.7433 55.4888 54.6563 55.5949 55.6117 55.5949C56.7582 55.5949 57.7349 55.3295 58.5417 54.7987C59.3485 54.2679 59.7519 53.4823 59.7519 52.442C59.7519 52.0598 59.6883 51.7094 59.5609 51.391C59.4547 51.0512 59.253 50.7328 58.9557 50.4355C58.6797 50.1383 58.2976 49.8623 57.8092 49.6075C57.3209 49.3527 56.7051 49.1085 55.962 48.875L53.9556 48.238C52.4906 47.7709 51.3653 47.1339 50.5797 46.3271C49.7941 45.5203 49.4013 44.4268 49.4013 43.0468C49.4013 41.2845 49.9746 39.8938 51.1211 38.8747C52.2889 37.8343 53.9768 37.3141 56.185 37.3141ZM73.3192 44.7984H68.9242V53.4929C68.9242 54.2361 69.1047 54.735 69.4656 54.9898C69.8478 55.2446 70.3361 55.372 70.9306 55.372C71.3553 55.372 71.8224 55.3295 72.3319 55.2446C72.8415 55.1384 73.2874 55.0216 73.6696 54.8943L74.1154 57.0281C73.6908 57.1979 73.1494 57.3466 72.4912 57.474C71.833 57.6013 71.143 57.665 70.4211 57.665C68.9348 57.665 67.852 57.3466 67.1726 56.7096C66.4931 56.0514 66.1534 55.1066 66.1534 53.8751V44.7984H63.9241V42.6964H66.1534V37.9192H68.9242V42.6964H73.3192V44.7984ZM76.353 57.665V42.6964H78.455L78.9327 45.6902C79.2937 44.7347 79.8882 43.9597 80.7162 43.3652C81.5443 42.7707 82.4997 42.4735 83.5825 42.4735C84.1346 42.4735 84.5911 42.516 84.952 42.6009C85.313 42.6858 85.642 42.792 85.9393 42.9194L85.3979 45.3717C85.1431 45.2443 84.8565 45.1381 84.538 45.0532C84.2407 44.9683 83.8798 44.9258 83.4551 44.9258C82.8394 44.9258 82.2662 45.032 81.7353 45.2443C81.2258 45.4566 80.7693 45.7751 80.3659 46.1997C79.9837 46.6244 79.6758 47.1552 79.4423 47.7921C79.23 48.4079 79.1238 49.1191 79.1238 49.926V57.665H76.353ZM100.547 50.0215C100.547 51.2742 100.356 52.3995 99.9741 53.3974C99.5919 54.3741 99.0611 55.2021 98.3817 55.8815C97.7235 56.561 96.9485 57.0812 96.0568 57.4421C95.165 57.7818 94.199 57.9517 93.1586 57.9517C92.1182 57.9517 91.1522 57.7924 90.2604 57.474C89.3899 57.1342 88.6256 56.6459 87.9674 56.0089C87.3304 55.3507 86.8208 54.5545 86.4387 53.6203C86.0777 52.6649 85.8973 51.5714 85.8973 50.34C85.8973 49.0873 86.0883 47.9726 86.4705 46.9959C86.8527 46.0192 87.3729 45.2018 88.0311 44.5436C88.7105 43.8642 89.4961 43.3546 90.3878 43.0149C91.2796 42.654 92.2456 42.4735 93.286 42.4735C94.3264 42.4735 95.2818 42.6327 96.1523 42.9512C97.0441 43.2697 97.8084 43.7474 98.4454 44.3844C99.1036 45.0213 99.6132 45.8175 99.9741 46.773C100.356 47.7072 100.547 48.79 100.547 50.0215ZM97.6174 50.1807C97.6174 49.1828 97.49 48.3335 97.2352 47.6329C96.9804 46.9322 96.6407 46.359 96.216 45.9131C95.8126 45.4672 95.3455 45.1487 94.8147 44.9576C94.2839 44.7453 93.7425 44.6392 93.1905 44.6392C92.6384 44.6392 92.097 44.7241 91.5662 44.8939C91.0354 45.0638 90.5683 45.3611 90.1649 45.7857C89.7615 46.2103 89.4324 46.7836 89.1776 47.5055C88.9441 48.2062 88.8273 49.0979 88.8273 50.1807C88.8273 51.1786 88.9547 52.0385 89.2095 52.7604C89.4642 53.4611 89.7933 54.0344 90.1967 54.4802C90.6214 54.9261 91.0991 55.2552 91.6299 55.4675C92.1607 55.6798 92.7021 55.786 93.2542 55.786C93.8062 55.786 94.3476 55.7011 94.8784 55.5312C95.4092 55.3401 95.8763 55.0323 96.2797 54.6076C96.6831 54.1617 97.0016 53.5885 97.2352 52.8878C97.49 52.1659 97.6174 51.2636 97.6174 50.1807ZM106.124 57.665H103.321V42.6964H105.518L105.932 44.7666C106.676 44.0234 107.451 43.4608 108.257 43.0786C109.085 42.6752 110.03 42.4735 111.092 42.4735C112.621 42.4735 113.82 42.9088 114.691 43.7793C115.561 44.6285 115.996 45.8175 115.996 47.3463V57.665H113.194V47.7603C113.194 46.8473 112.95 46.1254 112.461 45.5946C111.994 45.0426 111.272 44.7666 110.296 44.7666C108.809 44.7666 107.419 45.4354 106.124 46.773V57.665ZM119.318 47.6647C119.318 46.8367 119.467 46.1042 119.764 45.4672C120.061 44.809 120.475 44.257 121.006 43.8111C121.558 43.3652 122.206 43.0361 122.949 42.8238C123.692 42.5903 124.499 42.4735 125.369 42.4735C125.688 42.4735 125.996 42.4947 126.293 42.5372C126.59 42.5797 126.887 42.6327 127.185 42.6964H133.65V44.7666H132.662L130.115 44.4162C130.518 44.8409 130.826 45.3292 131.038 45.8812C131.272 46.4333 131.389 47.0172 131.389 47.6329C131.389 48.4609 131.24 49.2041 130.943 49.8623C130.645 50.4992 130.231 51.0406 129.701 51.4865C129.17 51.9324 128.533 52.2721 127.79 52.5056C127.047 52.718 126.24 52.8241 125.369 52.8241C124.711 52.8241 124.138 52.7817 123.649 52.6967C123.161 52.8666 122.821 53.0895 122.63 53.3655C122.439 53.6203 122.344 53.8963 122.344 54.1936C122.344 54.6819 122.503 55.011 122.821 55.1809C123.161 55.3507 123.607 55.4357 124.159 55.4357H128.108C129.764 55.4357 131.028 55.8178 131.898 56.5822C132.79 57.3253 133.236 58.3445 133.236 59.6396C133.236 60.4677 133.055 61.2108 132.694 61.869C132.333 62.5272 131.813 63.0898 131.134 63.5569C130.476 64.024 129.669 64.3744 128.713 64.6079C127.758 64.8627 126.686 64.9901 125.497 64.9901C123.331 64.9901 121.601 64.5973 120.305 63.8117C119.031 63.0474 118.395 61.9115 118.395 60.404C118.395 59.6184 118.639 58.9602 119.127 58.4294C119.637 57.8986 120.295 57.4952 121.102 57.2192C120.677 56.9219 120.358 56.6141 120.146 56.2956C119.934 55.9559 119.828 55.51 119.828 54.958C119.828 54.2998 120.019 53.7371 120.401 53.27C120.804 52.8029 121.346 52.4313 122.025 52.1553C121.176 51.7731 120.507 51.2211 120.019 50.4992C119.552 49.7561 119.318 48.8113 119.318 47.6647ZM122.726 57.665C121.643 58.1534 121.102 58.9177 121.102 59.9581C121.102 61.8265 122.609 62.7607 125.624 62.7607C126.516 62.7607 127.27 62.6758 127.885 62.506C128.501 62.3361 129 62.1132 129.382 61.8371C129.764 61.5611 130.04 61.2533 130.21 60.9135C130.401 60.5738 130.497 60.2235 130.497 59.8626C130.497 58.9708 130.189 58.3763 129.573 58.0791C128.979 57.803 128.225 57.665 127.312 57.665H122.726ZM128.554 47.7284C128.554 46.6031 128.257 45.7751 127.662 45.2443C127.089 44.7135 126.325 44.4481 125.369 44.4481C124.414 44.4481 123.639 44.7135 123.044 45.2443C122.471 45.7751 122.184 46.5607 122.184 47.601C122.184 48.7051 122.471 49.5225 123.044 50.0533C123.639 50.5629 124.414 50.8177 125.369 50.8177C126.325 50.8177 127.089 50.5629 127.662 50.0533C128.257 49.5438 128.554 48.7688 128.554 47.7284ZM136.517 37.6007H142.822C143.863 37.6007 144.808 37.7387 145.657 38.0148C146.506 38.2695 147.239 38.6623 147.854 39.1931C148.47 39.7027 148.948 40.3397 149.288 41.104C149.627 41.8471 149.797 42.707 149.797 43.6837C149.797 44.7453 149.617 45.6689 149.256 46.4545C148.895 47.2189 148.385 47.8558 147.727 48.3654C147.069 48.875 146.294 49.2571 145.402 49.5119C144.51 49.7667 143.523 49.8941 142.44 49.8941H139.447V57.665H136.517V37.6007ZM139.447 47.5055H141.262C142.048 47.5055 142.78 47.4524 143.459 47.3463C144.139 47.2401 144.712 47.049 145.179 46.773C145.668 46.497 146.05 46.1148 146.326 45.6265C146.602 45.1169 146.74 44.4799 146.74 43.7156C146.74 43.0149 146.602 42.431 146.326 41.9639C146.071 41.4756 145.731 41.0828 145.307 40.7855C144.882 40.4883 144.394 40.276 143.842 40.1486C143.29 40.0212 142.727 39.9575 142.154 39.9575H139.447V47.5055ZM164.907 50.4992H154.174V50.6266C154.174 52.2827 154.62 53.5566 155.512 54.4484C156.425 55.3401 157.656 55.786 159.206 55.786C160.013 55.786 160.724 55.7223 161.34 55.5949C161.977 55.4675 162.667 55.2552 163.41 54.958L163.984 57.0281C163.368 57.3041 162.635 57.527 161.786 57.6969C160.958 57.8667 160.066 57.9517 159.111 57.9517C158.028 57.9517 157.009 57.803 156.053 57.5058C155.119 57.2085 154.291 56.7521 153.569 56.1363C152.847 55.4994 152.274 54.6925 151.849 53.7159C151.446 52.7392 151.244 51.5714 151.244 50.2126C151.244 49.0448 151.414 47.9832 151.754 47.0278C152.115 46.0723 152.614 45.2655 153.251 44.6073C153.888 43.9279 154.652 43.4077 155.544 43.0468C156.457 42.6646 157.476 42.4735 158.601 42.4735C159.557 42.4735 160.417 42.6327 161.181 42.9512C161.967 43.2697 162.635 43.7156 163.187 44.2888C163.739 44.8621 164.164 45.5521 164.461 46.359C164.759 47.1658 164.907 48.0575 164.907 49.0342V50.4992ZM162.009 48.4928C162.009 47.9408 161.935 47.4312 161.786 46.9641C161.659 46.4757 161.446 46.0511 161.149 45.6902C160.873 45.3292 160.512 45.0426 160.066 44.8303C159.62 44.6179 159.079 44.5118 158.442 44.5118C157.274 44.5118 156.319 44.8833 155.576 45.6265C154.854 46.3696 154.408 47.3463 154.238 48.5565L162.009 48.4928ZM167.739 44.0341C168.248 43.7793 168.726 43.5563 169.172 43.3652C169.618 43.1529 170.064 42.9831 170.509 42.8557C170.955 42.7283 171.412 42.6327 171.879 42.569C172.346 42.5053 172.856 42.4735 173.408 42.4735C174.236 42.4735 174.989 42.569 175.669 42.7601C176.369 42.93 176.964 43.2272 177.452 43.6519C177.962 44.0765 178.355 44.6392 178.631 45.3398C178.907 46.0192 179.045 46.8791 179.045 47.9195V57.665H176.72L176.369 56.0089H176.306C175.648 56.7096 174.926 57.2085 174.14 57.5058C173.355 57.803 172.484 57.9517 171.529 57.9517C170.807 57.9517 170.138 57.8561 169.522 57.665C168.928 57.4527 168.407 57.1661 167.962 56.8051C167.516 56.423 167.165 55.9665 166.911 55.4357C166.677 54.9049 166.56 54.3104 166.56 53.6522C166.56 52.081 167.176 50.892 168.407 50.0852C169.66 49.2571 171.306 48.8431 173.344 48.8431H176.21V47.5692C176.21 46.4864 175.934 45.7538 175.382 45.3717C174.83 44.9683 174.087 44.7666 173.153 44.7666C172.601 44.7666 171.964 44.8621 171.242 45.0532C170.541 45.223 169.734 45.5628 168.821 46.0723L167.739 44.0341ZM176.242 50.754L173.885 50.8177C172.293 50.8602 171.157 51.1468 170.478 51.6776C169.819 52.1872 169.49 52.8135 169.49 53.5566C169.49 54.0025 169.565 54.3847 169.713 54.7032C169.862 55.0004 170.053 55.234 170.287 55.4038C170.541 55.5737 170.828 55.7011 171.146 55.786C171.486 55.8497 171.836 55.8815 172.197 55.8815C172.898 55.8815 173.609 55.7223 174.331 55.4038C175.053 55.0641 175.69 54.5333 176.242 53.8114V50.754ZM185.327 52.1872V57.665H182.556V35.0529H185.327V49.1297L191.346 42.6964H194.818L188.671 49.0024L195.104 57.665H191.792L186.824 50.6903L185.327 52.1872Z" fill="#374151"/>
</svg>
