<svg width="244" height="100" viewBox="0 0 244 100" fill="none" xmlns="http://www.w3.org/2000/svg">
<rect width="244" height="100" fill="#F3F6F7"/>
<path d="M35.759 39.517C36.627 39.331 37.5673 39.207 38.58 39.145C39.6133 39.0623 40.626 39.021 41.618 39.021C42.672 39.021 43.7363 39.114 44.811 39.3C45.9063 39.486 46.8983 39.827 47.787 40.323C48.6757 40.819 49.399 41.5113 49.957 42.4C50.5357 43.268 50.825 44.3943 50.825 45.779C50.825 47.081 50.5667 48.197 50.05 49.127C49.5333 50.0363 48.841 50.7803 47.973 51.359C47.1257 51.9377 46.144 52.3613 45.028 52.63C43.9327 52.8987 42.796 53.033 41.618 53.033C41.494 53.033 41.2977 53.033 41.029 53.033C40.781 53.0123 40.5123 53.002 40.223 53.002C39.9543 52.9813 39.6857 52.9607 39.417 52.94C39.169 52.9193 38.983 52.8987 38.859 52.878V61H35.759V39.517ZM41.711 41.687C41.153 41.687 40.6053 41.6973 40.068 41.718C39.5513 41.7387 39.1483 41.7903 38.859 41.873V50.212C38.9623 50.2533 39.1277 50.2843 39.355 50.305C39.603 50.305 39.851 50.3153 40.099 50.336C40.3677 50.3567 40.6157 50.367 40.843 50.367C41.091 50.367 41.277 50.367 41.401 50.367C42.145 50.367 42.8787 50.3153 43.602 50.212C44.3253 50.088 44.9763 49.8607 45.555 49.53C46.1543 49.1993 46.6297 48.7343 46.981 48.135C47.353 47.5357 47.539 46.7607 47.539 45.81C47.539 44.9833 47.3633 44.3013 47.012 43.764C46.6607 43.2267 46.206 42.803 45.648 42.493C45.09 42.183 44.4597 41.9763 43.757 41.873C43.075 41.749 42.393 41.687 41.711 41.687ZM60.6241 47.422C60.2728 47.3187 59.9318 47.2257 59.6012 47.143C59.2705 47.0603 58.9605 47.019 58.6711 47.019C57.5758 47.019 56.7181 47.298 56.0981 47.856C55.4988 48.414 55.1268 49.1167 54.9821 49.964V61H52.1301V44.725H54.1141L54.6721 46.895H54.9511C55.4265 46.089 55.9741 45.469 56.5941 45.035C57.2348 44.5803 58.0305 44.353 58.9811 44.353C59.2705 44.353 59.6115 44.384 60.0041 44.446C60.3968 44.4873 60.7895 44.57 61.1821 44.694L60.6241 47.422ZM61.4885 52.878C61.4885 51.5347 61.6642 50.336 62.0155 49.282C62.3668 48.2073 62.8835 47.298 63.5655 46.554C64.2475 45.81 65.0742 45.2417 66.0455 44.849C67.0375 44.4563 68.1638 44.26 69.4245 44.26C70.7472 44.26 71.9045 44.477 72.8965 44.911C73.8885 45.345 74.7152 45.9547 75.3765 46.74C76.0378 47.5047 76.5235 48.414 76.8335 49.468C77.1642 50.5013 77.3295 51.638 77.3295 52.878C77.3295 54.2007 77.1435 55.389 76.7715 56.443C76.4202 57.497 75.9035 58.396 75.2215 59.14C74.5602 59.884 73.7335 60.4523 72.7415 60.845C71.7702 61.2377 70.6645 61.434 69.4245 61.434C68.0605 61.434 66.8825 61.217 65.8905 60.783C64.8985 60.349 64.0718 59.7497 63.4105 58.985C62.7698 58.2203 62.2842 57.3213 61.9535 56.288C61.6435 55.234 61.4885 54.0973 61.4885 52.878ZM64.5265 52.878C64.5265 53.6427 64.6092 54.397 64.7745 55.141C64.9605 55.8643 65.2498 56.5153 65.6425 57.094C66.0352 57.6727 66.5415 58.1377 67.1615 58.489C67.7815 58.8403 68.5462 59.016 69.4555 59.016C72.6795 59.016 74.2915 56.97 74.2915 52.878C74.2915 52.072 74.1985 51.297 74.0125 50.553C73.8472 49.809 73.5682 49.158 73.1755 48.6C72.8035 48.0213 72.3075 47.5563 71.6875 47.205C71.0675 46.8537 70.3235 46.678 69.4555 46.678C67.8435 46.678 66.6138 47.1947 65.7665 48.228C64.9398 49.2407 64.5265 50.7907 64.5265 52.878ZM95.7392 60.07C95.0572 60.566 94.1892 60.907 93.1352 61.093C92.0812 61.2997 90.9652 61.403 89.7872 61.403C88.4025 61.403 87.0798 61.186 85.8192 60.752C84.5792 60.2973 83.4838 59.6153 82.5332 58.706C81.5825 57.776 80.8282 56.6083 80.2702 55.203C79.7122 53.777 79.4332 52.0927 79.4332 50.15C79.4332 48.1247 79.7432 46.399 80.3632 44.973C80.9832 43.547 81.7892 42.3897 82.7812 41.501C83.7732 40.5917 84.8892 39.9303 86.1292 39.517C87.3692 39.1037 88.5988 38.897 89.8182 38.897C91.1822 38.897 92.2982 38.9693 93.1662 39.114C94.0342 39.2587 94.7678 39.4447 95.3672 39.672L94.6852 42.338C93.6725 41.8627 92.1328 41.625 90.0662 41.625C89.1362 41.625 88.2268 41.78 87.3382 42.09C86.4702 42.3793 85.6848 42.865 84.9822 43.547C84.3002 44.2083 83.7525 45.0867 83.3392 46.182C82.9258 47.2567 82.7192 48.5793 82.7192 50.15C82.7192 51.5553 82.9155 52.7953 83.3082 53.87C83.7008 54.924 84.2382 55.8127 84.9202 56.536C85.6228 57.2387 86.4392 57.776 87.3692 58.148C88.3198 58.4993 89.3532 58.675 90.4692 58.675C91.4818 58.675 92.3602 58.582 93.1042 58.396C93.8482 58.21 94.4785 57.9723 94.9952 57.683L95.7392 60.07ZM96.2 52.878C96.2 51.5347 96.3757 50.336 96.727 49.282C97.0784 48.2073 97.595 47.298 98.277 46.554C98.959 45.81 99.7857 45.2417 100.757 44.849C101.749 44.4563 102.875 44.26 104.136 44.26C105.459 44.26 106.616 44.477 107.608 44.911C108.6 45.345 109.427 45.9547 110.088 46.74C110.749 47.5047 111.235 48.414 111.545 49.468C111.876 50.5013 112.041 51.638 112.041 52.878C112.041 54.2007 111.855 55.389 111.483 56.443C111.132 57.497 110.615 58.396 109.933 59.14C109.272 59.884 108.445 60.4523 107.453 60.845C106.482 61.2377 105.376 61.434 104.136 61.434C102.772 61.434 101.594 61.217 100.602 60.783C99.61 60.349 98.7834 59.7497 98.122 58.985C97.4814 58.2203 96.9957 57.3213 96.665 56.288C96.355 55.234 96.2 54.0973 96.2 52.878ZM99.238 52.878C99.238 53.6427 99.3207 54.397 99.486 55.141C99.672 55.8643 99.9614 56.5153 100.354 57.094C100.747 57.6727 101.253 58.1377 101.873 58.489C102.493 58.8403 103.258 59.016 104.167 59.016C107.391 59.016 109.003 56.97 109.003 52.878C109.003 52.072 108.91 51.297 108.724 50.553C108.559 49.809 108.28 49.158 107.887 48.6C107.515 48.0213 107.019 47.5563 106.399 47.205C105.779 46.8537 105.035 46.678 104.167 46.678C102.555 46.678 101.325 47.1947 100.478 48.228C99.6514 49.2407 99.238 50.7907 99.238 52.878ZM126.638 61V52.01C126.638 50.274 126.359 48.972 125.801 48.104C125.243 47.236 124.251 46.802 122.825 46.802C121.564 46.802 120.51 47.1327 119.663 47.794C118.836 48.4347 118.257 49.2613 117.927 50.274V61H115.075V44.725H117.059L117.617 46.895H117.896C118.495 46.151 119.27 45.531 120.221 45.035C121.192 44.5183 122.349 44.26 123.693 44.26C124.643 44.26 125.48 44.3737 126.204 44.601C126.927 44.8077 127.526 45.19 128.002 45.748C128.498 46.2853 128.87 47.019 129.118 47.949C129.366 48.8583 129.49 50.0157 129.49 51.421V61H126.638ZM141.599 56.443C141.599 56.0297 141.496 55.6887 141.289 55.42C141.103 55.1307 140.845 54.893 140.514 54.707C140.183 54.5003 139.801 54.3247 139.367 54.18C138.933 54.0353 138.478 53.8907 138.003 53.746C137.404 53.5807 136.794 53.405 136.174 53.219C135.575 53.0123 135.027 52.7437 134.531 52.413C134.056 52.0617 133.663 51.6173 133.353 51.08C133.043 50.5427 132.888 49.8607 132.888 49.034C132.888 47.422 133.363 46.2233 134.314 45.438C135.285 44.6527 136.639 44.26 138.375 44.26C139.677 44.26 140.772 44.384 141.661 44.632C142.55 44.88 143.325 45.1487 143.986 45.438L143.304 47.856C142.746 47.5873 142.074 47.329 141.289 47.081C140.524 46.8123 139.677 46.678 138.747 46.678C137.734 46.678 136.98 46.8433 136.484 47.174C135.988 47.5047 135.74 48.104 135.74 48.972C135.74 49.3233 135.833 49.623 136.019 49.871C136.205 50.0983 136.453 50.305 136.763 50.491C137.073 50.6563 137.435 50.8113 137.848 50.956C138.261 51.08 138.695 51.204 139.15 51.328C139.77 51.4933 140.39 51.6897 141.01 51.917C141.63 52.1237 142.198 52.413 142.715 52.785C143.232 53.1363 143.645 53.591 143.955 54.149C144.286 54.707 144.451 55.4097 144.451 56.257C144.451 57.7863 143.934 59.0367 142.901 60.008C141.868 60.9587 140.318 61.434 138.251 61.434C136.928 61.434 135.771 61.2997 134.779 61.031C133.808 60.7623 132.991 60.4523 132.33 60.101L133.136 57.621C133.715 57.931 134.459 58.241 135.368 58.551C136.277 58.861 137.197 59.016 138.127 59.016C139.14 59.016 139.966 58.8403 140.607 58.489C141.268 58.117 141.599 57.435 141.599 56.443ZM145.32 44.725H148.079V41.439L150.931 40.695V44.725H155.829V47.143H150.931V55.451C150.931 56.753 151.096 57.6727 151.427 58.21C151.757 58.7473 152.326 59.016 153.132 59.016C153.648 59.016 154.113 58.9643 154.527 58.861C154.961 58.737 155.446 58.582 155.984 58.396L156.635 60.411C155.973 60.7003 155.26 60.938 154.496 61.124C153.752 61.3307 152.946 61.434 152.078 61.434C150.631 61.434 149.598 61.0413 148.978 60.256C148.378 59.4707 148.079 58.1893 148.079 56.412V47.143H145.32V44.725ZM166.811 47.422C166.46 47.3187 166.119 47.2257 165.788 47.143C165.458 47.0603 165.148 47.019 164.858 47.019C163.763 47.019 162.905 47.298 162.285 47.856C161.686 48.414 161.314 49.1167 161.169 49.964V61H158.317V44.725H160.301L160.859 46.895H161.138C161.614 46.089 162.161 45.469 162.781 45.035C163.422 44.5803 164.218 44.353 165.168 44.353C165.458 44.353 165.799 44.384 166.191 44.446C166.584 44.4873 166.977 44.57 167.369 44.694L166.811 47.422ZM171.396 44.725V53.684C171.396 54.552 171.447 55.3167 171.551 55.978C171.654 56.6393 171.84 57.1973 172.109 57.652C172.377 58.086 172.739 58.427 173.194 58.675C173.669 58.9023 174.268 59.016 174.992 59.016C176.232 59.016 177.244 58.6647 178.03 57.962C178.815 57.2593 179.414 56.3913 179.828 55.358V44.725H182.68V56.381C182.68 57.1663 182.711 57.9723 182.773 58.799C182.835 59.605 182.928 60.3387 183.052 61H181.13L180.386 58.303H180.076C179.538 59.233 178.794 59.9873 177.844 60.566C176.893 61.1447 175.705 61.434 174.279 61.434C173.328 61.434 172.491 61.3203 171.768 61.093C171.065 60.8657 170.466 60.4833 169.97 59.946C169.494 59.388 169.133 58.6543 168.885 57.745C168.657 56.8357 168.544 55.699 168.544 54.335V44.725H171.396ZM199.22 59.884C198.496 60.4007 197.649 60.783 196.678 61.031C195.706 61.2997 194.683 61.434 193.609 61.434C192.245 61.434 191.077 61.2273 190.106 60.814C189.155 60.4007 188.38 59.822 187.781 59.078C187.181 58.334 186.747 57.435 186.479 56.381C186.21 55.327 186.076 54.1593 186.076 52.878C186.076 50.1293 186.737 48.011 188.06 46.523C189.403 45.0143 191.325 44.26 193.826 44.26C194.921 44.26 195.872 44.3633 196.678 44.57C197.484 44.756 198.207 44.9937 198.848 45.283L198.104 47.608C197.546 47.3187 196.936 47.0913 196.275 46.926C195.634 46.7607 194.931 46.678 194.167 46.678C190.798 46.678 189.114 48.7447 189.114 52.878C189.114 53.6633 189.207 54.428 189.393 55.172C189.579 55.8953 189.878 56.5463 190.292 57.125C190.705 57.683 191.242 58.1377 191.904 58.489C192.586 58.8403 193.412 59.016 194.384 59.016C195.252 59.016 196.006 58.9023 196.647 58.675C197.308 58.427 197.856 58.1377 198.29 57.807L199.22 59.884ZM199.818 44.725H202.577V41.439L205.429 40.695V44.725H210.327V47.143H205.429V55.451C205.429 56.753 205.594 57.6727 205.925 58.21C206.256 58.7473 206.824 59.016 207.63 59.016C208.147 59.016 208.612 58.9643 209.025 58.861C209.459 58.737 209.945 58.582 210.482 58.396L211.133 60.411C210.472 60.7003 209.759 60.938 208.994 61.124C208.25 61.3307 207.444 61.434 206.576 61.434C205.129 61.434 204.096 61.0413 203.476 60.256C202.877 59.4707 202.577 58.1893 202.577 56.412V47.143H199.818V44.725Z" fill="#374151"/>
</svg>
