<svg width="244" height="100" viewBox="0 0 244 100" fill="none" xmlns="http://www.w3.org/2000/svg">
<rect width="244" height="100" fill="#F3F6F7"/>
<path d="M77.7516 40.129C79.2813 40.129 80.5593 40.3033 81.5855 40.6518C82.6311 41.0004 83.4153 41.5232 83.9381 42.2202C84.4802 42.8979 84.7513 43.7596 84.7513 44.8052C84.7513 45.6571 84.548 46.3929 84.1414 47.0125C83.7541 47.6128 83.241 48.1065 82.602 48.4938C81.9824 48.881 81.295 49.1812 80.5399 49.3942C79.7847 49.5878 79.049 49.704 78.3325 49.7427V49.946C79.2619 49.9847 80.1623 50.1009 81.0336 50.2945C81.9243 50.4688 82.7182 50.7592 83.4153 51.1659C84.1317 51.5725 84.6932 52.105 85.0998 52.7633C85.5258 53.4216 85.7388 54.2252 85.7388 55.174C85.7388 56.1034 85.5646 56.9263 85.216 57.6427C84.8675 58.3398 84.3544 58.911 83.6767 59.3563C82.999 59.8017 82.147 60.1405 81.1208 60.3729C80.1139 60.5859 78.9425 60.6924 77.6064 60.6924H67.1214V60.4019L68.806 59.9663V40.8551L67.1214 40.4195V40.129H77.7516ZM76.7932 40.5937C75.9219 40.5937 75.1764 40.6131 74.5568 40.6518C73.9372 40.6712 73.4434 40.7099 73.0755 40.768V60.0534C73.6951 60.2083 74.944 60.2858 76.8222 60.2858C77.7904 60.2858 78.6423 60.1115 79.3781 59.763C80.1333 59.3951 80.7142 58.8239 81.1208 58.0494C81.5274 57.2555 81.7307 56.2099 81.7307 54.9126C81.7307 53.2667 81.3144 52.0565 80.4818 51.282C79.6492 50.5075 78.3422 50.1203 76.5608 50.1203L72.8722 50.0331V49.7427L76.5608 49.6556C77.5483 49.6362 78.3616 49.4426 79.0005 49.0747C79.6589 48.6874 80.1526 48.1356 80.4818 47.4191C80.8303 46.7027 81.0046 45.8314 81.0046 44.8052C81.0046 43.4691 80.6464 42.4332 79.93 41.6974C79.2135 40.9616 78.1679 40.5937 76.7932 40.5937ZM92.8973 61.099C91.4838 61.099 90.4189 60.6827 89.7025 59.8501C89.0054 58.9981 88.6569 57.7202 88.6569 56.0163V47.0706H86.9433V46.7802L92.7231 45.7346V56.5971C92.7231 57.604 92.8973 58.3688 93.2459 58.8916C93.5944 59.4144 94.0881 59.6758 94.7271 59.6758C95.2886 59.6758 95.8502 59.4628 96.4117 59.0369C96.9926 58.5915 97.5347 58.0009 98.0382 57.2652C98.5416 56.51 98.9579 55.658 99.2871 54.7093V47.0706H97.6025V46.7802L103.353 45.7346V59.763H105.067V60.0825L99.2871 61.128V56.3648L99.0547 56.1324C98.2802 57.7976 97.3702 59.0465 96.3246 59.8791C95.2983 60.6924 94.1559 61.099 92.8973 61.099ZM109.657 43.5563C109.095 43.5563 108.592 43.4788 108.147 43.3239C107.721 43.1496 107.382 42.9173 107.13 42.6268C106.878 42.317 106.753 41.9685 106.753 41.5812C106.753 41.194 106.878 40.8551 107.13 40.5647C107.382 40.2549 107.721 40.0225 108.147 39.8676C108.592 39.6934 109.095 39.6062 109.657 39.6062C110.238 39.6062 110.741 39.6934 111.167 39.8676C111.613 40.0225 111.961 40.2549 112.213 40.5647C112.465 40.8551 112.59 41.194 112.59 41.5812C112.59 41.9685 112.465 42.317 112.213 42.6268C111.961 42.9173 111.613 43.1496 111.167 43.3239C110.741 43.4788 110.238 43.5563 109.657 43.5563ZM106.201 60.6924V60.4019L107.769 60.1115V47.0997H106.056V46.7802L111.835 45.7346V60.1115L113.404 60.4019V60.6924H106.201ZM120.558 60.1115L122.126 60.4019V60.6924H114.923V60.4019L116.491 60.1115V40.4195H114.778V40.1L120.558 39.0544V60.1115ZM139.045 39.0544V59.6468H140.759V59.9663L134.979 61.128V56.51L134.747 56.2777C134.553 56.8198 134.291 57.3813 133.962 57.9622C133.653 58.5237 133.275 59.0465 132.83 59.5306C132.384 59.9953 131.861 60.3826 131.261 60.6924C130.68 60.9828 130.032 61.128 129.315 61.128C128.153 61.128 127.127 60.8086 126.237 60.1696C125.365 59.5306 124.688 58.6593 124.203 57.5556C123.719 56.4326 123.477 55.174 123.477 53.7798C123.477 51.9791 123.768 50.4882 124.349 49.307C124.93 48.1065 125.704 47.2158 126.672 46.635C127.66 46.0347 128.734 45.7346 129.896 45.7346C130.845 45.7346 131.658 45.8895 132.336 46.1993C133.033 46.5091 133.604 46.8867 134.049 47.332C134.495 47.758 134.805 48.1937 134.979 48.639V40.5357H133.294V40.2162L139.045 39.0544ZM131.523 46.7221C130.729 46.7221 130.041 47.0125 129.46 47.5934C128.88 48.1549 128.434 48.9294 128.124 49.917C127.815 50.9045 127.66 52.0275 127.66 53.2861C127.66 54.6996 127.786 55.8904 128.037 56.8585C128.289 57.8073 128.647 58.5237 129.112 59.0078C129.596 59.4725 130.167 59.7049 130.826 59.7049C131.329 59.7049 131.784 59.579 132.191 59.3273C132.597 59.0562 132.975 58.6883 133.323 58.2236C133.672 57.7395 133.982 57.1877 134.253 56.5681C134.524 55.9291 134.766 55.2321 134.979 54.4769V51.1659C134.979 50.5656 134.892 49.9944 134.717 49.4522C134.543 48.8907 134.301 48.4163 133.991 48.0291C133.682 47.6225 133.314 47.303 132.888 47.0706C132.462 46.8383 132.007 46.7221 131.523 46.7221ZM160.571 56.8876C159.932 57.8751 159.177 58.6786 158.305 59.2983C157.434 59.9179 156.495 60.3826 155.488 60.6924C154.481 60.9828 153.445 61.128 152.38 61.128C150.947 61.128 149.621 60.8957 148.401 60.431C147.201 59.9469 146.155 59.2499 145.264 58.3398C144.374 57.4104 143.677 56.2873 143.173 54.9707C142.689 53.654 142.447 52.163 142.447 50.4978C142.447 48.852 142.689 47.3707 143.173 46.0541C143.677 44.718 144.374 43.5756 145.264 42.6268C146.174 41.6781 147.268 40.952 148.546 40.4485C149.824 39.9451 151.257 39.6934 152.845 39.6934C153.929 39.6934 154.965 39.7999 155.953 40.0129C156.94 40.2258 157.831 40.5163 158.625 40.8842C159.419 41.2327 160.087 41.6297 160.629 42.075L159.06 49.8589H158.509L157.753 45.6474C157.521 44.3889 157.163 43.3529 156.679 42.5397C156.195 41.7071 155.565 41.0875 154.791 40.6809C154.016 40.2743 153.087 40.0709 152.003 40.0709C151.189 40.0709 150.454 40.313 149.795 40.797C149.137 41.2618 148.575 41.9201 148.111 42.7721C147.646 43.6047 147.288 44.5728 147.036 45.6765C146.784 46.7802 146.659 47.971 146.659 49.2489C146.659 50.6043 146.823 51.8823 147.152 53.0828C147.481 54.2833 147.975 55.3386 148.634 56.2486C149.311 57.1587 150.163 57.8751 151.189 58.3979C152.216 58.9013 153.436 59.153 154.849 59.153C155.914 59.153 156.911 58.94 157.841 58.5141C158.789 58.0881 159.603 57.4781 160.28 56.6843L160.571 56.8876ZM170.432 45.7346C171.691 45.7346 172.804 45.9185 173.772 46.2864C174.741 46.6543 175.554 47.1868 176.212 47.8839C176.871 48.5809 177.364 49.4135 177.693 50.3817C178.042 51.3304 178.216 52.3857 178.216 53.5475C178.216 54.6124 178.042 55.6096 177.693 56.5391C177.364 57.4491 176.871 58.2527 176.212 58.9497C175.554 59.6274 174.741 60.1599 173.772 60.5472C172.824 60.9344 171.71 61.128 170.432 61.128C169.154 61.128 168.022 60.9344 167.034 60.5472C166.066 60.1599 165.253 59.6274 164.595 58.9497C163.956 58.2527 163.471 57.4491 163.142 56.5391C162.813 55.6096 162.649 54.6124 162.649 53.5475C162.649 52.3857 162.823 51.3304 163.171 50.3817C163.539 49.4135 164.052 48.5809 164.711 47.8839C165.388 47.1868 166.211 46.6543 167.179 46.2864C168.148 45.9185 169.232 45.7346 170.432 45.7346ZM170.461 46.0831C169.629 46.0831 168.941 46.4123 168.399 47.0706C167.857 47.729 167.451 48.6196 167.179 49.7427C166.928 50.8657 166.802 52.134 166.802 53.5475C166.802 54.535 166.87 55.4741 167.005 56.3648C167.141 57.2361 167.354 58.0009 167.644 58.6593C167.954 59.3176 168.341 59.8404 168.806 60.2277C169.271 60.5956 169.813 60.7795 170.432 60.7795C171.052 60.7795 171.584 60.5956 172.03 60.2277C172.495 59.8598 172.882 59.3467 173.192 58.6883C173.501 58.0106 173.724 57.2361 173.86 56.3648C173.995 55.4935 174.063 54.5544 174.063 53.5475C174.063 52.5019 173.995 51.5241 173.86 50.614C173.724 49.704 173.511 48.9101 173.221 48.2324C172.93 47.5547 172.553 47.0319 172.088 46.664C171.643 46.2767 171.1 46.0831 170.461 46.0831ZM179.879 60.6924V60.4019L181.447 60.0244V47.0997H179.762V46.7802L185.513 45.7346V50.2945L185.746 50.5269C186.017 49.8879 186.278 49.3167 186.53 48.8133C186.801 48.2905 187.072 47.8645 187.343 47.5353C187.808 46.9157 188.311 46.4607 188.853 46.1702C189.415 45.8798 190.034 45.7346 190.712 45.7346C191.177 45.7346 191.622 45.8314 192.048 46.025C192.474 46.1993 192.823 46.48 193.094 46.8673C193.365 47.2352 193.5 47.7096 193.5 48.2905C193.5 48.7358 193.384 49.1424 193.152 49.5103C192.919 49.8782 192.6 50.1687 192.193 50.3817C191.787 50.5947 191.293 50.7011 190.712 50.7011C190.209 50.7011 189.754 50.614 189.347 50.4398C188.94 50.2461 188.621 49.9944 188.389 49.6846C188.176 49.3554 188.069 48.9875 188.069 48.5809C188.069 48.426 188.079 48.2905 188.098 48.1743C188.137 48.0388 188.166 47.9129 188.185 47.7967C188.224 47.6805 188.243 47.574 188.243 47.4772C188.243 47.3417 188.195 47.2739 188.098 47.2739C187.924 47.2739 187.711 47.4385 187.459 47.7677C187.227 48.0968 186.946 48.6003 186.617 49.278C186.443 49.6652 186.259 50.1106 186.065 50.614C185.871 51.1175 185.687 51.6499 185.513 52.2115V60.0244L187.111 60.4019V60.6924H179.879ZM202.233 45.7346C203.84 45.7346 205.167 46.0541 206.212 46.693C207.258 47.332 208.042 48.184 208.565 49.2489C209.088 50.3139 209.349 51.5144 209.349 52.8504H198.341V52.56L205.573 52.1824C205.573 50.8851 205.457 49.7814 205.225 48.8714C204.992 47.9613 204.624 47.2739 204.121 46.8092C203.637 46.3251 202.998 46.0831 202.204 46.0831C201.43 46.0831 200.752 46.3348 200.171 46.8383C199.609 47.3417 199.174 48.1065 198.864 49.1328C198.574 50.1396 198.428 51.4369 198.428 53.0247C198.428 53.896 198.535 54.7383 198.748 55.5515C198.98 56.3454 199.309 57.0715 199.735 57.7299C200.181 58.3688 200.723 58.882 201.362 59.2692C202.001 59.6371 202.746 59.8211 203.598 59.8211C204.121 59.8211 204.644 59.7436 205.167 59.5887C205.689 59.4338 206.183 59.2111 206.648 58.9207C207.113 58.6302 207.539 58.2817 207.926 57.8751C208.313 57.4491 208.633 56.9554 208.884 56.3938L209.204 56.6843C208.758 57.5943 208.245 58.3398 207.664 58.9207C207.103 59.5016 206.493 59.9566 205.835 60.2858C205.176 60.5956 204.508 60.8086 203.831 60.9247C203.153 61.0603 202.485 61.128 201.827 61.128C200.626 61.128 199.561 60.9247 198.632 60.5181C197.702 60.1115 196.908 59.5597 196.25 58.8626C195.611 58.1462 195.117 57.3426 194.769 56.4519C194.44 55.5419 194.275 54.6028 194.275 53.6346C194.275 52.4148 194.469 51.3208 194.856 50.3526C195.263 49.3845 195.814 48.5616 196.511 47.8839C197.228 47.1868 198.07 46.6543 199.038 46.2864C200.006 45.9185 201.071 45.7346 202.233 45.7346Z" fill="#374151"/>
<path d="M39.0425 52.9749H35.8318C34.2642 52.9749 32.9934 51.7041 32.9934 50.1365C32.9934 48.5688 34.2642 47.298 35.8318 47.298H41.2946C42.1333 47.298 42.9402 46.9775 43.5504 46.4021C44.2798 45.7143 44.6555 44.7313 44.5708 43.7323L44.1796 39.1191C44.0348 37.4109 45.3822 35.9443 47.0965 35.9443C48.7133 35.9443 50.024 37.255 50.024 38.8717V41.6186C50.024 43.0255 49.5013 44.3823 48.5574 45.4256L43.5281 50.9842C42.3813 52.2517 40.7518 52.9749 39.0425 52.9749Z" fill="#374151"/>
<path d="M44.4297 57.9739L44.7091 61.1724C44.8456 62.734 46.2222 63.8894 47.7839 63.7529C49.3455 63.6165 50.5009 62.2399 50.3644 60.6782L49.904 55.409C49.8222 54.4719 50.1459 53.5446 50.7934 52.8621C51.3941 52.2289 52.2221 51.8608 53.0946 51.8389L57.821 51.7208C59.5286 51.6781 60.8462 50.2038 60.6975 48.5022C60.5551 46.8727 59.1187 45.6671 57.4892 45.8095L54.7869 46.0456C53.3854 46.1681 52.0793 46.8069 51.1221 47.838L46.0223 53.332C44.8595 54.5848 44.2809 56.2711 44.4297 57.9739Z" fill="#374151"/>
</svg>
