<svg width="244" height="100" viewBox="0 0 244 100" fill="none" xmlns="http://www.w3.org/2000/svg">
<path d="M0 0H244V100H0V0Z" fill="#F3F6F7"/>
<path d="M77.3185 58.8719C75.017 58.8719 73.1914 58.3181 71.8416 57.2106C70.5091 56.0858 69.8429 54.4592 69.8429 52.3307V41.8961H73.3471V52.0712C73.3471 53.3517 73.6932 54.3121 74.3854 54.9524C75.0776 55.5753 76.0553 55.8868 77.3185 55.8868C78.5817 55.8868 79.5508 55.5753 80.2257 54.9524C80.9179 54.3121 81.264 53.3517 81.264 52.0712V41.8961H84.7681V52.3307C84.7681 54.4592 84.1019 56.0858 82.7695 57.2106C81.437 58.3181 79.62 58.8719 77.3185 58.8719ZM87.0708 58.6123V46.3087H90.3154L90.4711 47.5806C91.0249 47.2345 91.7084 46.923 92.5217 46.6462C93.3524 46.352 94.1657 46.153 94.9617 46.0492V48.6968C94.4945 48.766 93.984 48.8698 93.4302 49.0083C92.8765 49.1467 92.3487 49.3024 91.8469 49.4755C91.345 49.6485 90.9211 49.8302 90.575 50.0206V58.6123H87.0708ZM103.477 58.8719C102.612 58.8719 101.859 58.7594 101.219 58.5344C100.578 58.2922 99.9899 57.9374 99.4535 57.4702L99.2718 58.6123H96.2348V41.1174H99.739V46.9836C100.241 46.6721 100.803 46.4385 101.426 46.2828C102.049 46.127 102.698 46.0492 103.373 46.0492C105.138 46.0492 106.531 46.551 107.552 47.5547C108.59 48.541 109.109 50.1417 109.109 52.3567C109.109 54.5717 108.599 56.2156 107.578 57.2885C106.574 58.3441 105.207 58.8719 103.477 58.8719ZM102.49 56.3021C103.615 56.3021 104.403 55.9734 104.852 55.3158C105.32 54.6582 105.553 53.6718 105.553 52.3567C105.553 50.9896 105.302 50.0292 104.801 49.4755C104.316 48.9044 103.537 48.6189 102.464 48.6189C101.928 48.6189 101.418 48.6968 100.933 48.8525C100.466 49.0083 100.068 49.2332 99.739 49.5274V55.186C100.085 55.5494 100.492 55.8263 100.959 56.0166C101.443 56.207 101.954 56.3021 102.49 56.3021ZM114.894 58.8719C114.115 58.8719 113.388 58.7334 112.713 58.4566C112.056 58.1624 111.519 57.7384 111.104 57.1847C110.706 56.6136 110.507 55.9041 110.507 55.0562C110.507 53.8449 110.931 52.8758 111.779 52.149C112.644 51.4222 113.916 51.0588 115.595 51.0588H119.229V50.7214C119.229 49.96 119.012 49.4236 118.58 49.1121C118.164 48.8006 117.316 48.6449 116.036 48.6449C114.634 48.6449 113.284 48.8612 111.987 49.2938V46.8279C112.558 46.6029 113.25 46.4212 114.063 46.2828C114.894 46.127 115.794 46.0492 116.763 46.0492C118.614 46.0492 120.042 46.4299 121.046 47.1913C122.067 47.9354 122.577 49.138 122.577 50.7993V58.6123H119.54L119.358 57.4962C118.874 57.9288 118.277 58.2662 117.567 58.5085C116.858 58.7507 115.967 58.8719 114.894 58.8719ZM115.854 56.5617C116.633 56.5617 117.308 56.4319 117.879 56.1724C118.45 55.9128 118.9 55.584 119.229 55.186V53.2392H115.672C114.305 53.2392 113.622 53.8016 113.622 54.9264C113.622 56.0166 114.366 56.5617 115.854 56.5617ZM124.88 58.6123V46.3087H128.124L128.254 47.4768C128.756 47.0961 129.387 46.7673 130.149 46.4904C130.928 46.1963 131.741 46.0492 132.589 46.0492C134.215 46.0492 135.401 46.4299 136.145 47.1913C136.889 47.9527 137.261 49.1294 137.261 50.7214V58.6123H133.757V50.9031C133.757 50.0725 133.584 49.4841 133.238 49.138C132.909 48.7919 132.286 48.6189 131.369 48.6189C130.832 48.6189 130.287 48.74 129.734 48.9823C129.197 49.2246 128.747 49.5274 128.384 49.8908V58.6123H124.88ZM144.786 58.8719C143.713 58.8719 142.71 58.794 141.775 58.6383C140.858 58.4825 140.062 58.2576 139.387 57.9634V54.8745C140.149 55.186 140.971 55.4369 141.853 55.6273C142.736 55.8176 143.601 55.9128 144.449 55.9128C145.66 55.9128 146.551 55.8003 147.122 55.5753C147.694 55.3504 147.979 54.8399 147.979 54.0439C147.979 53.5421 147.858 53.1441 147.616 52.8499C147.373 52.5557 146.949 52.2961 146.344 52.0712C145.755 51.8289 144.916 51.5607 143.826 51.2665C142.078 50.782 140.85 50.1763 140.14 49.4495C139.431 48.7227 139.076 47.7191 139.076 46.4385C139.076 44.8984 139.638 43.713 140.763 42.8824C141.888 42.0518 143.523 41.6365 145.669 41.6365C146.673 41.6365 147.607 41.7057 148.472 41.8442C149.337 41.9826 150.038 42.147 150.575 42.3373V45.4262C149.156 44.8898 147.676 44.6215 146.136 44.6215C145.046 44.6215 144.189 44.7427 143.566 44.9849C142.943 45.2099 142.632 45.6944 142.632 46.4385C142.632 46.8711 142.744 47.2172 142.969 47.4768C143.194 47.7364 143.575 47.97 144.111 48.1776C144.665 48.3853 145.435 48.6189 146.422 48.8785C147.789 49.2419 148.844 49.6745 149.588 50.1763C150.332 50.6781 150.843 51.2492 151.12 51.8895C151.414 52.5297 151.561 53.2479 151.561 54.0439C151.561 55.4975 151.007 56.6655 149.9 57.5481C148.792 58.4306 147.088 58.8719 144.786 58.8719ZM153.474 58.6123V41.1174H156.978V47.347C157.48 46.9663 158.094 46.6548 158.821 46.4126C159.548 46.1703 160.335 46.0492 161.183 46.0492C162.81 46.0492 163.995 46.4299 164.739 47.1913C165.483 47.9527 165.855 49.1294 165.855 50.7214V58.6123H162.351V50.9031C162.351 50.0725 162.178 49.4841 161.832 49.138C161.503 48.7919 160.88 48.6189 159.963 48.6189C159.427 48.6189 158.881 48.74 158.328 48.9823C157.791 49.2246 157.341 49.5274 156.978 49.8908V58.6123H153.474ZM169.046 44.0505V41.2991H172.861V44.0505H169.046ZM169.331 58.6123V48.9044H167.488L167.8 46.3087H172.835V58.6123H169.331ZM181.711 58.8719C179.583 58.8719 177.896 58.3441 176.65 57.2885C175.404 56.2156 174.781 54.5976 174.781 52.4346C174.781 50.4791 175.3 48.9304 176.338 47.7883C177.394 46.6289 178.96 46.0492 181.036 46.0492C182.94 46.0492 184.393 46.551 185.397 47.5547C186.418 48.541 186.929 49.8389 186.929 51.4482V53.6805H178.025C178.216 54.6669 178.666 55.3417 179.375 55.7051C180.102 56.0685 181.123 56.2502 182.438 56.2502C183.096 56.2502 183.762 56.1897 184.437 56.0685C185.129 55.9474 185.717 55.7917 186.202 55.6013V58.0932C185.631 58.3527 184.965 58.5431 184.203 58.6642C183.442 58.8027 182.611 58.8719 181.711 58.8719ZM178.025 51.5261H183.866V50.8512C183.866 50.1417 183.658 49.588 183.243 49.19C182.827 48.7746 182.127 48.567 181.14 48.567C179.981 48.567 179.167 48.8006 178.7 49.2678C178.25 49.735 178.025 50.4878 178.025 51.5261ZM192.276 58.8719C191.081 58.8719 190.208 58.595 189.654 58.0413C189.117 57.4875 188.849 56.605 188.849 55.3936V41.1174H192.353V55.1081C192.353 55.5407 192.44 55.8436 192.613 56.0166C192.786 56.1724 193.037 56.2502 193.366 56.2502C193.816 56.2502 194.222 56.1897 194.586 56.0685V58.4825C193.928 58.7421 193.158 58.8719 192.276 58.8719ZM201.201 58.8719C200.111 58.8719 199.133 58.6815 198.268 58.3008C197.42 57.9028 196.754 57.2625 196.269 56.38C195.784 55.4802 195.542 54.2948 195.542 52.8239C195.542 51.353 195.81 50.1157 196.347 49.1121C196.883 48.1084 197.601 47.347 198.501 46.8279C199.401 46.3087 200.388 46.0492 201.46 46.0492C202.81 46.0492 203.961 46.3607 204.913 46.9836V41.1174H208.417V58.6123H205.406L205.198 57.4702C204.662 57.9374 204.073 58.2922 203.433 58.5344C202.81 58.7594 202.066 58.8719 201.201 58.8719ZM202.161 56.3021C203.251 56.3021 204.169 55.9301 204.913 55.186V49.5793C204.186 48.939 203.338 48.6189 202.369 48.6189C200.189 48.6189 199.098 50.0206 199.098 52.8239C199.098 54.1391 199.367 55.0476 199.903 55.5494C200.439 56.0512 201.192 56.3021 202.161 56.3021Z" fill="#374151"/>
<path d="M46.7866 36.731C48.0946 35.423 50.216 35.423 51.5239 36.731L62.3296 47.5366C63.6375 48.8446 63.6376 50.966 62.3296 52.2739L53.4038 61.1977L47.1109 54.9331L45.4976 56.5532L51.7876 62.814L51.5239 63.0786C50.216 64.3866 48.0946 64.3866 46.7866 63.0786L35.982 52.2739C34.674 50.9659 34.674 48.8446 35.982 47.5366L44.9204 38.5972L52.9322 46.5718L54.5445 44.9526L46.5357 36.981L46.7866 36.731Z" fill="#374151"/>
</svg>
