<svg width="244" height="100" viewBox="0 0 244 100" fill="none" xmlns="http://www.w3.org/2000/svg">
<path d="M0 0H244V100H0V0Z" fill="#F3F6F7"/>
<path d="M64.717 43.865C62.8363 42.935 60.8213 42.47 58.672 42.47C57.5147 42.47 56.626 42.718 56.006 43.214C55.386 43.71 55.076 44.3713 55.076 45.198C55.076 46.6653 56.1403 47.6987 58.269 48.298C61.1623 49.104 63.198 50.0857 64.376 51.243C65.5747 52.4003 66.174 53.8987 66.174 55.738C66.174 57.8667 65.4713 59.4993 64.066 60.636C62.6607 61.752 60.625 62.31 57.959 62.31C55.2517 62.31 52.8233 61.6383 50.674 60.295L51.759 56.823C53.743 58.1663 55.8407 58.838 58.052 58.838C59.2713 58.838 60.191 58.5797 60.811 58.063C61.4517 57.5257 61.772 56.7713 61.772 55.8C61.772 54.9113 61.5137 54.2087 60.997 53.692C60.501 53.1753 59.5917 52.7207 58.269 52.328C55.6237 51.5633 53.7017 50.6023 52.503 49.445C51.325 48.2877 50.736 46.872 50.736 45.198C50.736 43.338 51.418 41.85 52.782 40.734C54.1667 39.618 56.099 39.06 58.579 39.06C61.1417 39.06 63.4873 39.5457 65.616 40.517L64.717 43.865ZM75.1369 46.5H80.6859V49.507H75.1369V56.11C75.1369 57.3293 75.2919 58.156 75.6019 58.59C75.9119 59.0033 76.4699 59.21 77.2759 59.21C78.2679 59.21 79.1979 59.0343 80.0659 58.683L80.5929 61.69C79.3115 62.1033 77.9269 62.31 76.4389 62.31C74.5375 62.31 73.1529 61.8863 72.2849 61.039C71.4375 60.1917 71.0139 58.7863 71.0139 56.823V49.507H67.6659V46.5H71.0139V40.61H75.1369V46.5ZM84.3502 45.88H88.1942L88.2562 48.98H88.3182C90.1575 46.7067 92.6272 45.57 95.7272 45.57V48.856C93.4332 48.856 91.6455 49.414 90.3642 50.53C89.1035 51.6253 88.4732 53.103 88.4732 54.963V62H84.3502V45.88ZM102.589 45.88V55.49C102.589 56.8747 102.775 57.8253 103.147 58.342C103.54 58.838 104.201 59.086 105.131 59.086C106.04 59.086 106.867 58.6313 107.611 57.722C108.376 56.792 108.758 55.707 108.758 54.467V45.88H112.788V62H109.006L108.913 59.737H108.851C108.231 60.543 107.466 61.1733 106.557 61.628C105.648 62.0827 104.707 62.31 103.736 62.31C101.979 62.31 100.688 61.814 99.8611 60.822C99.0344 59.8093 98.6211 58.1663 98.6211 55.893V45.88H102.589ZM128.283 58.156L129.213 61.163C127.519 61.9277 125.762 62.31 123.943 62.31C121.36 62.31 119.283 61.5557 117.712 60.047C116.142 58.5383 115.356 56.5027 115.356 53.94C115.356 51.3153 116.111 49.2693 117.619 47.802C119.149 46.314 121.257 45.57 123.943 45.57C125.762 45.57 127.519 45.9523 129.213 46.717L128.283 49.786C126.981 49.042 125.597 48.67 124.129 48.67C122.662 48.67 121.515 49.1247 120.688 50.034C119.882 50.9433 119.479 52.2453 119.479 53.94C119.479 55.5933 119.903 56.8953 120.75 57.846C121.618 58.7967 122.745 59.272 124.129 59.272C125.617 59.272 127.002 58.9 128.283 58.156ZM139.258 46.5H144.807V49.507H139.258V56.11C139.258 57.3293 139.413 58.156 139.723 58.59C140.033 59.0033 140.591 59.21 141.397 59.21C142.389 59.21 143.319 59.0343 144.187 58.683L144.714 61.69C143.433 62.1033 142.048 62.31 140.56 62.31C138.659 62.31 137.274 61.8863 136.406 61.039C135.559 60.1917 135.135 58.7863 135.135 56.823V49.507H131.787V46.5H135.135V40.61H139.258V46.5ZM152.285 45.88V55.49C152.285 56.8747 152.471 57.8253 152.843 58.342C153.235 58.838 153.897 59.086 154.827 59.086C155.736 59.086 156.563 58.6313 157.307 57.722C158.071 56.792 158.454 55.707 158.454 54.467V45.88H162.484V62H158.702L158.609 59.737H158.547C157.927 60.543 157.162 61.1733 156.253 61.628C155.343 62.0827 154.403 62.31 153.432 62.31C151.675 62.31 150.383 61.814 149.557 60.822C148.73 59.8093 148.317 58.1663 148.317 55.893V45.88H152.285ZM166.137 45.88H169.981L170.043 48.98H170.105C171.944 46.7067 174.414 45.57 177.514 45.57V48.856C175.22 48.856 173.432 49.414 172.151 50.53C170.89 51.6253 170.26 53.103 170.26 54.963V62H166.137V45.88ZM186.134 45.57C188.594 45.57 190.361 46.0557 191.435 47.027C192.51 47.9777 193.047 49.5277 193.047 51.677V57.66C193.047 59.1273 193.202 60.574 193.512 62H189.699C189.575 61.318 189.482 60.5223 189.42 59.613H189.358C188.78 60.4603 187.994 61.1217 187.002 61.597C186.031 62.0723 184.967 62.31 183.809 62.31C182.301 62.31 181.092 61.8967 180.182 61.07C179.294 60.2227 178.849 59.055 178.849 57.567C178.849 55.769 179.604 54.3327 181.112 53.258C182.642 52.1627 184.832 51.615 187.684 51.615H189.017V51.522C189.017 50.4267 188.8 49.662 188.366 49.228C187.932 48.794 187.157 48.577 186.041 48.577C184.016 48.577 182.104 49.042 180.306 49.972L179.717 46.965C181.681 46.035 183.82 45.57 186.134 45.57ZM182.631 57.257C182.631 57.9183 182.828 58.435 183.22 58.807C183.613 59.179 184.15 59.365 184.832 59.365C186.01 59.365 187.002 58.9827 187.808 58.218C188.614 57.4533 189.017 56.4923 189.017 55.335V54.281H187.684C186.052 54.281 184.801 54.56 183.933 55.118C183.065 55.6553 182.631 56.3683 182.631 57.257Z" fill="#374151"/>
</svg>
