<svg width="244" height="100" viewBox="0 0 244 100" fill="none" xmlns="http://www.w3.org/2000/svg">
<path d="M0 0H244V100H0V0Z" fill="#F3F6F7"/>
<path d="M58.2288 58.8818V40.93H65.6147C67.2047 40.93 68.5639 41.1865 69.6923 41.6994C70.8378 42.2123 71.7183 42.9475 72.3338 43.9049C72.9493 44.8623 73.257 45.9993 73.257 47.3157C73.257 48.6322 72.9493 49.7692 72.3338 50.7266C71.7183 51.6669 70.8378 52.3935 69.6923 52.9064C68.5639 53.4023 67.2047 53.6502 65.6147 53.6502H60.0753L61.5627 52.1371V58.8818H58.2288ZM69.9744 58.8818L65.4352 52.3679H68.9999L73.5648 58.8818H69.9744ZM61.5627 52.4961L60.0753 50.9061H65.4608C66.9311 50.9061 68.0339 50.5898 68.7691 49.9572C69.5213 49.3246 69.8975 48.4441 69.8975 47.3157C69.8975 46.1702 69.5213 45.2897 68.7691 44.6743C68.0339 44.0588 66.9311 43.751 65.4608 43.751H60.0753L61.5627 42.1097V52.4961ZM82.3213 59.0614C80.9193 59.0614 79.6713 58.7622 78.5771 58.1638C77.4828 57.5483 76.6195 56.7105 75.9869 55.6505C75.3543 54.5905 75.038 53.3852 75.038 52.0345C75.038 50.6667 75.3543 49.4614 75.9869 48.4185C76.6195 47.3585 77.4828 46.5293 78.5771 45.9309C79.6713 45.3325 80.9193 45.0333 82.3213 45.0333C83.7403 45.0333 84.997 45.3325 86.0912 45.9309C87.2025 46.5293 88.0659 47.3499 88.6814 48.3928C89.314 49.4358 89.6302 50.6496 89.6302 52.0345C89.6302 53.3852 89.314 54.5905 88.6814 55.6505C88.0659 56.7105 87.2025 57.5483 86.0912 58.1638C84.997 58.7622 83.7403 59.0614 82.3213 59.0614ZM82.3213 56.3173C83.1078 56.3173 83.8087 56.1463 84.4242 55.8044C85.0397 55.4624 85.5184 54.9666 85.8604 54.3169C86.2194 53.6673 86.3989 52.9064 86.3989 52.0345C86.3989 51.1455 86.2194 50.3846 85.8604 49.7521C85.5184 49.1024 85.0397 48.6066 84.4242 48.2646C83.8087 47.9227 83.1163 47.7517 82.3469 47.7517C81.5605 47.7517 80.8595 47.9227 80.244 48.2646C79.6456 48.6066 79.1669 49.1024 78.8079 49.7521C78.4488 50.3846 78.2693 51.1455 78.2693 52.0345C78.2693 52.9064 78.4488 53.6673 78.8079 54.3169C79.1669 54.9666 79.6456 55.4624 80.244 55.8044C80.8595 56.1463 81.5519 56.3173 82.3213 56.3173ZM98.3377 59.0614C96.9357 59.0614 95.6876 58.7622 94.5934 58.1638C93.4992 57.5483 92.6358 56.7105 92.0033 55.6505C91.3707 54.5905 91.0544 53.3852 91.0544 52.0345C91.0544 50.6667 91.3707 49.4614 92.0033 48.4185C92.6358 47.3585 93.4992 46.5293 94.5934 45.9309C95.6876 45.3325 96.9357 45.0333 98.3377 45.0333C99.7567 45.0333 101.013 45.3325 102.108 45.9309C103.219 46.5293 104.082 47.3499 104.698 48.3928C105.33 49.4358 105.647 50.6496 105.647 52.0345C105.647 53.3852 105.33 54.5905 104.698 55.6505C104.082 56.7105 103.219 57.5483 102.108 58.1638C101.013 58.7622 99.7567 59.0614 98.3377 59.0614ZM98.3377 56.3173C99.1241 56.3173 99.8251 56.1463 100.441 55.8044C101.056 55.4624 101.535 54.9666 101.877 54.3169C102.236 53.6673 102.415 52.9064 102.415 52.0345C102.415 51.1455 102.236 50.3846 101.877 49.7521C101.535 49.1024 101.056 48.6066 100.441 48.2646C99.8251 47.9227 99.1327 47.7517 98.3633 47.7517C97.5769 47.7517 96.8759 47.9227 96.2604 48.2646C95.662 48.6066 95.1833 49.1024 94.8243 49.7521C94.4652 50.3846 94.2857 51.1455 94.2857 52.0345C94.2857 52.9064 94.4652 53.6673 94.8243 54.3169C95.1833 54.9666 95.662 55.4624 96.2604 55.8044C96.8759 56.1463 97.5683 56.3173 98.3377 56.3173ZM108.635 58.8818V44.4178C108.635 42.9817 109.054 41.8362 109.892 40.9813C110.747 40.1094 111.96 39.6734 113.533 39.6734C114.098 39.6734 114.628 39.7332 115.123 39.8529C115.636 39.9726 116.064 40.1607 116.406 40.4171L115.534 42.8278C115.294 42.6397 115.021 42.5029 114.713 42.4175C114.405 42.3149 114.089 42.2636 113.764 42.2636C113.097 42.2636 112.593 42.4516 112.251 42.8278C111.909 43.1868 111.738 43.7339 111.738 44.4691V46.0078L111.841 47.444V58.8818H108.635ZM106.378 47.8543V45.2897H115.508V47.8543H106.378ZM117.765 58.8818V39.8529H120.971V58.8818H117.765ZM124.666 58.8818V45.1872H127.872V58.8818H124.666ZM126.282 42.9304C125.684 42.9304 125.188 42.7423 124.795 42.3662C124.418 41.99 124.23 41.537 124.23 41.007C124.23 40.4599 124.418 40.0068 124.795 39.6477C125.188 39.2716 125.684 39.0835 126.282 39.0835C126.88 39.0835 127.368 39.2631 127.744 39.6221C128.137 39.964 128.334 40.4 128.334 40.93C128.334 41.4942 128.146 41.9729 127.769 42.3662C127.393 42.7423 126.897 42.9304 126.282 42.9304ZM139.337 45.0333C140.431 45.0333 141.406 45.247 142.261 45.6744C143.133 46.1019 143.817 46.7601 144.312 47.6491C144.808 48.5211 145.056 49.6495 145.056 51.0343V58.8818H141.85V51.4447C141.85 50.2308 141.56 49.3246 140.978 48.7262C140.414 48.1278 139.619 47.8286 138.593 47.8286C137.841 47.8286 137.174 47.9825 136.593 48.2903C136.012 48.598 135.559 49.0596 135.234 49.6751C134.926 50.2735 134.772 51.0343 134.772 51.9576V58.8818H131.567V45.1872H134.618V48.8801L134.08 47.7517C134.559 46.8798 135.251 46.213 136.157 45.7514C137.08 45.2726 138.14 45.0333 139.337 45.0333ZM155.072 59.0614C153.55 59.0614 152.217 58.7622 151.071 58.1638C149.943 57.5483 149.062 56.7105 148.43 55.6505C147.814 54.5905 147.506 53.3852 147.506 52.0345C147.506 50.6667 147.806 49.4614 148.404 48.4185C149.02 47.3585 149.857 46.5293 150.917 45.9309C151.994 45.3325 153.217 45.0333 154.585 45.0333C155.918 45.0333 157.106 45.3239 158.149 45.9052C159.192 46.4865 160.013 47.3072 160.611 48.3672C161.21 49.4272 161.509 50.6753 161.509 52.1114C161.509 52.2482 161.5 52.4021 161.483 52.5731C161.483 52.744 161.475 52.9064 161.458 53.0603H150.045V50.9317H159.765L158.508 51.5985C158.525 50.8121 158.363 50.1196 158.021 49.5212C157.679 48.9229 157.209 48.4527 156.611 48.1107C156.029 47.7688 155.354 47.5978 154.585 47.5978C153.798 47.5978 153.106 47.7688 152.507 48.1107C151.926 48.4527 151.464 48.9314 151.122 49.5469C150.798 50.1453 150.635 50.8548 150.635 51.6755V52.1884C150.635 53.009 150.823 53.7356 151.199 54.3682C151.576 55.0008 152.106 55.4881 152.789 55.83C153.473 56.172 154.26 56.3429 155.149 56.3429C155.918 56.3429 156.611 56.2233 157.226 55.9839C157.842 55.7445 158.389 55.3684 158.867 54.8555L160.586 56.8302C159.97 57.5483 159.192 58.1039 158.252 58.4972C157.329 58.8733 156.269 59.0614 155.072 59.0614ZM170.958 58.8818V40.93H178.343C179.934 40.93 181.293 41.1865 182.421 41.6994C183.567 42.2123 184.447 42.9475 185.063 43.9049C185.678 44.8623 185.986 45.9993 185.986 47.3157C185.986 48.6322 185.678 49.7692 185.063 50.7266C184.447 51.684 183.567 52.4192 182.421 52.9321C181.293 53.445 179.934 53.7015 178.343 53.7015H172.804L174.292 52.1371V58.8818H170.958ZM174.292 52.4961L172.804 50.8805H178.19C179.66 50.8805 180.763 50.5727 181.498 49.9572C182.25 49.3246 182.626 48.4441 182.626 47.3157C182.626 46.1702 182.25 45.2897 181.498 44.6743C180.763 44.0588 179.66 43.751 178.19 43.751H172.804L174.292 42.1097V52.4961ZM188.369 58.8818V45.1872H191.421V48.957L191.062 47.8543C191.472 46.9311 192.113 46.2301 192.985 45.7514C193.874 45.2726 194.977 45.0333 196.294 45.0333V48.0851C196.157 48.0509 196.029 48.0338 195.909 48.0338C195.789 48.0167 195.67 48.0082 195.55 48.0082C194.336 48.0082 193.37 48.3672 192.652 49.0853C191.934 49.7862 191.575 50.8377 191.575 52.2397V58.8818H188.369ZM204.53 59.0614C203.128 59.0614 201.88 58.7622 200.786 58.1638C199.691 57.5483 198.828 56.7105 198.195 55.6505C197.563 54.5905 197.247 53.3852 197.247 52.0345C197.247 50.6667 197.563 49.4614 198.195 48.4185C198.828 47.3585 199.691 46.5293 200.786 45.9309C201.88 45.3325 203.128 45.0333 204.53 45.0333C205.949 45.0333 207.206 45.3325 208.3 45.9309C209.411 46.5293 210.274 47.3499 210.89 48.3928C211.523 49.4358 211.839 50.6496 211.839 52.0345C211.839 53.3852 211.523 54.5905 210.89 55.6505C210.274 56.7105 209.411 57.5483 208.3 58.1638C207.206 58.7622 205.949 59.0614 204.53 59.0614ZM204.53 56.3173C205.316 56.3173 206.017 56.1463 206.633 55.8044C207.248 55.4624 207.727 54.9666 208.069 54.3169C208.428 53.6673 208.608 52.9064 208.608 52.0345C208.608 51.1455 208.428 50.3846 208.069 49.7521C207.727 49.1024 207.248 48.6066 206.633 48.2646C206.017 47.9227 205.325 47.7517 204.556 47.7517C203.769 47.7517 203.068 47.9227 202.453 48.2646C201.854 48.6066 201.376 49.1024 201.016 49.7521C200.657 50.3846 200.478 51.1455 200.478 52.0345C200.478 52.9064 200.657 53.6673 201.016 54.3169C201.376 54.9666 201.854 55.4624 202.453 55.8044C203.068 56.1463 203.761 56.3173 204.53 56.3173Z" fill="#374151"/>
<path d="M34.8479 44.336C34.8479 43.1764 35.5101 42.1186 36.5532 41.6119L47.3303 36.3773C49.3417 35.4003 51.6819 36.8653 51.6819 39.1015C51.6819 40.2611 51.0197 41.3189 49.9766 41.8256L39.1995 47.0602C37.1881 48.0371 34.8479 46.5722 34.8479 44.336Z" fill="#374151"/>
<path d="M31 54.4366C31 53.277 31.6622 52.2191 32.7053 51.7125L43.4824 46.4779C45.4938 45.5009 47.834 46.9659 47.834 49.202C47.834 50.3617 47.1718 51.4195 46.1287 51.9262L35.3516 57.1608C33.3402 58.1377 31 56.6728 31 54.4366Z" fill="#374151"/>
<path d="M34.8479 60.6896C34.8479 59.5299 35.5101 58.4721 36.5532 57.9654L47.3303 52.7308C49.3417 51.7539 51.6819 53.2188 51.6819 55.455C51.6819 56.6146 51.0197 57.6724 49.9766 58.1791L39.1995 63.4137C37.1881 64.3907 34.8479 62.9257 34.8479 60.6896Z" fill="#374151"/>
</svg>
