<svg width="244" height="100" viewBox="0 0 244 100" fill="none" xmlns="http://www.w3.org/2000/svg">
<path d="M0 0H244V100H0V0Z" fill="#F3F6F7"/>
<path d="M101.248 61.217C99.8218 61.217 98.5404 60.969 97.4038 60.473C96.2878 59.9563 95.4094 59.2537 94.7688 58.365C94.1281 57.4557 93.7974 56.412 93.7768 55.234H96.7838C96.8871 56.2467 97.3004 57.1043 98.0238 57.807C98.7678 58.489 99.8424 58.83 101.248 58.83C102.591 58.83 103.645 58.4993 104.41 57.838C105.195 57.156 105.588 56.288 105.588 55.234C105.588 54.4073 105.36 53.7357 104.906 53.219C104.451 52.7023 103.883 52.3097 103.201 52.041C102.519 51.7723 101.599 51.483 100.442 51.173C99.0158 50.801 97.8688 50.429 97.0008 50.057C96.1534 49.685 95.4198 49.1063 94.7998 48.321C94.2004 47.515 93.9008 46.4403 93.9008 45.097C93.9008 43.919 94.2004 42.8753 94.7998 41.966C95.3991 41.0567 96.2361 40.354 97.3108 39.858C98.4061 39.362 99.6564 39.114 101.062 39.114C103.087 39.114 104.74 39.6203 106.022 40.633C107.324 41.6457 108.057 42.989 108.223 44.663H105.123C105.019 43.8363 104.585 43.113 103.821 42.493C103.056 41.8523 102.043 41.532 100.783 41.532C99.6048 41.532 98.6438 41.842 97.8998 42.462C97.1558 43.0613 96.7838 43.9087 96.7838 45.004C96.7838 45.7893 97.0008 46.43 97.4348 46.926C97.8894 47.422 98.4371 47.8043 99.0778 48.073C99.7391 48.321 100.659 48.6103 101.837 48.941C103.263 49.3337 104.41 49.7263 105.278 50.119C106.146 50.491 106.89 51.08 107.51 51.886C108.13 52.6713 108.44 53.746 108.44 55.11C108.44 56.164 108.161 57.156 107.603 58.086C107.045 59.016 106.218 59.7703 105.123 60.349C104.027 60.9277 102.736 61.217 101.248 61.217ZM120.527 61L113.862 53.498V61H111.041V38.06H113.862V51.545L120.403 44.012H124.34L116.342 52.475L124.371 61H120.527ZM140.077 44.012L129.847 68.998H126.933L130.281 60.814L123.43 44.012H126.561L131.893 57.776L137.163 44.012H140.077ZM144.184 38.06V61H141.363V38.06H144.184ZM148.899 41.253C148.362 41.253 147.907 41.067 147.535 40.695C147.163 40.323 146.977 39.8683 146.977 39.331C146.977 38.7937 147.163 38.339 147.535 37.967C147.907 37.595 148.362 37.409 148.899 37.409C149.416 37.409 149.85 37.595 150.201 37.967C150.573 38.339 150.759 38.7937 150.759 39.331C150.759 39.8683 150.573 40.323 150.201 40.695C149.85 41.067 149.416 41.253 148.899 41.253ZM150.263 44.012V61H147.442V44.012H150.263ZM161.798 43.702C163.864 43.702 165.538 44.3323 166.82 45.593C168.101 46.833 168.742 48.631 168.742 50.987V61H165.952V51.39C165.952 49.6953 165.528 48.4037 164.681 47.515C163.833 46.6057 162.676 46.151 161.209 46.151C159.721 46.151 158.532 46.616 157.644 47.546C156.776 48.476 156.342 49.8297 156.342 51.607V61H153.521V44.012H156.342V46.43C156.9 45.562 157.654 44.8903 158.605 44.415C159.576 43.9397 160.64 43.702 161.798 43.702ZM187.3 51.855C187.3 52.3923 187.269 52.9607 187.207 53.56H173.629C173.732 55.234 174.301 56.5463 175.334 57.497C176.388 58.427 177.659 58.892 179.147 58.892C180.366 58.892 181.379 58.613 182.185 58.055C183.012 57.4763 183.59 56.7117 183.921 55.761H186.959C186.504 57.3937 185.595 58.7267 184.231 59.76C182.867 60.7727 181.172 61.279 179.147 61.279C177.535 61.279 176.088 60.9173 174.807 60.194C173.546 59.4707 172.554 58.4477 171.831 57.125C171.108 55.7817 170.746 54.2317 170.746 52.475C170.746 50.7183 171.097 49.1787 171.8 47.856C172.503 46.5333 173.484 45.5207 174.745 44.818C176.026 44.0947 177.494 43.733 179.147 43.733C180.759 43.733 182.185 44.0843 183.425 44.787C184.665 45.4897 185.616 46.461 186.277 47.701C186.959 48.9203 187.3 50.305 187.3 51.855ZM184.386 51.266C184.386 50.1913 184.148 49.2717 183.673 48.507C183.198 47.7217 182.547 47.1327 181.72 46.74C180.914 46.3267 180.015 46.12 179.023 46.12C177.597 46.12 176.378 46.5747 175.365 47.484C174.373 48.3933 173.805 49.654 173.66 51.266H184.386Z" fill="#374151"/>
<path d="M63.3638 62.8556V56.3074H74.4454L76.8728 54.0182L75.9565 43.2109H83.0085V52.2777L73.438 62.8556H63.3638Z" fill="#374151"/>
<path d="M57.7101 58.2802L64.2335 57.7103L63.2689 46.6707L65.5256 44.2918L76.1841 44.0254L75.5702 37.0002L66.5378 37.7894L56.8332 48.2443L57.7101 58.2802Z" fill="#374151"/>
</svg>
