<svg width="244" height="100" viewBox="0 0 244 100" fill="none" xmlns="http://www.w3.org/2000/svg">
<path d="M0 0H244V100H0V0Z" fill="#F3F6F7"/>
<path d="M90.9985 60.5742L89.799 56.3359H84.5211L83.3483 60.5742H79.8297L85.1609 43.7543H89.2926L94.6504 60.5742H90.9985ZM85.1875 53.6436H89.1593L88.6262 51.8843C88.3774 51.0136 88.1375 50.1073 87.9064 49.1654C87.6754 48.2236 87.4444 47.3084 87.2134 46.4199H87.1068C86.8935 47.3262 86.6625 48.2502 86.4137 49.1921C86.1827 50.1162 85.9517 51.0136 85.7206 51.8843L85.1875 53.6436ZM95.74 65.399V47.8593H98.5389L98.8054 49.1388H98.8854C99.4007 48.6945 99.9783 48.3213 100.618 48.0192C101.258 47.6993 101.915 47.5394 102.591 47.5394C104.154 47.5394 105.381 48.1347 106.269 49.3254C107.158 50.4982 107.602 52.0621 107.602 54.0168C107.602 55.474 107.344 56.718 106.829 57.7487C106.314 58.7616 105.647 59.5346 104.83 60.0678C104.012 60.6009 103.133 60.8674 102.191 60.8674C101.089 60.8674 100.04 60.4232 99.0453 59.5346L99.1786 61.5605V65.399H95.74ZM101.418 58.0685C102.164 58.0685 102.786 57.7487 103.284 57.1089C103.799 56.4514 104.057 55.4385 104.057 54.0701C104.057 52.8795 103.852 51.9732 103.444 51.3512C103.053 50.7115 102.44 50.3916 101.604 50.3916C100.805 50.3916 99.9961 50.8092 99.1786 51.6444V57.1356C99.5696 57.491 99.9516 57.7398 100.325 57.882C100.716 58.0064 101.08 58.0685 101.418 58.0685ZM115.434 60.8674C114.243 60.8674 113.168 60.6098 112.208 60.0944C111.249 59.5613 110.484 58.806 109.916 57.8286C109.347 56.8335 109.063 55.634 109.063 54.2301C109.063 52.844 109.347 51.6533 109.916 50.6582C110.484 49.663 111.222 48.8989 112.128 48.3657C113.035 47.8149 113.994 47.5394 115.007 47.5394C116.198 47.5394 117.184 47.806 117.966 48.3391C118.766 48.8722 119.37 49.6008 119.779 50.5249C120.187 51.4312 120.392 52.4619 120.392 53.617C120.392 53.9369 120.365 54.2478 120.312 54.55C120.276 54.8343 120.249 55.0475 120.232 55.1897H112.421C112.564 56.2026 112.946 56.9668 113.568 57.4821C114.207 57.9975 114.989 58.2551 115.913 58.2551C116.411 58.2551 116.891 58.1841 117.353 58.0419C117.815 57.882 118.277 57.6598 118.739 57.3755L119.885 59.4813C119.263 59.9256 118.561 60.2721 117.779 60.5209C116.997 60.7519 116.216 60.8674 115.434 60.8674ZM112.368 52.8973H117.406C117.406 52.0798 117.22 51.4312 116.846 50.9514C116.473 50.4538 115.896 50.205 115.114 50.205C114.438 50.205 113.843 50.436 113.328 50.8981C112.83 51.3423 112.51 52.0087 112.368 52.8973ZM121.14 60.5742L125.086 53.9635L121.407 47.8593H125.086L126.338 50.0451C126.516 50.4005 126.694 50.7648 126.872 51.138C127.067 51.4934 127.254 51.8488 127.431 52.2042H127.538C127.698 51.8488 127.858 51.4934 128.018 51.138C128.178 50.7648 128.329 50.4005 128.471 50.0451L129.484 47.8593H133.056L129.351 54.3367L133.322 60.5742H129.59L128.231 58.3085C128.018 57.9353 127.813 57.5621 127.618 57.1889C127.422 56.8157 127.218 56.4425 127.005 56.0693H126.898C126.72 56.4425 126.543 56.8157 126.365 57.1889C126.205 57.5621 126.036 57.9353 125.859 58.3085L124.712 60.5742H121.14ZM135.199 60.5742V43.7543H140.797C141.952 43.7543 142.991 43.8875 143.915 44.1541C144.839 44.4029 145.568 44.8294 146.101 45.4336C146.634 46.0378 146.901 46.873 146.901 47.9393C146.901 48.7034 146.696 49.432 146.288 50.125C145.897 50.8181 145.346 51.2979 144.635 51.5645V51.6711C145.524 51.8843 146.261 52.3197 146.848 52.9772C147.452 53.6348 147.754 54.5233 147.754 55.6428C147.754 56.7802 147.461 57.7131 146.874 58.4417C146.306 59.1703 145.533 59.7123 144.555 60.0678C143.578 60.4054 142.467 60.5742 141.223 60.5742H135.199ZM138.637 50.6049H140.583C141.596 50.6049 142.334 50.4094 142.796 50.0184C143.276 49.6275 143.516 49.1032 143.516 48.4457C143.516 47.7171 143.267 47.2018 142.769 46.8997C142.289 46.5976 141.57 46.4465 140.61 46.4465H138.637V50.6049ZM138.637 57.9086H140.93C143.222 57.9086 144.369 57.0823 144.369 55.4296C144.369 54.6299 144.075 54.0524 143.489 53.697C142.92 53.3415 142.067 53.1638 140.93 53.1638H138.637V57.9086ZM153.672 60.8674C152.304 60.8674 151.3 60.4232 150.66 59.5346C150.038 58.6461 149.727 57.4021 149.727 55.8028V47.8593H153.193V55.3496C153.193 56.3093 153.326 56.9845 153.592 57.3755C153.877 57.7664 154.321 57.9619 154.925 57.9619C155.441 57.9619 155.885 57.8464 156.258 57.6154C156.631 57.3666 157.022 56.9579 157.431 56.3892V47.8593H160.896V60.5742H158.071L157.804 58.7616H157.724C157.173 59.4191 156.578 59.9345 155.938 60.3077C155.298 60.6808 154.543 60.8674 153.672 60.8674ZM163.853 60.5742V47.8593H167.292V60.5742H163.853ZM165.559 45.8334C164.973 45.8334 164.484 45.6646 164.093 45.327C163.72 44.9715 163.534 44.5184 163.534 43.9675C163.534 43.4344 163.72 42.999 164.093 42.6614C164.484 42.3059 164.973 42.1282 165.559 42.1282C166.164 42.1282 166.652 42.3059 167.026 42.6614C167.417 42.999 167.612 43.4344 167.612 43.9675C167.612 44.5184 167.417 44.9715 167.026 45.327C166.652 45.6646 166.164 45.8334 165.559 45.8334ZM173.496 60.8674C172.288 60.8674 171.444 60.512 170.964 59.8012C170.502 59.0904 170.271 58.1219 170.271 56.8957V42.4748H173.709V57.0556C173.709 57.4643 173.78 57.7398 173.923 57.882C174.065 58.0241 174.216 58.0952 174.376 58.0952C174.447 58.0952 174.509 58.0952 174.562 58.0952C174.633 58.0774 174.722 58.0597 174.829 58.0419L175.255 60.6009C175.06 60.672 174.811 60.7342 174.509 60.7875C174.225 60.8408 173.887 60.8674 173.496 60.8674ZM181.427 60.8674C179.828 60.8674 178.557 60.281 177.615 59.1081C176.673 57.9353 176.203 56.3093 176.203 54.2301C176.203 52.844 176.451 51.6533 176.949 50.6582C177.464 49.663 178.122 48.8989 178.921 48.3657C179.739 47.8149 180.61 47.5394 181.534 47.5394C182.245 47.5394 182.84 47.6638 183.32 47.9126C183.799 48.1614 184.279 48.4901 184.759 48.8989L184.626 46.9263V42.4748H188.064V60.5742H185.239L184.999 59.2681H184.892C184.43 59.7301 183.897 60.1122 183.293 60.4143C182.689 60.7164 182.067 60.8674 181.427 60.8674ZM182.307 58.0685C182.751 58.0685 183.151 57.9708 183.506 57.7753C183.879 57.5799 184.253 57.26 184.626 56.8157V51.2979C184.253 50.9425 183.862 50.7026 183.453 50.5782C183.062 50.4538 182.68 50.3916 182.307 50.3916C181.614 50.3916 181.009 50.7115 180.494 51.3512C179.997 51.991 179.748 52.9328 179.748 54.1768C179.748 55.4918 179.97 56.4692 180.414 57.1089C180.858 57.7487 181.489 58.0685 182.307 58.0685Z" fill="#374151"/>
<path d="M70.0652 36.4375L52.1616 51.9865L70.0652 60.7465V36.4375Z" fill="#374151"/>
<path d="M45 36V60.747H70.2888L45 36Z" fill="#374151"/>
<rect x="45" y="61.4043" width="16.5608" height="3.066" fill="#374151"/>
<rect x="62.9033" y="61.4043" width="7.16144" height="3.066" fill="#374151"/>
</svg>
