<svg width="1530" height="750" viewBox="0 0 1530 750" fill="none" xmlns="http://www.w3.org/2000/svg">
<mask id="mask0_3046_127" style="mask-type:alpha" maskUnits="userSpaceOnUse" x="0" y="0" width="1530" height="750">
<path d="M0 10C0 4.47716 4.47715 0 10 0H130H1520C1525.52 0 1530 4.47715 1530 10V608.036C1530 613.559 1525.52 618.036 1520 618.036H1360C1354.48 618.036 1350 622.513 1350 628.036V674.018C1350 679.541 1345.52 684.018 1340 684.018H1180C1174.48 684.018 1170 688.495 1170 694.018V740C1170 745.523 1165.52 750 1160 750H10C4.47715 750 0 745.523 0 740V107.679V10Z" fill="white"/>
</mask>
<g mask="url(#mask0_3046_127)">
<rect x="-139" y="-165" width="1806" height="1016" fill="white"/>
</g>
</svg>
