<svg width="26" height="36" viewBox="0 0 26 36" fill="none" xmlns="http://www.w3.org/2000/svg">
<path fill-rule="evenodd" clip-rule="evenodd" d="M2.86971 0.122689C1.52648 0.483867 0.472908 1.55246 0.118565 2.91294L0 3.36804V17.7977V32.2273L0.118565 32.6824C0.477517 34.0604 1.53324 35.1196 2.90389 35.4766C3.53787 35.6418 5.36244 35.6418 5.99643 35.4766C7.36707 35.1196 8.42279 34.0604 8.78175 32.6824L8.90031 32.2273V17.7977V3.36804L8.78175 2.91294C8.42279 1.5349 7.36707 0.475761 5.99643 0.118716C5.38167 -0.0414106 3.4708 -0.0390263 2.86971 0.122689ZM19.3989 0.122689C18.0556 0.483867 17.0021 1.55246 16.6477 2.91294L16.5292 3.36804V17.7977V32.2273L16.6477 32.6824C17.0067 34.0604 18.0624 35.1196 19.433 35.4766C20.067 35.6418 21.8916 35.6418 22.5256 35.4766C23.8962 35.1196 24.9519 34.0604 25.3109 32.6824L25.4295 32.2273V17.7977V3.36804L25.3109 2.91294C24.9519 1.5349 23.8962 0.475761 22.5256 0.118716C21.9108 -0.0414106 20 -0.0390263 19.3989 0.122689Z" fill="white"/>
</svg>
