<svg width="1530" height="750" viewBox="0 0 1530 750" fill="none" xmlns="http://www.w3.org/2000/svg">
<mask id="mask0_3033_197" style="mask-type:alpha" maskUnits="userSpaceOnUse" x="0" y="0" width="1530" height="750">
<path d="M190 107.679C195.523 107.679 200 103.201 200 97.6786V10C200 4.47716 204.477 0 210 0H1520C1525.52 0 1530 4.47715 1530 10V578.036V634.018C1530 639.541 1525.52 644.018 1520 644.018H1390H1340C1334.48 644.018 1330 648.495 1330 654.018V740C1330 745.523 1325.52 750 1320 750H9.99996C4.47711 750 0 745.523 0 740V117.679C0 112.156 4.47715 107.679 10 107.679H190Z" fill="white"/>
</mask>
<g mask="url(#mask0_3033_197)">
<rect x="-37" y="-134" width="1682" height="946" fill="white"/>
</g>
</svg>
