<svg width="13" height="18" viewBox="0 0 13 18" fill="none" xmlns="http://www.w3.org/2000/svg">
<path fill-rule="evenodd" clip-rule="evenodd" d="M1.40256 0.0599638C0.746062 0.236488 0.231132 0.758759 0.057948 1.42369L0 1.64612V8.69854V15.751L0.057948 15.9734C0.233385 16.6469 0.749364 17.1646 1.41926 17.3391C1.72912 17.4198 2.62087 17.4198 2.93073 17.3391C3.60063 17.1646 4.11661 16.6469 4.29204 15.9734L4.34999 15.751V8.69854V1.64612L4.29204 1.42369C4.11661 0.750175 3.60063 0.232526 2.93073 0.0580218C2.63027 -0.0202392 1.69634 -0.0190739 1.40256 0.0599638ZM9.48112 0.0599638C8.82462 0.236488 8.30969 0.758759 8.1365 1.42369L8.07856 1.64612V8.69854V15.751L8.1365 15.9734C8.31194 16.6469 8.82792 17.1646 9.49782 17.3391C9.80768 17.4198 10.6994 17.4198 11.0093 17.3391C11.6792 17.1646 12.1952 16.6469 12.3706 15.9734L12.4285 15.751V8.69854V1.64612L12.3706 1.42369C12.1952 0.750175 11.6792 0.232526 11.0093 0.0580218C10.7088 -0.0202392 9.7749 -0.0190739 9.48112 0.0599638Z" fill="white"/>
</svg>
