<svg width="37" height="38" viewBox="0 0 37 38" fill="none" xmlns="http://www.w3.org/2000/svg">
<g clip-path="url(#clip0_2095_1136)">
<rect x="0.135742" y="0.138428" width="36.7294" height="37.5498" rx="10" fill="#15151F"/>
<g clip-path="url(#clip1_2095_1136)">
<path d="M158.042 -78.9059L270 123.559M155.059 -78.958L267.018 123.507M152.077 -79.0101L264.035 123.455M149.094 -79.0621L261.053 123.403M146.112 -79.1142L258.07 123.351M143.129 -79.1662L255.088 123.299M140.147 -79.2183L252.105 123.247M137.164 -79.2704L249.123 123.194M134.182 -79.3224L246.14 123.142M131.199 -79.3745L243.158 123.09M128.217 -79.4265L240.175 123.038M125.234 -79.4786L237.193 122.986M122.252 -79.5307L234.21 122.934M119.269 -79.5827L231.227 122.882M116.287 -79.6348L228.245 122.83M113.304 -79.6868L225.262 122.778M110.322 -79.7389L222.28 122.726M107.339 -79.791L219.297 122.674M104.357 -79.843L216.315 122.622M101.374 -79.8951L213.332 122.57M98.3917 -79.9471L210.35 122.518M95.4091 -79.9992L207.367 122.466M92.4266 -80.0513L204.385 122.414M89.4441 -80.1033L201.402 122.361M86.4616 -80.1554L198.42 122.309M83.4791 -80.2074L195.437 122.257M80.4966 -80.2595L192.455 122.205M77.5141 -80.3116L189.472 122.153M74.5315 -80.3636L186.49 122.101M71.549 -80.4157L183.507 122.049M68.5665 -80.4677L180.525 121.997M65.584 -80.5198L177.542 121.945M62.6015 -80.5719L174.56 121.893M59.619 -80.6239L171.577 121.841M56.6365 -80.676L168.595 121.789M53.6539 -80.728L165.612 121.737M50.6714 -80.7801L162.63 121.685M47.6889 -80.8322L159.647 121.633M44.7064 -80.8842L156.665 121.581M41.7239 -80.9363L153.682 121.529M38.7414 -80.9883L150.7 121.476M35.7589 -81.0404L147.717 121.424M32.7763 -81.0925L144.735 121.372M29.7938 -81.1445L141.752 121.32M26.8113 -81.1966L138.77 121.268M23.8288 -81.2486L135.787 121.216M20.8463 -81.3007L132.805 121.164M17.8638 -81.3528L129.822 121.112M14.8813 -81.4048L126.839 121.06M11.8987 -81.4569L123.857 121.008M8.91622 -81.5089L120.874 120.956M5.93371 -81.561L117.892 120.904M2.9512 -81.6131L114.909 120.852M-0.0313181 -81.6651L111.927 120.8M-3.01383 -81.7172L108.944 120.748M-5.99635 -81.7692L105.962 120.696M-8.97886 -81.8213L102.979 120.644M-11.9614 -81.8734L99.9969 120.591M-14.9439 -81.9254L97.0143 120.539M-17.9264 -81.9775L94.0318 120.487M-20.9089 -82.0295L91.0493 120.435M-23.8914 -82.0816L88.0668 120.383M-26.8739 -82.1337L85.0843 120.331M-29.8565 -82.1857L82.1018 120.279M-32.839 -82.2378L79.1193 120.227M-35.8215 -82.2898L76.1367 120.175M-38.804 -82.3419L73.1542 120.123M-41.7865 -82.394L70.1717 120.071M-44.769 -82.446L67.1892 120.019M-47.7515 -82.4981L64.2067 119.967M-50.7341 -82.5501L61.2242 119.915M-53.7166 -82.6022L58.2417 119.863M-56.6991 -82.6543L55.2591 119.811M-59.6816 -82.7063L52.2766 119.758M-62.6641 -82.7584L49.2941 119.706M-65.6466 -82.8104L46.3116 119.654M-68.6291 -82.8625L43.3291 119.602M-71.6117 -82.9146L40.3466 119.55M-74.5942 -82.9666L37.3641 119.498M-77.5767 -83.0187L34.3815 119.446M-80.5592 -83.0707L31.399 119.394M-83.5417 -83.1228L28.4165 119.342M-86.5242 -83.1749L25.434 119.29M-89.5067 -83.2269L22.4515 119.238M-92.4893 -83.279L19.469 119.186M-95.4718 -83.331L16.4865 119.134M-98.4543 -83.3831L13.5039 119.082M-101.437 -83.4352L10.5214 119.03M-104.419 -83.4872L7.53891 118.978M-107.402 -83.5393L4.5564 118.926M-110.384 -83.5913L1.57388 118.873M-113.367 -83.6434L-1.40863 118.821M-116.349 -83.6955L-4.39115 118.769M-119.332 -83.7475L-7.37366 118.717M-122.314 -83.7996L-10.3562 118.665M-125.297 -83.8516L-13.3387 118.613M-128.279 -83.9037L-16.3212 118.561M-131.262 -83.9558L-19.3037 118.509M-134.244 -84.0078L-22.2862 118.457M-137.227 -84.0599L-25.2687 118.405M-140.209 -84.1119L-28.2513 118.353M-143.192 -84.164L-31.2338 118.301M-146.175 -84.2161L-34.2163 118.249M-149.157 -84.2681L-37.1988 118.197M-152.14 -84.3202L-40.1813 118.145M-155.122 -84.3722L-43.1638 118.093M-158.105 -84.4243L-46.1463 118.041M-161.087 -84.4764L-49.1289 117.988M-164.07 -84.5284L-52.1114 117.936M-167.052 -84.5805L-55.0939 117.884M-170.035 -84.6325L-58.0764 117.832M-173.017 -84.6846L-61.0589 117.78M-176 -84.7367L-64.0414 117.728M-178.982 -84.7887L-67.0239 117.676M-181.965 -84.8408L-70.0065 117.624M-184.947 -84.8928L-72.989 117.572M-187.93 -84.9449L-75.9715 117.52M-190.912 -84.997L-78.954 117.468M-193.895 -85.049L-81.9365 117.416M-196.877 -85.1011L-84.919 117.364M-199.86 -85.1531L-87.9015 117.312M-202.842 -85.2052L-90.8841 117.26M-205.825 -85.2573L-93.8666 117.208M-208.807 -85.3093L-96.8491 117.155M-211.79 -85.3614L-99.8316 117.103M-214.772 -85.4134L-102.814 117.051M-217.755 -85.4655L-105.797 116.999M-220.737 -85.5176L-108.779 116.947M-223.72 -85.5696L-111.762 116.895M-226.702 -85.6217L-114.744 116.843M-229.685 -85.6737L-117.727 116.791M-232.667 -85.7258L-120.709 116.739" stroke="white" stroke-opacity="0.14" stroke-width="0.63044" stroke-linecap="round"/>
<path d="M156.781 -78.9282L268.739 123.537M153.799 -78.9802L265.757 123.485M150.816 -79.0323L262.774 123.433M147.834 -79.0843L259.792 123.38M144.851 -79.1364L256.809 123.328M141.869 -79.1885L253.827 123.276M138.886 -79.2405L250.844 123.224M135.904 -79.2926L247.862 123.172M132.921 -79.3446L244.879 123.12M129.939 -79.3967L241.897 123.068M126.956 -79.4488L238.914 123.016M123.974 -79.5008L235.932 122.964M120.991 -79.5529L232.949 122.912M118.009 -79.6049L229.967 122.86M115.026 -79.657L226.984 122.808M112.043 -79.7091L224.002 122.756M109.061 -79.7611L221.019 122.704M106.078 -79.8132L218.037 122.652M103.096 -79.8652L215.054 122.6M100.113 -79.9173L212.072 122.548M97.1309 -79.9694L209.089 122.495M94.1484 -80.0214L206.107 122.443M91.1659 -80.0735L203.124 122.391M88.1834 -80.1255L200.142 122.339M85.2009 -80.1776L197.159 122.287M82.2183 -80.2297L194.177 122.235M79.2358 -80.2817L191.194 122.183M76.2533 -80.3338L188.212 122.131M73.2708 -80.3858L185.229 122.079M70.2883 -80.4379L182.247 122.027M67.3058 -80.49L179.264 121.975M64.3233 -80.542L176.281 121.923M61.3407 -80.5941L173.299 121.871M58.3582 -80.6461L170.316 121.819M55.3757 -80.6982L167.334 121.767M52.3932 -80.7503L164.351 121.715M49.4107 -80.8023L161.369 121.662M46.4282 -80.8544L158.386 121.61M43.4457 -80.9064L155.404 121.558M40.4631 -80.9585L152.421 121.506M37.4806 -81.0106L149.439 121.454M34.4981 -81.0626L146.456 121.402M31.5156 -81.1147L143.474 121.35M28.5331 -81.1667L140.491 121.298M25.5506 -81.2188L137.509 121.246M22.5681 -81.2709L134.526 121.194M19.5855 -81.3229L131.544 121.142M16.603 -81.375L128.561 121.09M13.6205 -81.427L125.579 121.038M10.638 -81.4791L122.596 120.986M7.65548 -81.5312L119.614 120.934M4.67297 -81.5832L116.631 120.882M1.69045 -81.6353L113.649 120.83M-1.29206 -81.6873L110.666 120.777M-4.27457 -81.7394L107.684 120.725M-7.25709 -81.7915L104.701 120.673M-10.2396 -81.8435L101.719 120.621M-13.2221 -81.8956L98.7361 120.569M-16.2046 -81.9476L95.7536 120.517M-19.1871 -81.9997L92.7711 120.465M-22.1697 -82.0518L89.7886 120.413M-25.1522 -82.1038L86.8061 120.361M-28.1347 -82.1559L83.8235 120.309M-31.1172 -82.2079L80.841 120.257M-34.0997 -82.26L77.8585 120.205M-37.0822 -82.3121L74.876 120.153M-40.0647 -82.3641L71.8935 120.101M-43.0473 -82.4162L68.911 120.049M-46.0298 -82.4682L65.9285 119.997M-49.0123 -82.5203L62.9459 119.945M-51.9948 -82.5724L59.9634 119.892M-54.9773 -82.6244L56.9809 119.84M-57.9598 -82.6765L53.9984 119.788M-60.9423 -82.7285L51.0159 119.736M-63.9249 -82.7806L48.0334 119.684M-66.9074 -82.8327L45.0509 119.632M-69.8899 -82.8847L42.0683 119.58M-72.8724 -82.9368L39.0858 119.528M-75.8549 -82.9888L36.1033 119.476M-78.8374 -83.0409L33.1208 119.424M-81.8199 -83.093L30.1383 119.372M-84.8025 -83.145L27.1558 119.32M-87.785 -83.1971L24.1733 119.268M-90.7675 -83.2491L21.1907 119.216M-93.75 -83.3012L18.2082 119.164M-96.7325 -83.3533L15.2257 119.112M-99.715 -83.4053L12.2432 119.059M-102.698 -83.4574L9.26068 119.007M-105.68 -83.5094L6.27817 118.955M-108.663 -83.5615L3.29566 118.903M-111.645 -83.6136L0.313141 118.851M-114.628 -83.6656L-2.66937 118.799M-117.61 -83.7177L-5.65189 118.747M-120.593 -83.7697L-8.6344 118.695M-123.575 -83.8218L-11.6169 118.643M-126.558 -83.8739L-14.5994 118.591M-129.54 -83.9259L-17.5819 118.539M-132.523 -83.978L-20.5645 118.487M-135.505 -84.03L-23.547 118.435M-138.488 -84.0821L-26.5295 118.383M-141.47 -84.1342L-29.512 118.331M-144.453 -84.1862L-32.4945 118.279M-147.435 -84.2383L-35.477 118.227M-150.418 -84.2903L-38.4595 118.174M-153.4 -84.3424L-41.4421 118.122M-156.383 -84.3945L-44.4246 118.07M-159.365 -84.4465L-47.4071 118.018M-162.348 -84.4986L-50.3896 117.966M-165.33 -84.5506L-53.3721 117.914M-168.313 -84.6027L-56.3546 117.862M-171.295 -84.6548L-59.3371 117.81M-174.278 -84.7068L-62.3197 117.758M-177.26 -84.7589L-65.3022 117.706M-180.243 -84.8109L-68.2847 117.654M-183.225 -84.863L-71.2672 117.602M-186.208 -84.9151L-74.2497 117.55M-189.19 -84.9671L-77.2322 117.498M-192.173 -85.0192L-80.2147 117.446M-195.155 -85.0712L-83.1973 117.394M-198.138 -85.1233L-86.1798 117.342M-201.121 -85.1754L-89.1623 117.289M-204.103 -85.2274L-92.1448 117.237M-207.086 -85.2795L-95.1273 117.185M-210.068 -85.3315L-98.1098 117.133M-213.051 -85.3836L-101.092 117.081M-216.033 -85.4357L-104.075 117.029M-219.016 -85.4877L-107.057 116.977M-221.998 -85.5398L-110.04 116.925M-224.981 -85.5918L-113.022 116.873M-227.963 -85.6439L-116.005 116.821M-230.946 -85.696L-118.987 116.769M-233.928 -85.748L-121.97 116.717" stroke="white" stroke-opacity="0.14" stroke-width="0.63044" stroke-linecap="round"/>
</g>
<path d="M18.3517 11.7974C18.5138 11.7654 18.6811 11.7654 18.8439 11.7974C19.0306 11.8331 19.2001 11.9216 19.3577 12.0034L19.3972 12.0242L25.5466 15.2069C25.6374 15.254 25.7135 15.325 25.7666 15.4124C25.8197 15.4997 25.8478 15.6 25.8478 15.7022V21.5746C25.8478 21.785 25.8493 22.0081 25.7786 22.2156C25.7174 22.3967 25.6171 22.5622 25.4849 22.7004C25.3325 22.8595 25.1332 22.9614 24.9473 23.0574L24.9004 23.0819L18.8543 26.2111C18.7751 26.2521 18.6871 26.2736 18.5978 26.2736C18.5085 26.2736 18.4205 26.2521 18.3413 26.2111L12.2951 23.0819L12.2483 23.0574C12.0624 22.9614 11.8631 22.8595 11.7107 22.7004C11.5785 22.5622 11.4783 22.3967 11.417 22.2156C11.3463 22.0074 11.3471 21.7843 11.3478 21.5738V15.7022C11.3478 15.6 11.3759 15.4997 11.429 15.4124C11.4821 15.325 11.5582 15.254 11.649 15.2069L17.7977 12.0242L17.8371 12.0041C17.9955 11.9216 18.1643 11.8331 18.3517 11.7974ZM18.5197 12.9099C18.449 12.9431 18.3791 12.9781 18.31 13.0147L13.1458 15.6881L15.2479 16.7172L20.7178 13.9636L18.8848 13.0147C18.8158 12.9781 18.7459 12.9431 18.6751 12.9099C18.6612 12.903 18.6467 12.897 18.632 12.892M21.941 14.5964L16.5053 17.3329L18.5978 18.3562L24.0498 15.6881L21.941 14.5964ZM18.0401 24.7989V19.3259L15.8093 18.2335V18.9771C15.8093 19.125 15.7506 19.2669 15.646 19.3715C15.5414 19.4761 15.3996 19.5348 15.2516 19.5348C15.1037 19.5348 14.9619 19.4761 14.8573 19.3715C14.7527 19.2669 14.694 19.125 14.694 18.9771V17.6877L12.4632 16.596V21.5218C12.4632 21.6608 12.4632 21.7404 12.4669 21.8006C12.4676 21.8201 12.4698 21.8395 12.4736 21.8586C12.4824 21.885 12.4969 21.9091 12.516 21.9293C12.5197 21.9322 12.5316 21.9419 12.5636 21.9605C12.6141 21.9917 12.6848 22.0274 12.8075 22.0914L18.0401 24.7989ZM18.5197 12.9099C18.5342 12.9029 18.5491 12.897 18.5643 12.892L18.5197 12.9099Z" fill="white"/>
</g>
<defs>
<clipPath id="clip0_2095_1136">
<rect x="0.135742" y="0.138428" width="36.7294" height="37.5498" rx="10" fill="white"/>
</clipPath>
<clipPath id="clip1_2095_1136">
<rect width="36.5655" height="37.8264" fill="white" transform="translate(0.0683594)"/>
</clipPath>
</defs>
</svg>
