<svg width="630" height="713" viewBox="0 0 630 713" fill="none" xmlns="http://www.w3.org/2000/svg">
<path opacity="0.6" d="M109.252 19.9261H96.2977M89.8249 13.4536V0.5M89.8249 39.3608V26.4072M135.16 19.9261H122.206M115.733 13.4536V0.5M115.733 39.3608V26.4072M161.496 19.9261H148.542M142.069 13.4536V0.5M142.069 39.3608V26.4072M187.832 19.9261H174.877M168.405 13.4536V0.5M168.405 39.3608V26.4072M214.167 19.9261H201.213M194.741 13.4536V0.5M194.741 39.3608V26.4072M240.503 19.9261H227.549M221.076 13.4536V0.5M221.076 39.3608V26.4072M266.839 19.9261H253.885M247.412 13.4536V0.5M247.412 39.3608V26.4072M293.175 19.9261H280.221M273.748 13.4536V0.5M273.748 39.3608V26.4072M319.51 19.9261H306.556M300.084 13.4536V0.5M300.084 39.3608V26.4072M345.846 19.9261H332.892M326.419 13.4536V0.5M326.419 39.3608V26.4072M372.182 19.9261H359.228M352.755 13.4536V0.5M352.755 39.3608V26.4072M398.518 19.9261H385.564M379.091 13.4536V0.5M379.091 39.3608V26.4072M424.853 19.9261H411.899M405.427 13.4536V0.5M405.427 39.3608V26.4072M451.189 19.9261H438.235M431.762 13.4536V0.5M431.762 39.3608V26.4072M109.252 46.2694H96.2977M89.8249 65.7042V52.7506M135.16 46.2694H122.206M115.733 65.7042V52.7506M161.496 46.2694H148.542M142.069 65.7042V52.7506M187.832 46.2694H174.877M168.405 65.7042V52.7506M214.167 46.2694H201.213M194.741 65.7042V52.7506M240.503 46.2694H227.549M221.076 65.7042V52.7506M266.839 46.2694H253.885M247.412 65.7042V52.7506M293.175 46.2694H280.221M273.748 65.7042V52.7506M319.51 46.2694H306.556M300.084 65.7042V52.7506M345.846 46.2694H332.892M326.419 65.7042V52.7506M372.182 46.2694H359.228M352.755 65.7042V52.7506M398.518 46.2694H385.564M379.091 65.7042V52.7506M424.853 46.2694H411.899M405.427 65.7042V52.7506M451.189 46.2694H438.235M431.762 65.7042V52.7506M109.252 72.6128H96.2977M89.8249 92.0475V79.0939M135.16 72.6128H122.206M115.733 92.0475V79.0939M161.496 72.6128H148.542M142.069 92.0475V79.0939M187.832 72.6128H174.877M168.405 92.0475V79.0939M214.167 72.6128H201.213M194.741 92.0475V79.0939M240.503 72.6128H227.549M221.076 92.0475V79.0939M266.839 72.6128H253.885M247.412 92.0475V79.0939M293.175 72.6128H280.221M273.748 92.0475V79.0939M319.51 72.6128H306.556M300.084 92.0475V79.0939M345.846 72.6128H332.892M326.419 92.0475V79.0939M372.182 72.6128H359.228M352.755 92.0475V79.0939M398.518 72.6128H385.564M379.091 92.0475V79.0939M424.853 72.6128H411.899M405.427 92.0475V79.0939M451.189 72.6128H438.235M431.762 92.0475V79.0939M109.252 98.52H96.2977M89.8249 117.955V105.001M135.16 98.52H122.206M115.733 117.955V105.001M161.496 98.52H148.542M142.069 117.955V105.001M187.832 98.52H174.877M168.405 117.955V105.001M214.167 98.52H201.213M194.741 117.955V105.001M240.503 98.52H227.549M221.076 117.955V105.001M266.839 98.52H253.885M247.412 117.955V105.001M293.175 98.52H280.221M273.748 117.955V105.001M319.51 98.52H306.556M300.084 117.955V105.001M345.846 98.52H332.892M326.419 117.955V105.001M372.182 98.52H359.228M352.755 117.955V105.001M398.518 98.52H385.564M379.091 117.955V105.001M424.853 98.52H411.899M405.427 117.955V105.001M451.189 98.52H438.235M431.762 117.955V105.001M109.252 124.427H96.2977M89.8249 143.862V130.908M135.16 124.427H122.206M115.733 143.862V130.908M161.496 124.427H148.542M142.069 143.862V130.908M187.832 124.427H174.877M168.405 143.862V130.908M214.167 124.427H201.213M194.741 143.862V130.908M240.503 124.427H227.549M221.076 143.862V130.908M266.839 124.427H253.885M247.412 143.862V130.908M293.175 124.427H280.221M273.748 143.862V130.908M319.51 124.427H306.556M300.084 143.862V130.908M345.846 124.427H332.892M326.419 143.862V130.908M372.182 124.427H359.228M352.755 143.862V130.908M398.518 124.427H385.564M379.091 143.862V130.908M424.853 124.427H411.899M405.427 143.862V130.908M451.189 124.427H438.235M431.762 143.862V130.908M109.252 150.334H96.2977M89.8249 169.769V156.816M135.16 150.334H122.206M115.733 169.769V156.816M161.496 150.334H148.542M142.069 169.769V156.816M187.832 150.334H174.877M168.405 169.769V156.816M214.167 150.334H201.213M194.741 169.769V156.816M240.503 150.334H227.549M221.076 169.769V156.816M266.839 150.334H253.885M247.412 169.769V156.816M293.175 150.334H280.221M273.748 169.769V156.816M319.51 150.334H306.556M300.084 169.769V156.816M345.846 150.334H332.892M326.419 169.769V156.816M372.182 150.334H359.228M352.755 169.769V156.816M398.518 150.334H385.564M379.091 169.769V156.816M424.853 150.334H411.899M405.427 169.769V156.816M451.189 150.334H438.235M431.762 169.769V156.816M109.252 176.242H96.2977M89.8249 195.676V182.723M135.16 176.242H122.206M115.733 195.676V182.723M161.496 176.242H148.542M142.069 195.676V182.723M187.832 176.242H174.877M168.405 195.676V182.723M214.167 176.242H201.213M194.741 195.676V182.723M240.503 176.242H227.549M221.076 195.676V182.723M266.839 176.242H253.885M247.412 195.676V182.723M293.175 176.242H280.221M273.748 195.676V182.723M319.51 176.242H306.556M300.084 195.676V182.723M345.846 176.242H332.892M326.419 195.676V182.723M372.182 176.242H359.228M352.755 195.676V182.723M398.518 176.242H385.564M379.091 195.676V182.723M424.853 176.242H411.899M405.427 195.676V182.723M451.189 176.242H438.235M431.762 195.676V182.723M109.252 202.149H96.2977M89.8249 221.584V208.63M135.16 202.149H122.206M115.733 221.584V208.63M161.496 202.149H148.542M142.069 221.584V208.63M187.832 202.149H174.877M168.405 221.584V208.63M214.167 202.149H201.213M194.741 221.584V208.63M240.503 202.149H227.549M221.076 221.584V208.63M266.839 202.149H253.885M247.412 221.584V208.63M293.175 202.149H280.221M273.748 221.584V208.63M319.51 202.149H306.556M300.084 221.584V208.63M345.846 202.149H332.892M326.419 221.584V208.63M372.182 202.149H359.228M352.755 221.584V208.63M398.518 202.149H385.564M379.091 221.584V208.63M424.853 202.149H411.899M405.427 221.584V208.63M451.189 202.149H438.235M431.762 221.584V208.63M109.252 228.056H96.2977M89.8249 247.491V234.537M135.16 228.056H122.206M115.733 247.491V234.537M161.496 228.056H148.542M142.069 247.491V234.537M187.832 228.056H174.877M168.405 247.491V234.537M214.167 228.056H201.213M194.741 247.491V234.537M240.503 228.056H227.549M221.076 247.491V234.537M266.839 228.056H253.885M247.412 247.491V234.537M293.175 228.056H280.221M273.748 247.491V234.537M319.51 228.056H306.556M300.084 247.491V234.537M345.846 228.056H332.892M326.419 247.491V234.537M372.182 228.056H359.228M352.755 247.491V234.537M398.518 228.056H385.564M379.091 247.491V234.537M424.853 228.056H411.899M405.427 247.491V234.537M451.189 228.056H438.235M431.762 247.491V234.537M475.549 19.9261H462.595M456.123 13.4536V0.5M456.123 39.3608V26.4072M501.458 19.9261H488.504M482.031 13.4536V0.5M482.031 39.3608V26.4072M527.793 19.9261H514.839M508.367 13.4536V0.5M508.367 39.3608V26.4072M554.129 19.9261H541.175M534.702 13.4536V0.5M534.702 39.3608V26.4072M580.465 19.9261H567.511M561.038 13.4536V0.5M561.038 39.3608V26.4072M606.801 19.9261H593.847M587.374 13.4536V0.5M587.374 39.3608V26.4072M633.137 19.9261H620.182M613.71 13.4536V0.5M613.71 39.3608V26.4072M659.472 19.9261H646.518M640.045 13.4536V0.5M640.045 39.3608V26.4072M685.808 19.9261H672.854M666.381 13.4536V0.5M666.381 39.3608V26.4072M712.144 19.9261H699.19M692.717 13.4536V0.5M692.717 39.3608V26.4072M738.48 19.9261H725.525M719.053 13.4536V0.5M719.053 39.3608V26.4072M764.815 19.9261H751.861M745.388 13.4536V0.5M745.388 39.3608V26.4072M791.151 19.9261H778.197M771.724 13.4536V0.5M771.724 39.3608V26.4072M817.487 19.9261H804.533M798.06 13.4536V0.5M798.06 39.3608V26.4072M475.549 46.2694H462.595M456.123 65.7042V52.7506M501.458 46.2694H488.504M482.031 65.7042V52.7506M527.793 46.2694H514.839M508.367 65.7042V52.7506M554.129 46.2694H541.175M534.702 65.7042V52.7506M580.465 46.2694H567.511M561.038 65.7042V52.7506M606.801 46.2694H593.847M587.374 65.7042V52.7506M633.137 46.2694H620.182M613.71 65.7042V52.7506M659.472 46.2694H646.518M640.045 65.7042V52.7506M685.808 46.2694H672.854M666.381 65.7042V52.7506M712.144 46.2694H699.19M692.717 65.7042V52.7506M738.48 46.2694H725.525M719.053 65.7042V52.7506M764.815 46.2694H751.861M745.388 65.7042V52.7506M791.151 46.2694H778.197M771.724 65.7042V52.7506M817.487 46.2694H804.533M798.06 65.7042V52.7506M475.549 72.6128H462.595M456.123 92.0475V79.0939M501.458 72.6128H488.504M482.031 92.0475V79.0939M527.793 72.6128H514.839M508.367 92.0475V79.0939M554.129 72.6128H541.175M534.702 92.0475V79.0939M580.465 72.6128H567.511M561.038 92.0475V79.0939M606.801 72.6128H593.847M587.374 92.0475V79.0939M633.137 72.6128H620.182M613.71 92.0475V79.0939M659.472 72.6128H646.518M640.045 92.0475V79.0939M685.808 72.6128H672.854M666.381 92.0475V79.0939M712.144 72.6128H699.19M692.717 92.0475V79.0939M738.48 72.6128H725.525M719.053 92.0475V79.0939M764.815 72.6128H751.861M745.388 92.0475V79.0939M791.151 72.6128H778.197M771.724 92.0475V79.0939M817.487 72.6128H804.533M798.06 92.0475V79.0939M475.549 98.52H462.595M456.123 117.955V105.001M501.458 98.52H488.504M482.031 117.955V105.001M527.793 98.52H514.839M508.367 117.955V105.001M554.129 98.52H541.175M534.702 117.955V105.001M580.465 98.52H567.511M561.038 117.955V105.001M606.801 98.52H593.847M587.374 117.955V105.001M633.137 98.52H620.182M613.71 117.955V105.001M659.472 98.52H646.518M640.045 117.955V105.001M685.808 98.52H672.854M666.381 117.955V105.001M712.144 98.52H699.19M692.717 117.955V105.001M738.48 98.52H725.525M719.053 117.955V105.001M764.815 98.52H751.861M745.388 117.955V105.001M791.151 98.52H778.197M771.724 117.955V105.001M817.487 98.52H804.533M798.06 117.955V105.001M475.549 124.427H462.595M456.123 143.862V130.908M501.458 124.427H488.504M482.031 143.862V130.908M527.793 124.427H514.839M508.367 143.862V130.908M554.129 124.427H541.175M534.702 143.862V130.908M580.465 124.427H567.511M561.038 143.862V130.908M606.801 124.427H593.847M587.374 143.862V130.908M633.137 124.427H620.182M613.71 143.862V130.908M659.472 124.427H646.518M640.045 143.862V130.908M685.808 124.427H672.854M666.381 143.862V130.908M712.144 124.427H699.19M692.717 143.862V130.908M738.48 124.427H725.525M719.053 143.862V130.908M764.815 124.427H751.861M745.388 143.862V130.908M791.151 124.427H778.197M771.724 143.862V130.908M817.487 124.427H804.533M798.06 143.862V130.908M475.549 150.334H462.595M456.123 169.769V156.816M501.458 150.334H488.504M482.031 169.769V156.816M527.793 150.334H514.839M508.367 169.769V156.816M554.129 150.334H541.175M534.702 169.769V156.816M580.465 150.334H567.511M561.038 169.769V156.816M606.801 150.334H593.847M587.374 169.769V156.816M633.137 150.334H620.182M613.71 169.769V156.816M659.472 150.334H646.518M640.045 169.769V156.816M685.808 150.334H672.854M666.381 169.769V156.816M712.144 150.334H699.19M692.717 169.769V156.816M738.48 150.334H725.525M719.053 169.769V156.816M764.815 150.334H751.861M745.388 169.769V156.816M791.151 150.334H778.197M771.724 169.769V156.816M817.487 150.334H804.533M798.06 169.769V156.816M475.549 176.242H462.595M456.123 195.676V182.723M501.458 176.242H488.504M482.031 195.676V182.723M527.793 176.242H514.839M508.367 195.676V182.723M554.129 176.242H541.175M534.702 195.676V182.723M580.465 176.242H567.511M561.038 195.676V182.723M606.801 176.242H593.847M587.374 195.676V182.723M633.137 176.242H620.182M613.71 195.676V182.723M659.472 176.242H646.518M640.045 195.676V182.723M685.808 176.242H672.854M666.381 195.676V182.723M712.144 176.242H699.19M692.717 195.676V182.723M738.48 176.242H725.525M719.053 195.676V182.723M764.815 176.242H751.861M745.388 195.676V182.723M791.151 176.242H778.197M771.724 195.676V182.723M817.487 176.242H804.533M798.06 195.676V182.723M475.549 202.149H462.595M456.123 221.584V208.63M501.458 202.149H488.504M482.031 221.584V208.63M527.793 202.149H514.839M508.367 221.584V208.63M554.129 202.149H541.175M534.702 221.584V208.63M580.465 202.149H567.511M561.038 221.584V208.63M606.801 202.149H593.847M587.374 221.584V208.63M633.137 202.149H620.182M613.71 221.584V208.63M659.472 202.149H646.518M640.045 221.584V208.63M685.808 202.149H672.854M666.381 221.584V208.63M712.144 202.149H699.19M692.717 221.584V208.63M738.48 202.149H725.525M719.053 221.584V208.63M764.815 202.149H751.861M745.388 221.584V208.63M791.151 202.149H778.197M771.724 221.584V208.63M817.487 202.149H804.533M798.06 221.584V208.63M475.549 228.056H462.595M456.123 247.491V234.537M501.458 228.056H488.504M482.031 247.491V234.537M527.793 228.056H514.839M508.367 247.491V234.537M554.129 228.056H541.175M534.702 247.491V234.537M580.465 228.056H567.511M561.038 247.491V234.537M606.801 228.056H593.847M587.374 247.491V234.537M633.137 228.056H620.182M613.71 247.491V234.537M659.472 228.056H646.518M640.045 247.491V234.537M685.808 228.056H672.854M666.381 247.491V234.537M712.144 228.056H699.19M692.717 247.491V234.537M738.48 228.056H725.525M719.053 247.491V234.537M764.815 228.056H751.861M745.388 247.491V234.537M791.151 228.056H778.197M771.724 247.491V234.537M817.487 228.056H804.533M798.06 247.491V234.537M841.847 19.9261H828.893M822.42 13.4536V0.5M822.42 39.3608V26.4072M867.755 19.9261H854.801M848.328 13.4536V0.5M848.328 39.3608V26.4072M894.091 19.9261H881.137M874.664 13.4536V0.5M874.664 39.3608V26.4072M901 13.4536V0.5M901 39.3608V26.4072M841.847 46.2694H828.893M822.42 65.7042V52.7506M867.755 46.2694H854.801M848.328 65.7042V52.7506M894.091 46.2694H881.137M874.664 65.7042V52.7506M901 65.7042V52.7506M841.847 72.6128H828.893M822.42 92.0475V79.0939M867.755 72.6128H854.801M848.328 92.0475V79.0939M894.091 72.6128H881.137M874.664 92.0475V79.0939M901 92.0475V79.0939M841.847 98.52H828.893M822.42 117.955V105.001M867.755 98.52H854.801M848.328 117.955V105.001M894.091 98.52H881.137M874.664 117.955V105.001M901 117.955V105.001M841.847 124.427H828.893M822.42 143.862V130.908M867.755 124.427H854.801M848.328 143.862V130.908M894.091 124.427H881.137M874.664 143.862V130.908M901 143.862V130.908M841.847 150.334H828.893M822.42 169.769V156.816M867.755 150.334H854.801M848.328 169.769V156.816M894.091 150.334H881.137M874.664 169.769V156.816M901 169.769V156.816M841.847 176.242H828.893M822.42 195.676V182.723M867.755 176.242H854.801M848.328 195.676V182.723M894.091 176.242H881.137M874.664 195.676V182.723M901 195.676V182.723M841.847 202.149H828.893M822.42 221.584V208.63M867.755 202.149H854.801M848.328 221.584V208.63M894.091 202.149H881.137M874.664 221.584V208.63M901 221.584V208.63M841.847 228.056H828.893M822.42 247.491V234.537M867.755 228.056H854.801M848.328 247.491V234.537M894.091 228.056H881.137M874.664 247.491V234.537M901 247.491V234.537M-257.046 19.9261H-270M-231.138 19.9261H-244.092M-250.564 13.4536V0.5M-250.564 39.3608V26.4072M-204.802 19.9261H-217.756M-224.229 13.4536V0.5M-224.229 39.3608V26.4072M-178.466 19.9261H-191.42M-197.893 13.4536V0.5M-197.893 39.3608V26.4072M-152.13 19.9261H-165.084M-171.557 13.4536V0.5M-171.557 39.3608V26.4072M-125.795 19.9261H-138.749M-145.221 13.4536V0.5M-145.221 39.3608V26.4072M-99.4587 19.9261H-112.413M-118.886 13.4536V0.5M-118.886 39.3608V26.4072M-73.123 19.9261H-86.0771M-92.5499 13.4536V0.5M-92.5499 39.3608V26.4072M-46.7872 19.9261H-59.7414M-66.2141 13.4536V0.5M-66.2141 39.3608V26.4072M-20.4514 19.9261H-33.4056M-39.8783 13.4536V0.5M-39.8783 39.3608V26.4072M5.88431 19.9261H-7.06984M-13.5426 13.4536V0.5M-13.5426 39.3608V26.4072M32.2201 19.9261H19.2659M12.7932 13.4536V0.5M12.7932 39.3608V26.4072M58.5559 19.9261H45.6017M39.129 13.4536V0.5M39.129 39.3608V26.4072M84.8916 19.9261H71.9375M65.4647 13.4536V0.5M65.4647 39.3608V26.4072M-257.046 46.2694H-270M-231.138 46.2694H-244.092M-250.564 65.7042V52.7506M-204.802 46.2694H-217.756M-224.229 65.7042V52.7506M-178.466 46.2694H-191.42M-197.893 65.7042V52.7506M-152.13 46.2694H-165.084M-171.557 65.7042V52.7506M-125.795 46.2694H-138.749M-145.221 65.7042V52.7506M-99.4587 46.2694H-112.413M-118.886 65.7042V52.7506M-73.123 46.2694H-86.0771M-92.5499 65.7042V52.7506M-46.7872 46.2694H-59.7414M-66.2141 65.7042V52.7506M-20.4514 46.2694H-33.4056M-39.8783 65.7042V52.7506M5.88431 46.2694H-7.06984M-13.5426 65.7042V52.7506M32.2201 46.2694H19.2659M12.7932 65.7042V52.7506M58.5559 46.2694H45.6017M39.129 65.7042V52.7506M84.8916 46.2694H71.9375M65.4647 65.7042V52.7506M-257.046 72.6128H-270M-231.138 72.6128H-244.092M-250.564 92.0475V79.0939M-204.802 72.6128H-217.756M-224.229 92.0475V79.0939M-178.466 72.6128H-191.42M-197.893 92.0475V79.0939M-152.13 72.6128H-165.084M-171.557 92.0475V79.0939M-125.795 72.6128H-138.749M-145.221 92.0475V79.0939M-99.4587 72.6128H-112.413M-118.886 92.0475V79.0939M-73.123 72.6128H-86.0771M-92.5499 92.0475V79.0939M-46.7872 72.6128H-59.7414M-66.2141 92.0475V79.0939M-20.4514 72.6128H-33.4056M-39.8783 92.0475V79.0939M5.88431 72.6128H-7.06984M-13.5426 92.0475V79.0939M32.2201 72.6128H19.2659M12.7932 92.0475V79.0939M58.5559 72.6128H45.6017M39.129 92.0475V79.0939M84.8916 72.6128H71.9375M65.4647 92.0475V79.0939M-257.046 98.52H-270M-231.138 98.52H-244.092M-250.564 117.955V105.001M-204.802 98.52H-217.756M-224.229 117.955V105.001M-178.466 98.52H-191.42M-197.893 117.955V105.001M-152.13 98.52H-165.084M-171.557 117.955V105.001M-125.795 98.52H-138.749M-145.221 117.955V105.001M-99.4587 98.52H-112.413M-118.886 117.955V105.001M-73.123 98.52H-86.0771M-92.5499 117.955V105.001M-46.7872 98.52H-59.7414M-66.2141 117.955V105.001M-20.4514 98.52H-33.4056M-39.8783 117.955V105.001M5.88431 98.52H-7.06984M-13.5426 117.955V105.001M32.2201 98.52H19.2659M12.7932 117.955V105.001M58.5559 98.52H45.6017M39.129 117.955V105.001M84.8916 98.52H71.9375M65.4647 117.955V105.001M-257.046 124.427H-270M-231.138 124.427H-244.092M-250.564 143.862V130.908M-204.802 124.427H-217.756M-224.229 143.862V130.908M-178.466 124.427H-191.42M-197.893 143.862V130.908M-152.13 124.427H-165.084M-171.557 143.862V130.908M-125.795 124.427H-138.749M-145.221 143.862V130.908M-99.4587 124.427H-112.413M-118.886 143.862V130.908M-73.123 124.427H-86.0771M-92.5499 143.862V130.908M-46.7872 124.427H-59.7414M-66.2141 143.862V130.908M-20.4514 124.427H-33.4056M-39.8783 143.862V130.908M5.88431 124.427H-7.06984M-13.5426 143.862V130.908M32.2201 124.427H19.2659M12.7932 143.862V130.908M58.5559 124.427H45.6017M39.129 143.862V130.908M84.8916 124.427H71.9375M65.4647 143.862V130.908M-257.046 150.334H-270M-231.138 150.334H-244.092M-250.564 169.769V156.816M-204.802 150.334H-217.756M-224.229 169.769V156.816M-178.466 150.334H-191.42M-197.893 169.769V156.816M-152.13 150.334H-165.084M-171.557 169.769V156.816M-125.795 150.334H-138.749M-145.221 169.769V156.816M-99.4587 150.334H-112.413M-118.886 169.769V156.816M-73.123 150.334H-86.0771M-92.5499 169.769V156.816M-46.7872 150.334H-59.7414M-66.2141 169.769V156.816M-20.4514 150.334H-33.4056M-39.8783 169.769V156.816M5.88431 150.334H-7.06984M-13.5426 169.769V156.816M32.2201 150.334H19.2659M12.7932 169.769V156.816M58.5559 150.334H45.6017M39.129 169.769V156.816M84.8916 150.334H71.9375M65.4647 169.769V156.816M-257.046 176.242H-270M-231.138 176.242H-244.092M-250.564 195.676V182.723M-204.802 176.242H-217.756M-224.229 195.676V182.723M-178.466 176.242H-191.42M-197.893 195.676V182.723M-152.13 176.242H-165.084M-171.557 195.676V182.723M-125.795 176.242H-138.749M-145.221 195.676V182.723M-99.4587 176.242H-112.413M-118.886 195.676V182.723M-73.123 176.242H-86.0771M-92.5499 195.676V182.723M-46.7872 176.242H-59.7414M-66.2141 195.676V182.723M-20.4514 176.242H-33.4056M-39.8783 195.676V182.723M5.88431 176.242H-7.06984M-13.5426 195.676V182.723M32.2201 176.242H19.2659M12.7932 195.676V182.723M58.5559 176.242H45.6017M39.129 195.676V182.723M84.8916 176.242H71.9375M65.4647 195.676V182.723M-257.046 202.149H-270M-231.138 202.149H-244.092M-250.564 221.584V208.63M-204.802 202.149H-217.756M-224.229 221.584V208.63M-178.466 202.149H-191.42M-197.893 221.584V208.63M-152.13 202.149H-165.084M-171.557 221.584V208.63M-125.795 202.149H-138.749M-145.221 221.584V208.63M-99.4587 202.149H-112.413M-118.886 221.584V208.63M-73.123 202.149H-86.0771M-92.5499 221.584V208.63M-46.7872 202.149H-59.7414M-66.2141 221.584V208.63M-20.4514 202.149H-33.4056M-39.8783 221.584V208.63M5.88431 202.149H-7.06984M-13.5426 221.584V208.63M32.2201 202.149H19.2659M12.7932 221.584V208.63M58.5559 202.149H45.6017M39.129 221.584V208.63M84.8916 202.149H71.9375M65.4647 221.584V208.63M-257.046 228.056H-270M-231.138 228.056H-244.092M-250.564 247.491V234.537M-204.802 228.056H-217.756M-224.229 247.491V234.537M-178.466 228.056H-191.42M-197.893 247.491V234.537M-152.13 228.056H-165.084M-171.557 247.491V234.537M-125.795 228.056H-138.749M-145.221 247.491V234.537M-99.4587 228.056H-112.413M-118.886 247.491V234.537M-73.123 228.056H-86.0771M-92.5499 247.491V234.537M-46.7872 228.056H-59.7414M-66.2141 247.491V234.537M-20.4514 228.056H-33.4056M-39.8783 247.491V234.537M5.88431 228.056H-7.06984M-13.5426 247.491V234.537M32.2201 228.056H19.2659M12.7932 247.491V234.537M58.5559 228.056H45.6017M39.129 247.491V234.537M84.8916 228.056H71.9375M65.4647 247.491V234.537M109.252 252.431H96.2977M89.8249 271.865V258.912M135.16 252.431H122.206M115.733 271.865V258.912M161.496 252.431H148.542M142.069 271.865V258.912M187.832 252.431H174.877M168.405 271.865V258.912M214.167 252.431H201.213M194.741 271.865V258.912M240.503 252.431H227.549M221.076 271.865V258.912M266.839 252.431H253.885M247.412 271.865V258.912M293.175 252.431H280.221M273.748 271.865V258.912M319.51 252.431H306.556M300.084 271.865V258.912M345.846 252.431H332.892M326.419 271.865V258.912M372.182 252.431H359.228M352.755 271.865V258.912M398.518 252.431H385.564M379.091 271.865V258.912M424.853 252.431H411.899M405.427 271.865V258.912M451.189 252.431H438.235M431.762 271.865V258.912M109.252 278.774H96.2977M89.8249 298.209V285.255M135.16 278.774H122.206M115.733 298.209V285.255M161.496 278.774H148.542M142.069 298.209V285.255M187.832 278.774H174.877M168.405 298.209V285.255M214.167 278.774H201.213M194.741 298.209V285.255M240.503 278.774H227.549M221.076 298.209V285.255M266.839 278.774H253.885M247.412 298.209V285.255M293.175 278.774H280.221M273.748 298.209V285.255M319.51 278.774H306.556M300.084 298.209V285.255M345.846 278.774H332.892M326.419 298.209V285.255M372.182 278.774H359.228M352.755 298.209V285.255M398.518 278.774H385.564M379.091 298.209V285.255M424.853 278.774H411.899M405.427 298.209V285.255M451.189 278.774H438.235M431.762 298.209V285.255M109.252 305.117H96.2977M89.8249 324.552V311.598M135.16 305.117H122.206M115.733 324.552V311.598M161.496 305.117H148.542M142.069 324.552V311.598M187.832 305.117H174.877M168.405 324.552V311.598M214.167 305.117H201.213M194.741 324.552V311.598M240.503 305.117H227.549M221.076 324.552V311.598M266.839 305.117H253.885M247.412 324.552V311.598M293.175 305.117H280.221M273.748 324.552V311.598M319.51 305.117H306.556M300.084 324.552V311.598M345.846 305.117H332.892M326.419 324.552V311.598M372.182 305.117H359.228M352.755 324.552V311.598M398.518 305.117H385.564M379.091 324.552V311.598M424.853 305.117H411.899M405.427 324.552V311.598M451.189 305.117H438.235M431.762 324.552V311.598M109.252 331.025H96.2977M89.8249 350.459V337.506M135.16 331.025H122.206M115.733 350.459V337.506M161.496 331.025H148.542M142.069 350.459V337.506M187.832 331.025H174.877M168.405 350.459V337.506M214.167 331.025H201.213M194.741 350.459V337.506M240.503 331.025H227.549M221.076 350.459V337.506M266.839 331.025H253.885M247.412 350.459V337.506M293.175 331.025H280.221M273.748 350.459V337.506M319.51 331.025H306.556M300.084 350.459V337.506M345.846 331.025H332.892M326.419 350.459V337.506M372.182 331.025H359.228M352.755 350.459V337.506M398.518 331.025H385.564M379.091 350.459V337.506M424.853 331.025H411.899M405.427 350.459V337.506M451.189 331.025H438.235M431.762 350.459V337.506M109.252 356.932H96.2977M89.8249 376.367V363.413M135.16 356.932H122.206M115.733 376.367V363.413M161.496 356.932H148.542M142.069 376.367V363.413M187.832 356.932H174.877M168.405 376.367V363.413M214.167 356.932H201.213M194.741 376.367V363.413M240.503 356.932H227.549M221.076 376.367V363.413M266.839 356.932H253.885M247.412 376.367V363.413M293.175 356.932H280.221M273.748 376.367V363.413M319.51 356.932H306.556M300.084 376.367V363.413M345.846 356.932H332.892M326.419 376.367V363.413M372.182 356.932H359.228M352.755 376.367V363.413M398.518 356.932H385.564M379.091 376.367V363.413M424.853 356.932H411.899M405.427 376.367V363.413M451.189 356.932H438.235M431.762 376.367V363.413M109.252 382.839H96.2977M89.8249 402.274V389.32M135.16 382.839H122.206M115.733 402.274V389.32M161.496 382.839H148.542M142.069 402.274V389.32M187.832 382.839H174.877M168.405 402.274V389.32M214.167 382.839H201.213M194.741 402.274V389.32M240.503 382.839H227.549M221.076 402.274V389.32M266.839 382.839H253.885M247.412 402.274V389.32M293.175 382.839H280.221M273.748 402.274V389.32M319.51 382.839H306.556M300.084 402.274V389.32M345.846 382.839H332.892M326.419 402.274V389.32M372.182 382.839H359.228M352.755 402.274V389.32M398.518 382.839H385.564M379.091 402.274V389.32M424.853 382.839H411.899M405.427 402.274V389.32M451.189 382.839H438.235M431.762 402.274V389.32M109.252 408.746H96.2977M89.8249 428.181V415.227M135.16 408.746H122.206M115.733 428.181V415.227M161.496 408.746H148.542M142.069 428.181V415.227M187.832 408.746H174.877M168.405 428.181V415.227M214.167 408.746H201.213M194.741 428.181V415.227M240.503 408.746H227.549M221.076 428.181V415.227M266.839 408.746H253.885M247.412 428.181V415.227M293.175 408.746H280.221M273.748 428.181V415.227M319.51 408.746H306.556M300.084 428.181V415.227M345.846 408.746H332.892M326.419 428.181V415.227M372.182 408.746H359.228M352.755 428.181V415.227M398.518 408.746H385.564M379.091 428.181V415.227M424.853 408.746H411.899M405.427 428.181V415.227M451.189 408.746H438.235M431.762 428.181V415.227M109.252 434.654H96.2977M89.8249 454.088V441.135M135.16 434.654H122.206M115.733 454.088V441.135M161.496 434.654H148.542M142.069 454.088V441.135M187.832 434.654H174.877M168.405 454.088V441.135M214.167 434.654H201.213M194.741 454.088V441.135M240.503 434.654H227.549M221.076 454.088V441.135M266.839 434.654H253.885M247.412 454.088V441.135M293.175 434.654H280.221M273.748 454.088V441.135M319.51 434.654H306.556M300.084 454.088V441.135M345.846 434.654H332.892M326.419 454.088V441.135M372.182 434.654H359.228M352.755 454.088V441.135M398.518 434.654H385.564M379.091 454.088V441.135M424.853 434.654H411.899M405.427 454.088V441.135M451.189 434.654H438.235M431.762 454.088V441.135M109.252 460.561H96.2977M89.8249 479.995V467.042M135.16 460.561H122.206M115.733 479.995V467.042M161.496 460.561H148.542M142.069 479.995V467.042M187.832 460.561H174.877M168.405 479.995V467.042M214.167 460.561H201.213M194.741 479.995V467.042M240.503 460.561H227.549M221.076 479.995V467.042M266.839 460.561H253.885M247.412 479.995V467.042M293.175 460.561H280.221M273.748 479.995V467.042M319.51 460.561H306.556M300.084 479.995V467.042M345.846 460.561H332.892M326.419 479.995V467.042M372.182 460.561H359.228M352.755 479.995V467.042M398.518 460.561H385.564M379.091 479.995V467.042M424.853 460.561H411.899M405.427 479.995V467.042M451.189 460.561H438.235M431.762 479.995V467.042M475.549 252.431H462.595M456.123 271.865V258.912M501.458 252.431H488.504M482.031 271.865V258.912M527.793 252.431H514.839M508.367 271.865V258.912M554.129 252.431H541.175M534.702 271.865V258.912M580.465 252.431H567.511M561.038 271.865V258.912M606.801 252.431H593.847M587.374 271.865V258.912M633.137 252.431H620.182M613.71 271.865V258.912M659.472 252.431H646.518M640.045 271.865V258.912M685.808 252.431H672.854M666.381 271.865V258.912M712.144 252.431H699.19M692.717 271.865V258.912M738.48 252.431H725.525M719.053 271.865V258.912M764.815 252.431H751.861M745.388 271.865V258.912M791.151 252.431H778.197M771.724 271.865V258.912M817.487 252.431H804.533M798.06 271.865V258.912M475.549 278.774H462.595M456.123 298.209V285.255M501.458 278.774H488.504M482.031 298.209V285.255M527.793 278.774H514.839M508.367 298.209V285.255M554.129 278.774H541.175M534.702 298.209V285.255M580.465 278.774H567.511M561.038 298.209V285.255M606.801 278.774H593.847M587.374 298.209V285.255M633.137 278.774H620.182M613.71 298.209V285.255M659.472 278.774H646.518M640.045 298.209V285.255M685.808 278.774H672.854M666.381 298.209V285.255M712.144 278.774H699.19M692.717 298.209V285.255M738.48 278.774H725.525M719.053 298.209V285.255M764.815 278.774H751.861M745.388 298.209V285.255M791.151 278.774H778.197M771.724 298.209V285.255M817.487 278.774H804.533M798.06 298.209V285.255M475.549 305.117H462.595M456.123 324.552V311.598M501.458 305.117H488.504M482.031 324.552V311.598M527.793 305.117H514.839M508.367 324.552V311.598M554.129 305.117H541.175M534.702 324.552V311.598M580.465 305.117H567.511M561.038 324.552V311.598M606.801 305.117H593.847M587.374 324.552V311.598M633.137 305.117H620.182M613.71 324.552V311.598M659.472 305.117H646.518M640.045 324.552V311.598M685.808 305.117H672.854M666.381 324.552V311.598M712.144 305.117H699.19M692.717 324.552V311.598M738.48 305.117H725.525M719.053 324.552V311.598M764.815 305.117H751.861M745.388 324.552V311.598M791.151 305.117H778.197M771.724 324.552V311.598M817.487 305.117H804.533M798.06 324.552V311.598M475.549 331.025H462.595M456.123 350.459V337.506M501.458 331.025H488.504M482.031 350.459V337.506M527.793 331.025H514.839M508.367 350.459V337.506M554.129 331.025H541.175M534.702 350.459V337.506M580.465 331.025H567.511M561.038 350.459V337.506M606.801 331.025H593.847M587.374 350.459V337.506M633.137 331.025H620.182M613.71 350.459V337.506M659.472 331.025H646.518M640.045 350.459V337.506M685.808 331.025H672.854M666.381 350.459V337.506M712.144 331.025H699.19M692.717 350.459V337.506M738.48 331.025H725.525M719.053 350.459V337.506M764.815 331.025H751.861M745.388 350.459V337.506M791.151 331.025H778.197M771.724 350.459V337.506M817.487 331.025H804.533M798.06 350.459V337.506M475.549 356.932H462.595M456.123 376.367V363.413M501.458 356.932H488.504M482.031 376.367V363.413M527.793 356.932H514.839M508.367 376.367V363.413M554.129 356.932H541.175M534.702 376.367V363.413M580.465 356.932H567.511M561.038 376.367V363.413M606.801 356.932H593.847M587.374 376.367V363.413M633.137 356.932H620.182M613.71 376.367V363.413M659.472 356.932H646.518M640.045 376.367V363.413M685.808 356.932H672.854M666.381 376.367V363.413M712.144 356.932H699.19M692.717 376.367V363.413M738.48 356.932H725.525M719.053 376.367V363.413M764.815 356.932H751.861M745.388 376.367V363.413M791.151 356.932H778.197M771.724 376.367V363.413M817.487 356.932H804.533M798.06 376.367V363.413M475.549 382.839H462.595M456.123 402.274V389.32M501.458 382.839H488.504M482.031 402.274V389.32M527.793 382.839H514.839M508.367 402.274V389.32M554.129 382.839H541.175M534.702 402.274V389.32M580.465 382.839H567.511M561.038 402.274V389.32M606.801 382.839H593.847M587.374 402.274V389.32M633.137 382.839H620.182M613.71 402.274V389.32M659.472 382.839H646.518M640.045 402.274V389.32M685.808 382.839H672.854M666.381 402.274V389.32M712.144 382.839H699.19M692.717 402.274V389.32M738.48 382.839H725.525M719.053 402.274V389.32M764.815 382.839H751.861M745.388 402.274V389.32M791.151 382.839H778.197M771.724 402.274V389.32M817.487 382.839H804.533M798.06 402.274V389.32M475.549 408.746H462.595M456.123 428.181V415.227M501.458 408.746H488.504M482.031 428.181V415.227M527.793 408.746H514.839M508.367 428.181V415.227M554.129 408.746H541.175M534.702 428.181V415.227M580.465 408.746H567.511M561.038 428.181V415.227M606.801 408.746H593.847M587.374 428.181V415.227M633.137 408.746H620.182M613.71 428.181V415.227M659.472 408.746H646.518M640.045 428.181V415.227M685.808 408.746H672.854M666.381 428.181V415.227M712.144 408.746H699.19M692.717 428.181V415.227M738.48 408.746H725.525M719.053 428.181V415.227M764.815 408.746H751.861M745.388 428.181V415.227M791.151 408.746H778.197M771.724 428.181V415.227M817.487 408.746H804.533M798.06 428.181V415.227M475.549 434.654H462.595M456.123 454.088V441.135M501.458 434.654H488.504M482.031 454.088V441.135M527.793 434.654H514.839M508.367 454.088V441.135M554.129 434.654H541.175M534.702 454.088V441.135M580.465 434.654H567.511M561.038 454.088V441.135M606.801 434.654H593.847M587.374 454.088V441.135M633.137 434.654H620.182M613.71 454.088V441.135M659.472 434.654H646.518M640.045 454.088V441.135M685.808 434.654H672.854M666.381 454.088V441.135M712.144 434.654H699.19M692.717 454.088V441.135M738.48 434.654H725.525M719.053 454.088V441.135M764.815 434.654H751.861M745.388 454.088V441.135M791.151 434.654H778.197M771.724 454.088V441.135M817.487 434.654H804.533M798.06 454.088V441.135M475.549 460.561H462.595M456.123 479.995V467.042M501.458 460.561H488.504M482.031 479.995V467.042M527.793 460.561H514.839M508.367 479.995V467.042M554.129 460.561H541.175M534.702 479.995V467.042M580.465 460.561H567.511M561.038 479.995V467.042M606.801 460.561H593.847M587.374 479.995V467.042M633.137 460.561H620.182M613.71 479.995V467.042M659.472 460.561H646.518M640.045 479.995V467.042M685.808 460.561H672.854M666.381 479.995V467.042M712.144 460.561H699.19M692.717 479.995V467.042M738.48 460.561H725.525M719.053 479.995V467.042M764.815 460.561H751.861M745.388 479.995V467.042M791.151 460.561H778.197M771.724 479.995V467.042M817.487 460.561H804.533M798.06 479.995V467.042M841.847 252.431H828.893M822.42 271.865V258.912M867.755 252.431H854.801M848.328 271.865V258.912M894.091 252.431H881.137M874.664 271.865V258.912M901 271.865V258.912M841.847 278.774H828.893M822.42 298.209V285.255M867.755 278.774H854.801M848.328 298.209V285.255M894.091 278.774H881.137M874.664 298.209V285.255M901 298.209V285.255M841.847 305.117H828.893M822.42 324.552V311.598M867.755 305.117H854.801M848.328 324.552V311.598M894.091 305.117H881.137M874.664 324.552V311.598M901 324.552V311.598M841.847 331.025H828.893M822.42 350.459V337.506M867.755 331.025H854.801M848.328 350.459V337.506M894.091 331.025H881.137M874.664 350.459V337.506M901 350.459V337.506M841.847 356.932H828.893M822.42 376.367V363.413M867.755 356.932H854.801M848.328 376.367V363.413M894.091 356.932H881.137M874.664 376.367V363.413M901 376.367V363.413M841.847 382.839H828.893M822.42 402.274V389.32M867.755 382.839H854.801M848.328 402.274V389.32M894.091 382.839H881.137M874.664 402.274V389.32M901 402.274V389.32M841.847 408.746H828.893M822.42 428.181V415.227M867.755 408.746H854.801M848.328 428.181V415.227M894.091 408.746H881.137M874.664 428.181V415.227M901 428.181V415.227M841.847 434.654H828.893M822.42 454.088V441.135M867.755 434.654H854.801M848.328 454.088V441.135M894.091 434.654H881.137M874.664 454.088V441.135M901 454.088V441.135M841.847 460.561H828.893M822.42 479.995V467.042M867.755 460.561H854.801M848.328 479.995V467.042M894.091 460.561H881.137M874.664 479.995V467.042M901 479.995V467.042M-257.046 252.431H-270M-231.138 252.431H-244.092M-250.564 271.865V258.912M-204.802 252.431H-217.756M-224.229 271.865V258.912M-178.466 252.431H-191.42M-197.893 271.865V258.912M-152.13 252.431H-165.084M-171.557 271.865V258.912M-125.795 252.431H-138.749M-145.221 271.865V258.912M-99.4587 252.431H-112.413M-118.886 271.865V258.912M-73.123 252.431H-86.0771M-92.5499 271.865V258.912M-46.7872 252.431H-59.7414M-66.2141 271.865V258.912M-20.4514 252.431H-33.4056M-39.8783 271.865V258.912M5.88431 252.431H-7.06984M-13.5426 271.865V258.912M32.2201 252.431H19.2659M12.7932 271.865V258.912M58.5559 252.431H45.6017M39.129 271.865V258.912M84.8916 252.431H71.9375M65.4647 271.865V258.912M-257.046 278.774H-270M-231.138 278.774H-244.092M-250.564 298.209V285.255M-204.802 278.774H-217.756M-224.229 298.209V285.255M-178.466 278.774H-191.42M-197.893 298.209V285.255M-152.13 278.774H-165.084M-171.557 298.209V285.255M-125.795 278.774H-138.749M-145.221 298.209V285.255M-99.4587 278.774H-112.413M-118.886 298.209V285.255M-73.123 278.774H-86.0771M-92.5499 298.209V285.255M-46.7872 278.774H-59.7414M-66.2141 298.209V285.255M-20.4514 278.774H-33.4056M-39.8783 298.209V285.255M5.88431 278.774H-7.06984M-13.5426 298.209V285.255M32.2201 278.774H19.2659M12.7932 298.209V285.255M58.5559 278.774H45.6017M39.129 298.209V285.255M84.8916 278.774H71.9375M65.4647 298.209V285.255M-257.046 305.117H-270M-231.138 305.117H-244.092M-250.564 324.552V311.598M-204.802 305.117H-217.756M-224.229 324.552V311.598M-178.466 305.117H-191.42M-197.893 324.552V311.598M-152.13 305.117H-165.084M-171.557 324.552V311.598M-125.795 305.117H-138.749M-145.221 324.552V311.598M-99.4587 305.117H-112.413M-118.886 324.552V311.598M-73.123 305.117H-86.0771M-92.5499 324.552V311.598M-46.7872 305.117H-59.7414M-66.2141 324.552V311.598M-20.4514 305.117H-33.4056M-39.8783 324.552V311.598M5.88431 305.117H-7.06984M-13.5426 324.552V311.598M32.2201 305.117H19.2659M12.7932 324.552V311.598M58.5559 305.117H45.6017M39.129 324.552V311.598M84.8916 305.117H71.9375M65.4647 324.552V311.598M-257.046 331.025H-270M-231.138 331.025H-244.092M-250.564 350.459V337.506M-204.802 331.025H-217.756M-224.229 350.459V337.506M-178.466 331.025H-191.42M-197.893 350.459V337.506M-152.13 331.025H-165.084M-171.557 350.459V337.506M-125.795 331.025H-138.749M-145.221 350.459V337.506M-99.4587 331.025H-112.413M-118.886 350.459V337.506M-73.123 331.025H-86.0771M-92.5499 350.459V337.506M-46.7872 331.025H-59.7414M-66.2141 350.459V337.506M-20.4514 331.025H-33.4056M-39.8783 350.459V337.506M5.88431 331.025H-7.06984M-13.5426 350.459V337.506M32.2201 331.025H19.2659M12.7932 350.459V337.506M58.5559 331.025H45.6017M39.129 350.459V337.506M84.8916 331.025H71.9375M65.4647 350.459V337.506M-257.046 356.932H-270M-231.138 356.932H-244.092M-250.564 376.367V363.413M-204.802 356.932H-217.756M-224.229 376.367V363.413M-178.466 356.932H-191.42M-197.893 376.367V363.413M-152.13 356.932H-165.084M-171.557 376.367V363.413M-125.795 356.932H-138.749M-145.221 376.367V363.413M-99.4587 356.932H-112.413M-118.886 376.367V363.413M-73.123 356.932H-86.0771M-92.5499 376.367V363.413M-46.7872 356.932H-59.7414M-66.2141 376.367V363.413M-20.4514 356.932H-33.4056M-39.8783 376.367V363.413M5.88431 356.932H-7.06984M-13.5426 376.367V363.413M32.2201 356.932H19.2659M12.7932 376.367V363.413M58.5559 356.932H45.6017M39.129 376.367V363.413M84.8916 356.932H71.9375M65.4647 376.367V363.413M-257.046 382.839H-270M-231.138 382.839H-244.092M-250.564 402.274V389.32M-204.802 382.839H-217.756M-224.229 402.274V389.32M-178.466 382.839H-191.42M-197.893 402.274V389.32M-152.13 382.839H-165.084M-171.557 402.274V389.32M-125.795 382.839H-138.749M-145.221 402.274V389.32M-99.4587 382.839H-112.413M-118.886 402.274V389.32M-73.123 382.839H-86.0771M-92.5499 402.274V389.32M-46.7872 382.839H-59.7414M-66.2141 402.274V389.32M-20.4514 382.839H-33.4056M-39.8783 402.274V389.32M5.88431 382.839H-7.06984M-13.5426 402.274V389.32M32.2201 382.839H19.2659M12.7932 402.274V389.32M58.5559 382.839H45.6017M39.129 402.274V389.32M84.8916 382.839H71.9375M65.4647 402.274V389.32M-257.046 408.746H-270M-231.138 408.746H-244.092M-250.564 428.181V415.227M-204.802 408.746H-217.756M-224.229 428.181V415.227M-178.466 408.746H-191.42M-197.893 428.181V415.227M-152.13 408.746H-165.084M-171.557 428.181V415.227M-125.795 408.746H-138.749M-145.221 428.181V415.227M-99.4587 408.746H-112.413M-118.886 428.181V415.227M-73.123 408.746H-86.0771M-92.5499 428.181V415.227M-46.7872 408.746H-59.7414M-66.2141 428.181V415.227M-20.4514 408.746H-33.4056M-39.8783 428.181V415.227M5.88431 408.746H-7.06984M-13.5426 428.181V415.227M32.2201 408.746H19.2659M12.7932 428.181V415.227M58.5559 408.746H45.6017M39.129 428.181V415.227M84.8916 408.746H71.9375M65.4647 428.181V415.227M-257.046 434.654H-270M-231.138 434.654H-244.092M-250.564 454.088V441.135M-204.802 434.654H-217.756M-224.229 454.088V441.135M-178.466 434.654H-191.42M-197.893 454.088V441.135M-152.13 434.654H-165.084M-171.557 454.088V441.135M-125.795 434.654H-138.749M-145.221 454.088V441.135M-99.4587 434.654H-112.413M-118.886 454.088V441.135M-73.123 434.654H-86.0771M-92.5499 454.088V441.135M-46.7872 434.654H-59.7414M-66.2141 454.088V441.135M-20.4514 434.654H-33.4056M-39.8783 454.088V441.135M5.88431 434.654H-7.06984M-13.5426 454.088V441.135M32.2201 434.654H19.2659M12.7932 454.088V441.135M58.5559 434.654H45.6017M39.129 454.088V441.135M84.8916 434.654H71.9375M65.4647 454.088V441.135M-257.046 460.561H-270M-231.138 460.561H-244.092M-250.564 479.995V467.042M-204.802 460.561H-217.756M-224.229 479.995V467.042M-178.466 460.561H-191.42M-197.893 479.995V467.042M-152.13 460.561H-165.084M-171.557 479.995V467.042M-125.795 460.561H-138.749M-145.221 479.995V467.042M-99.4587 460.561H-112.413M-118.886 479.995V467.042M-73.123 460.561H-86.0771M-92.5499 479.995V467.042M-46.7872 460.561H-59.7414M-66.2141 479.995V467.042M-20.4514 460.561H-33.4056M-39.8783 479.995V467.042M5.88431 460.561H-7.06984M-13.5426 479.995V467.042M32.2201 460.561H19.2659M12.7932 479.995V467.042M58.5559 460.561H45.6017M39.129 479.995V467.042M84.8916 460.561H71.9375M65.4647 479.995V467.042M109.252 484.935H96.2977M89.8249 504.37V491.416M135.16 484.935H122.206M115.733 504.37V491.416M161.496 484.935H148.542M142.069 504.37V491.416M187.832 484.935H174.877M168.405 504.37V491.416M214.167 484.935H201.213M194.741 504.37V491.416M240.503 484.935H227.549M221.076 504.37V491.416M266.839 484.935H253.885M247.412 504.37V491.416M293.175 484.935H280.221M273.748 504.37V491.416M319.51 484.935H306.556M300.084 504.37V491.416M345.846 484.935H332.892M326.419 504.37V491.416M372.182 484.935H359.228M352.755 504.37V491.416M398.518 484.935H385.564M379.091 504.37V491.416M424.853 484.935H411.899M405.427 504.37V491.416M451.189 484.935H438.235M431.762 504.37V491.416M109.252 511.279H96.2977M89.8249 530.713V517.76M135.16 511.279H122.206M115.733 530.713V517.76M161.496 511.279H148.542M142.069 530.713V517.76M187.832 511.279H174.877M168.405 530.713V517.76M214.167 511.279H201.213M194.741 530.713V517.76M240.503 511.279H227.549M221.076 530.713V517.76M266.839 511.279H253.885M247.412 530.713V517.76M293.175 511.279H280.221M273.748 530.713V517.76M319.51 511.279H306.556M300.084 530.713V517.76M345.846 511.279H332.892M326.419 530.713V517.76M372.182 511.279H359.228M352.755 530.713V517.76M398.518 511.279H385.564M379.091 530.713V517.76M424.853 511.279H411.899M405.427 530.713V517.76M451.189 511.279H438.235M431.762 530.713V517.76M109.252 537.622H96.2977M89.8249 557.057V544.103M135.16 537.622H122.206M115.733 557.057V544.103M161.496 537.622H148.542M142.069 557.057V544.103M187.832 537.622H174.877M168.405 557.057V544.103M214.167 537.622H201.213M194.741 557.057V544.103M240.503 537.622H227.549M221.076 557.057V544.103M266.839 537.622H253.885M247.412 557.057V544.103M293.175 537.622H280.221M273.748 557.057V544.103M319.51 537.622H306.556M300.084 557.057V544.103M345.846 537.622H332.892M326.419 557.057V544.103M372.182 537.622H359.228M352.755 557.057V544.103M398.518 537.622H385.564M379.091 557.057V544.103M424.853 537.622H411.899M405.427 557.057V544.103M451.189 537.622H438.235M431.762 557.057V544.103M109.252 563.529H96.2977M89.8249 582.964V570.01M135.16 563.529H122.206M115.733 582.964V570.01M161.496 563.529H148.542M142.069 582.964V570.01M187.832 563.529H174.877M168.405 582.964V570.01M214.167 563.529H201.213M194.741 582.964V570.01M240.503 563.529H227.549M221.076 582.964V570.01M266.839 563.529H253.885M247.412 582.964V570.01M293.175 563.529H280.221M273.748 582.964V570.01M319.51 563.529H306.556M300.084 582.964V570.01M345.846 563.529H332.892M326.419 582.964V570.01M372.182 563.529H359.228M352.755 582.964V570.01M398.518 563.529H385.564M379.091 582.964V570.01M424.853 563.529H411.899M405.427 582.964V570.01M451.189 563.529H438.235M431.762 582.964V570.01M109.252 589.436H96.2977M89.8249 608.871V595.918M135.16 589.436H122.206M115.733 608.871V595.918M161.496 589.436H148.542M142.069 608.871V595.918M187.832 589.436H174.877M168.405 608.871V595.918M214.167 589.436H201.213M194.741 608.871V595.918M240.503 589.436H227.549M221.076 608.871V595.918M266.839 589.436H253.885M247.412 608.871V595.918M293.175 589.436H280.221M273.748 608.871V595.918M319.51 589.436H306.556M300.084 608.871V595.918M345.846 589.436H332.892M326.419 608.871V595.918M372.182 589.436H359.228M352.755 608.871V595.918M398.518 589.436H385.564M379.091 608.871V595.918M424.853 589.436H411.899M405.427 608.871V595.918M451.189 589.436H438.235M431.762 608.871V595.918M109.252 615.344H96.2977M89.8249 634.778V621.825M135.16 615.344H122.206M115.733 634.778V621.825M161.496 615.344H148.542M142.069 634.778V621.825M187.832 615.344H174.877M168.405 634.778V621.825M214.167 615.344H201.213M194.741 634.778V621.825M240.503 615.344H227.549M221.076 634.778V621.825M266.839 615.344H253.885M247.412 634.778V621.825M293.175 615.344H280.221M273.748 634.778V621.825M319.51 615.344H306.556M300.084 634.778V621.825M345.846 615.344H332.892M326.419 634.778V621.825M372.182 615.344H359.228M352.755 634.778V621.825M398.518 615.344H385.564M379.091 634.778V621.825M424.853 615.344H411.899M405.427 634.778V621.825M451.189 615.344H438.235M431.762 634.778V621.825M109.252 641.251H96.2977M89.8249 660.686V647.732M135.16 641.251H122.206M115.733 660.686V647.732M161.496 641.251H148.542M142.069 660.686V647.732M187.832 641.251H174.877M168.405 660.686V647.732M214.167 641.251H201.213M194.741 660.686V647.732M240.503 641.251H227.549M221.076 660.686V647.732M266.839 641.251H253.885M247.412 660.686V647.732M293.175 641.251H280.221M273.748 660.686V647.732M319.51 641.251H306.556M300.084 660.686V647.732M345.846 641.251H332.892M326.419 660.686V647.732M372.182 641.251H359.228M352.755 660.686V647.732M398.518 641.251H385.564M379.091 660.686V647.732M424.853 641.251H411.899M405.427 660.686V647.732M451.189 641.251H438.235M431.762 660.686V647.732M109.252 667.158H96.2977M89.8249 686.593V673.639M135.16 667.158H122.206M115.733 686.593V673.639M161.496 667.158H148.542M142.069 686.593V673.639M187.832 667.158H174.877M168.405 686.593V673.639M214.167 667.158H201.213M194.741 686.593V673.639M240.503 667.158H227.549M221.076 686.593V673.639M266.839 667.158H253.885M247.412 686.593V673.639M293.175 667.158H280.221M273.748 686.593V673.639M319.51 667.158H306.556M300.084 686.593V673.639M345.846 667.158H332.892M326.419 686.593V673.639M372.182 667.158H359.228M352.755 686.593V673.639M398.518 667.158H385.564M379.091 686.593V673.639M424.853 667.158H411.899M405.427 686.593V673.639M451.189 667.158H438.235M431.762 686.593V673.639M109.252 693.065H96.2977M89.8249 712.5V699.546M135.16 693.065H122.206M115.733 712.5V699.546M161.496 693.065H148.542M142.069 712.5V699.546M187.832 693.065H174.877M168.405 712.5V699.546M214.167 693.065H201.213M194.741 712.5V699.546M240.503 693.065H227.549M221.076 712.5V699.546M266.839 693.065H253.885M247.412 712.5V699.546M293.175 693.065H280.221M273.748 712.5V699.546M319.51 693.065H306.556M300.084 712.5V699.546M345.846 693.065H332.892M326.419 712.5V699.546M372.182 693.065H359.228M352.755 712.5V699.546M398.518 693.065H385.564M379.091 712.5V699.546M424.853 693.065H411.899M405.427 712.5V699.546M451.189 693.065H438.235M431.762 712.5V699.546M475.549 484.935H462.595M456.123 504.37V491.416M501.458 484.935H488.504M482.031 504.37V491.416M527.793 484.935H514.839M508.367 504.37V491.416M554.129 484.935H541.175M534.702 504.37V491.416M580.465 484.935H567.511M561.038 504.37V491.416M606.801 484.935H593.847M587.374 504.37V491.416M633.137 484.935H620.182M613.71 504.37V491.416M659.472 484.935H646.518M640.045 504.37V491.416M685.808 484.935H672.854M666.381 504.37V491.416M712.144 484.935H699.19M692.717 504.37V491.416M738.48 484.935H725.525M719.053 504.37V491.416M764.815 484.935H751.861M745.388 504.37V491.416M791.151 484.935H778.197M771.724 504.37V491.416M817.487 484.935H804.533M798.06 504.37V491.416M475.549 511.279H462.595M456.123 530.713V517.76M501.458 511.279H488.504M482.031 530.713V517.76M527.793 511.279H514.839M508.367 530.713V517.76M554.129 511.279H541.175M534.702 530.713V517.76M580.465 511.279H567.511M561.038 530.713V517.76M606.801 511.279H593.847M587.374 530.713V517.76M633.137 511.279H620.182M613.71 530.713V517.76M659.472 511.279H646.518M640.045 530.713V517.76M685.808 511.279H672.854M666.381 530.713V517.76M712.144 511.279H699.19M692.717 530.713V517.76M738.48 511.279H725.525M719.053 530.713V517.76M764.815 511.279H751.861M745.388 530.713V517.76M791.151 511.279H778.197M771.724 530.713V517.76M817.487 511.279H804.533M798.06 530.713V517.76M475.549 537.622H462.595M456.123 557.057V544.103M501.458 537.622H488.504M482.031 557.057V544.103M527.793 537.622H514.839M508.367 557.057V544.103M554.129 537.622H541.175M534.702 557.057V544.103M580.465 537.622H567.511M561.038 557.057V544.103M606.801 537.622H593.847M587.374 557.057V544.103M633.137 537.622H620.182M613.71 557.057V544.103M659.472 537.622H646.518M640.045 557.057V544.103M685.808 537.622H672.854M666.381 557.057V544.103M712.144 537.622H699.19M692.717 557.057V544.103M738.48 537.622H725.525M719.053 557.057V544.103M764.815 537.622H751.861M745.388 557.057V544.103M791.151 537.622H778.197M771.724 557.057V544.103M817.487 537.622H804.533M798.06 557.057V544.103M475.549 563.529H462.595M456.123 582.964V570.01M501.458 563.529H488.504M482.031 582.964V570.01M527.793 563.529H514.839M508.367 582.964V570.01M554.129 563.529H541.175M534.702 582.964V570.01M580.465 563.529H567.511M561.038 582.964V570.01M606.801 563.529H593.847M587.374 582.964V570.01M633.137 563.529H620.182M613.71 582.964V570.01M659.472 563.529H646.518M640.045 582.964V570.01M685.808 563.529H672.854M666.381 582.964V570.01M712.144 563.529H699.19M692.717 582.964V570.01M738.48 563.529H725.525M719.053 582.964V570.01M764.815 563.529H751.861M745.388 582.964V570.01M791.151 563.529H778.197M771.724 582.964V570.01M817.487 563.529H804.533M798.06 582.964V570.01M475.549 589.436H462.595M456.123 608.871V595.918M501.458 589.436H488.504M482.031 608.871V595.918M527.793 589.436H514.839M508.367 608.871V595.918M554.129 589.436H541.175M534.702 608.871V595.918M580.465 589.436H567.511M561.038 608.871V595.918M606.801 589.436H593.847M587.374 608.871V595.918M633.137 589.436H620.182M613.71 608.871V595.918M659.472 589.436H646.518M640.045 608.871V595.918M685.808 589.436H672.854M666.381 608.871V595.918M712.144 589.436H699.19M692.717 608.871V595.918M738.48 589.436H725.525M719.053 608.871V595.918M764.815 589.436H751.861M745.388 608.871V595.918M791.151 589.436H778.197M771.724 608.871V595.918M817.487 589.436H804.533M798.06 608.871V595.918M475.549 615.344H462.595M456.123 634.778V621.825M501.458 615.344H488.504M482.031 634.778V621.825M527.793 615.344H514.839M508.367 634.778V621.825M554.129 615.344H541.175M534.702 634.778V621.825M580.465 615.344H567.511M561.038 634.778V621.825M606.801 615.344H593.847M587.374 634.778V621.825M633.137 615.344H620.182M613.71 634.778V621.825M659.472 615.344H646.518M640.045 634.778V621.825M685.808 615.344H672.854M666.381 634.778V621.825M712.144 615.344H699.19M692.717 634.778V621.825M738.48 615.344H725.525M719.053 634.778V621.825M764.815 615.344H751.861M745.388 634.778V621.825M791.151 615.344H778.197M771.724 634.778V621.825M817.487 615.344H804.533M798.06 634.778V621.825M475.549 641.251H462.595M456.123 660.686V647.732M501.458 641.251H488.504M482.031 660.686V647.732M527.793 641.251H514.839M508.367 660.686V647.732M554.129 641.251H541.175M534.702 660.686V647.732M580.465 641.251H567.511M561.038 660.686V647.732M606.801 641.251H593.847M587.374 660.686V647.732M633.137 641.251H620.182M613.71 660.686V647.732M659.472 641.251H646.518M640.045 660.686V647.732M685.808 641.251H672.854M666.381 660.686V647.732M712.144 641.251H699.19M692.717 660.686V647.732M738.48 641.251H725.525M719.053 660.686V647.732M764.815 641.251H751.861M745.388 660.686V647.732M791.151 641.251H778.197M771.724 660.686V647.732M817.487 641.251H804.533M798.06 660.686V647.732M475.549 667.158H462.595M456.123 686.593V673.639M501.458 667.158H488.504M482.031 686.593V673.639M527.793 667.158H514.839M508.367 686.593V673.639M554.129 667.158H541.175M534.702 686.593V673.639M580.465 667.158H567.511M561.038 686.593V673.639M606.801 667.158H593.847M587.374 686.593V673.639M633.137 667.158H620.182M613.71 686.593V673.639M659.472 667.158H646.518M640.045 686.593V673.639M685.808 667.158H672.854M666.381 686.593V673.639M712.144 667.158H699.19M692.717 686.593V673.639M738.48 667.158H725.525M719.053 686.593V673.639M764.815 667.158H751.861M745.388 686.593V673.639M791.151 667.158H778.197M771.724 686.593V673.639M817.487 667.158H804.533M798.06 686.593V673.639M475.549 693.065H462.595M456.123 712.5V699.546M501.458 693.065H488.504M482.031 712.5V699.546M527.793 693.065H514.839M508.367 712.5V699.546M554.129 693.065H541.175M534.702 712.5V699.546M580.465 693.065H567.511M561.038 712.5V699.546M606.801 693.065H593.847M587.374 712.5V699.546M633.137 693.065H620.182M613.71 712.5V699.546M659.472 693.065H646.518M640.045 712.5V699.546M685.808 693.065H672.854M666.381 712.5V699.546M712.144 693.065H699.19M692.717 712.5V699.546M738.48 693.065H725.525M719.053 712.5V699.546M764.815 693.065H751.861M745.388 712.5V699.546M791.151 693.065H778.197M771.724 712.5V699.546M817.487 693.065H804.533M798.06 712.5V699.546M841.847 484.935H828.893M822.42 504.37V491.416M867.755 484.935H854.801M848.328 504.37V491.416M894.091 484.935H881.137M874.664 504.37V491.416M901 504.37V491.416M841.847 511.279H828.893M822.42 530.713V517.76M867.755 511.279H854.801M848.328 530.713V517.76M894.091 511.279H881.137M874.664 530.713V517.76M901 530.713V517.76M841.847 537.622H828.893M822.42 557.057V544.103M867.755 537.622H854.801M848.328 557.057V544.103M894.091 537.622H881.137M874.664 557.057V544.103M901 557.057V544.103M841.847 563.529H828.893M822.42 582.964V570.01M867.755 563.529H854.801M848.328 582.964V570.01M894.091 563.529H881.137M874.664 582.964V570.01M901 582.964V570.01M841.847 589.436H828.893M822.42 608.871V595.918M867.755 589.436H854.801M848.328 608.871V595.918M894.091 589.436H881.137M874.664 608.871V595.918M901 608.871V595.918M841.847 615.344H828.893M822.42 634.778V621.825M867.755 615.344H854.801M848.328 634.778V621.825M894.091 615.344H881.137M874.664 634.778V621.825M901 634.778V621.825M841.847 641.251H828.893M822.42 660.686V647.732M867.755 641.251H854.801M848.328 660.686V647.732M894.091 641.251H881.137M874.664 660.686V647.732M901 660.686V647.732M841.847 667.158H828.893M822.42 686.593V673.639M867.755 667.158H854.801M848.328 686.593V673.639M894.091 667.158H881.137M874.664 686.593V673.639M901 686.593V673.639M841.847 693.065H828.893M822.42 712.5V699.546M867.755 693.065H854.801M848.328 712.5V699.546M894.091 693.065H881.137M874.664 712.5V699.546M901 712.5V699.546M-257.046 484.935H-270M-231.138 484.935H-244.092M-250.564 504.37V491.416M-204.802 484.935H-217.756M-224.229 504.37V491.416M-178.466 484.935H-191.42M-197.893 504.37V491.416M-152.13 484.935H-165.084M-171.557 504.37V491.416M-125.795 484.935H-138.749M-145.221 504.37V491.416M-99.4587 484.935H-112.413M-118.886 504.37V491.416M-73.123 484.935H-86.0771M-92.5499 504.37V491.416M-46.7872 484.935H-59.7414M-66.2141 504.37V491.416M-20.4514 484.935H-33.4056M-39.8783 504.37V491.416M5.88431 484.935H-7.06984M-13.5426 504.37V491.416M32.2201 484.935H19.2659M12.7932 504.37V491.416M58.5559 484.935H45.6017M39.129 504.37V491.416M84.8916 484.935H71.9375M65.4647 504.37V491.416M-257.046 511.279H-270M-231.138 511.279H-244.092M-250.564 530.713V517.76M-204.802 511.279H-217.756M-224.229 530.713V517.76M-178.466 511.279H-191.42M-197.893 530.713V517.76M-152.13 511.279H-165.084M-171.557 530.713V517.76M-125.795 511.279H-138.749M-145.221 530.713V517.76M-99.4587 511.279H-112.413M-118.886 530.713V517.76M-73.123 511.279H-86.0771M-92.5499 530.713V517.76M-46.7872 511.279H-59.7414M-66.2141 530.713V517.76M-20.4514 511.279H-33.4056M-39.8783 530.713V517.76M5.88431 511.279H-7.06984M-13.5426 530.713V517.76M32.2201 511.279H19.2659M12.7932 530.713V517.76M58.5559 511.279H45.6017M39.129 530.713V517.76M84.8916 511.279H71.9375M65.4647 530.713V517.76M-257.046 537.622H-270M-231.138 537.622H-244.092M-250.564 557.057V544.103M-204.802 537.622H-217.756M-224.229 557.057V544.103M-178.466 537.622H-191.42M-197.893 557.057V544.103M-152.13 537.622H-165.084M-171.557 557.057V544.103M-125.795 537.622H-138.749M-145.221 557.057V544.103M-99.4587 537.622H-112.413M-118.886 557.057V544.103M-73.123 537.622H-86.0771M-92.5499 557.057V544.103M-46.7872 537.622H-59.7414M-66.2141 557.057V544.103M-20.4514 537.622H-33.4056M-39.8783 557.057V544.103M5.88431 537.622H-7.06984M-13.5426 557.057V544.103M32.2201 537.622H19.2659M12.7932 557.057V544.103M58.5559 537.622H45.6017M39.129 557.057V544.103M84.8916 537.622H71.9375M65.4647 557.057V544.103M-257.046 563.529H-270M-231.138 563.529H-244.092M-250.564 582.964V570.01M-204.802 563.529H-217.756M-224.229 582.964V570.01M-178.466 563.529H-191.42M-197.893 582.964V570.01M-152.13 563.529H-165.084M-171.557 582.964V570.01M-125.795 563.529H-138.749M-145.221 582.964V570.01M-99.4587 563.529H-112.413M-118.886 582.964V570.01M-73.123 563.529H-86.0771M-92.5499 582.964V570.01M-46.7872 563.529H-59.7414M-66.2141 582.964V570.01M-20.4514 563.529H-33.4056M-39.8783 582.964V570.01M5.88431 563.529H-7.06984M-13.5426 582.964V570.01M32.2201 563.529H19.2659M12.7932 582.964V570.01M58.5559 563.529H45.6017M39.129 582.964V570.01M84.8916 563.529H71.9375M65.4647 582.964V570.01M-257.046 589.436H-270M-231.138 589.436H-244.092M-250.564 608.871V595.918M-204.802 589.436H-217.756M-224.229 608.871V595.918M-178.466 589.436H-191.42M-197.893 608.871V595.918M-152.13 589.436H-165.084M-171.557 608.871V595.918M-125.795 589.436H-138.749M-145.221 608.871V595.918M-99.4587 589.436H-112.413M-118.886 608.871V595.918M-73.123 589.436H-86.0771M-92.5499 608.871V595.918M-46.7872 589.436H-59.7414M-66.2141 608.871V595.918M-20.4514 589.436H-33.4056M-39.8783 608.871V595.918M5.88431 589.436H-7.06984M-13.5426 608.871V595.918M32.2201 589.436H19.2659M12.7932 608.871V595.918M58.5559 589.436H45.6017M39.129 608.871V595.918M84.8916 589.436H71.9375M65.4647 608.871V595.918M-257.046 615.344H-270M-231.138 615.344H-244.092M-250.564 634.778V621.825M-204.802 615.344H-217.756M-224.229 634.778V621.825M-178.466 615.344H-191.42M-197.893 634.778V621.825M-152.13 615.344H-165.084M-171.557 634.778V621.825M-125.795 615.344H-138.749M-145.221 634.778V621.825M-99.4587 615.344H-112.413M-118.886 634.778V621.825M-73.123 615.344H-86.0771M-92.5499 634.778V621.825M-46.7872 615.344H-59.7414M-66.2141 634.778V621.825M-20.4514 615.344H-33.4056M-39.8783 634.778V621.825M5.88431 615.344H-7.06984M-13.5426 634.778V621.825M32.2201 615.344H19.2659M12.7932 634.778V621.825M58.5559 615.344H45.6017M39.129 634.778V621.825M84.8916 615.344H71.9375M65.4647 634.778V621.825M-257.046 641.251H-270M-231.138 641.251H-244.092M-250.564 660.686V647.732M-204.802 641.251H-217.756M-224.229 660.686V647.732M-178.466 641.251H-191.42M-197.893 660.686V647.732M-152.13 641.251H-165.084M-171.557 660.686V647.732M-125.795 641.251H-138.749M-145.221 660.686V647.732M-99.4587 641.251H-112.413M-118.886 660.686V647.732M-73.123 641.251H-86.0771M-92.5499 660.686V647.732M-46.7872 641.251H-59.7414M-66.2141 660.686V647.732M-20.4514 641.251H-33.4056M-39.8783 660.686V647.732M5.88431 641.251H-7.06984M-13.5426 660.686V647.732M32.2201 641.251H19.2659M12.7932 660.686V647.732M58.5559 641.251H45.6017M39.129 660.686V647.732M84.8916 641.251H71.9375M65.4647 660.686V647.732M-257.046 667.158H-270M-231.138 667.158H-244.092M-250.564 686.593V673.639M-204.802 667.158H-217.756M-224.229 686.593V673.639M-178.466 667.158H-191.42M-197.893 686.593V673.639M-152.13 667.158H-165.084M-171.557 686.593V673.639M-125.795 667.158H-138.749M-145.221 686.593V673.639M-99.4587 667.158H-112.413M-118.886 686.593V673.639M-73.123 667.158H-86.0771M-92.5499 686.593V673.639M-46.7872 667.158H-59.7414M-66.2141 686.593V673.639M-20.4514 667.158H-33.4056M-39.8783 686.593V673.639M5.88431 667.158H-7.06984M-13.5426 686.593V673.639M32.2201 667.158H19.2659M12.7932 686.593V673.639M58.5559 667.158H45.6017M39.129 686.593V673.639M84.8916 667.158H71.9375M65.4647 686.593V673.639M-257.046 693.065H-270M-231.138 693.065H-244.092M-250.564 712.5V699.546M-204.802 693.065H-217.756M-224.229 712.5V699.546M-178.466 693.065H-191.42M-197.893 712.5V699.546M-152.13 693.065H-165.084M-171.557 712.5V699.546M-125.795 693.065H-138.749M-145.221 712.5V699.546M-99.4587 693.065H-112.413M-118.886 712.5V699.546M-73.123 693.065H-86.0771M-92.5499 712.5V699.546M-46.7872 693.065H-59.7414M-66.2141 712.5V699.546M-20.4514 693.065H-33.4056M-39.8783 712.5V699.546M5.88431 693.065H-7.06984M-13.5426 712.5V699.546M32.2201 693.065H19.2659M12.7932 712.5V699.546M58.5559 693.065H45.6017M39.129 712.5V699.546M84.8916 693.065H71.9375M65.4647 712.5V699.546" stroke="url(#paint0_radial_4381_2655)" stroke-linecap="round" stroke-dasharray="2 2"/>
<defs>
<radialGradient id="paint0_radial_4381_2655" cx="0" cy="0" r="1" gradientUnits="userSpaceOnUse" gradientTransform="translate(315.5 356.5) rotate(90) scale(356 585.5)">
<stop stop-color="#73B7FE" stop-opacity="0.25"/>
<stop offset="0.225201" stop-color="#7180FF" stop-opacity="0.2"/>
<stop offset="1" stop-color="#F3F3FF" stop-opacity="0"/>
</radialGradient>
</defs>
</svg>
