<svg width="630" height="758" viewBox="0 0 630 758" fill="none" xmlns="http://www.w3.org/2000/svg">
<path opacity="0.6" d="M2064.36 0.173828L2667 1046.17M2048.79 0.173828L2651.43 1046.17M2033.22 0.173828L2635.86 1046.17M2017.65 0.173828L2620.3 1046.17M2002.09 0.173828L2604.73 1046.17M1986.52 0.173828L2589.16 1046.17M1970.95 0.173828L2573.59 1046.17M1955.38 0.173828L2558.03 1046.17M1939.82 0.173828L2542.46 1046.17M1924.25 0.173828L2526.89 1046.17M1908.68 0.173828L2511.32 1046.17M1893.11 0.173828L2495.76 1046.17M1877.55 0.173828L2480.19 1046.17M1861.98 0.173828L2464.62 1046.17M1846.41 0.173828L2449.05 1046.17M1830.84 0.173828L2433.49 1046.17M1815.28 0.173828L2417.92 1046.17M1799.71 0.173828L2402.35 1046.17M1784.14 0.173828L2386.78 1046.17M1768.57 0.173828L2371.22 1046.17M1753 0.173828L2355.65 1046.17M1737.44 0.173828L2340.08 1046.17M1721.87 0.173828L2324.51 1046.17M1706.3 0.173828L2308.94 1046.17M1690.73 0.173828L2293.38 1046.17M1675.17 0.173828L2277.81 1046.17M1659.6 0.173828L2262.24 1046.17M1644.03 0.173828L2246.67 1046.17M1628.46 0.173828L2231.11 1046.17M1612.9 0.173828L2215.54 1046.17M1597.33 0.173828L2199.97 1046.17M1581.76 0.173828L2184.4 1046.17M1566.19 0.173828L2168.84 1046.17M1550.63 0.173828L2153.27 1046.17M1535.06 0.173828L2137.7 1046.17M1519.49 0.173828L2122.13 1046.17M1503.92 0.173828L2106.57 1046.17M1488.36 0.173828L2091 1046.17M1472.79 0.173828L2075.43 1046.17M1457.22 0.173828L2059.86 1046.17M1441.65 0.173828L2044.3 1046.17M1426.08 0.173828L2028.73 1046.17M1410.52 0.173828L2013.16 1046.17M1394.95 0.173828L1997.59 1046.17M1379.38 0.173828L1982.03 1046.17M1363.81 0.173828L1966.46 1046.17M1348.25 0.173828L1950.89 1046.17M1332.68 0.173828L1935.32 1046.17M1317.11 0.173828L1919.75 1046.17M1301.54 0.173828L1904.19 1046.17M1285.98 0.173828L1888.62 1046.17M1270.41 0.173828L1873.05 1046.17M1254.84 0.173828L1857.48 1046.17M1239.27 0.173828L1841.92 1046.17M1223.71 0.173828L1826.35 1046.17M1208.14 0.173828L1810.78 1046.17M1192.57 0.173828L1795.21 1046.17M1177 0.173828L1779.65 1046.17M1161.44 0.173828L1764.08 1046.17M1145.87 0.173828L1748.51 1046.17M1130.3 0.173828L1732.94 1046.17M1114.73 0.173828L1717.38 1046.17M1099.17 0.173828L1701.81 1046.17M1083.6 0.173828L1686.24 1046.17M1068.03 0.173828L1670.67 1046.17M1052.46 0.173828L1655.11 1046.17M1036.89 0.173828L1639.54 1046.17M1021.33 0.173828L1623.97 1046.17M1005.76 0.173828L1608.4 1046.17M990.192 0.173828L1592.83 1046.17M974.624 0.173828L1577.27 1046.17M959.057 0.173828L1561.7 1046.17M943.489 0.173828L1546.13 1046.17M927.921 0.173828L1530.56 1046.17M912.354 0.173828L1515 1046.17M896.786 0.173828L1499.43 1046.17M881.219 0.173828L1483.86 1046.17M865.651 0.173828L1468.29 1046.17M850.083 0.173828L1452.73 1046.17M834.516 0.173828L1437.16 1046.17M818.948 0.173828L1421.59 1046.17M803.381 0.173828L1406.02 1046.17M787.813 0.173828L1390.46 1046.17M772.245 0.173828L1374.89 1046.17M756.678 0.173828L1359.32 1046.17M741.11 0.173828L1343.75 1046.17M725.542 0.173828L1328.19 1046.17M709.975 0.173828L1312.62 1046.17M694.407 0.173828L1297.05 1046.17M678.84 0.173828L1281.48 1046.17M663.272 0.173828L1265.92 1046.17M647.705 0.173828L1250.35 1046.17M632.137 0.173828L1234.78 1046.17M616.569 0.173828L1219.21 1046.17M601.002 0.173828L1203.64 1046.17M585.434 0.173828L1188.08 1046.17M569.866 0.173828L1172.51 1046.17M554.299 0.173828L1156.94 1046.17M538.731 0.173828L1141.37 1046.17M523.164 0.173828L1125.81 1046.17M507.596 0.173828L1110.24 1046.17M492.028 0.173828L1094.67 1046.17M476.461 0.173828L1079.1 1046.17M460.893 0.173828L1063.54 1046.17M445.325 0.173828L1047.97 1046.17M429.758 0.173828L1032.4 1046.17M414.19 0.173828L1016.83 1046.17M398.623 0.173828L1001.27 1046.17M383.055 0.173828L985.698 1046.17M367.488 0.173828L970.13 1046.17M351.92 0.173828L954.563 1046.17M336.352 0.173828L938.995 1046.17M320.785 0.173828L923.427 1046.17M305.217 0.173828L907.86 1046.17M289.649 0.173828L892.292 1046.17M274.082 0.173828L876.725 1046.17M258.514 0.173828L861.157 1046.17M242.947 0.173828L845.589 1046.17M227.379 0.173828L830.022 1046.17M211.811 0.173828L814.454 1046.17M196.244 0.173828L798.887 1046.17M180.676 0.173828L783.319 1046.17M165.108 0.173828L767.751 1046.17M149.541 0.173828L752.184 1046.17M133.973 0.173828L736.616 1046.17M118.406 0.173828L721.049 1046.17M102.838 0.173828L705.481 1046.17M87.2705 0.173828L689.913 1046.17M71.7029 0.173828L674.346 1046.17M56.1353 0.173828L658.778 1046.17M40.5676 0.173828L643.21 1046.17M25 0.173828L627.643 1046.17M9.35706 0.173828L612 1046.17M-6.21045 0.173828L596.432 1046.17M-21.7781 0.173828L580.865 1046.17M-37.3457 0.173828L565.297 1046.17M-52.9133 0.173828L549.729 1046.17M-68.481 0.173828L534.162 1046.17M-84.0486 0.173828L518.594 1046.17M-99.6162 0.173828L503.027 1046.17M-115.184 0.173828L487.459 1046.17M-130.751 0.173828L471.892 1046.17M-146.319 0.173828L456.324 1046.17M-161.887 0.173828L440.756 1046.17M-177.454 0.173828L425.189 1046.17M-193.022 0.173828L409.621 1046.17M-208.589 0.173828L394.053 1046.17M-224.157 0.173828L378.486 1046.17M-239.725 0.173828L362.918 1046.17M-255.292 0.173828L347.351 1046.17M-270.86 0.173828L331.783 1046.17M-286.427 0.173828L316.215 1046.17M-301.995 0.173828L300.648 1046.17M-317.563 0.173828L285.08 1046.17M-333.13 0.173828L269.512 1046.17M-348.698 0.173828L253.945 1046.17M-364.266 0.173828L238.377 1046.17M-379.833 0.173828L222.81 1046.17M-395.401 0.173828L207.242 1046.17M-410.969 0.173828L191.675 1046.17M-426.536 0.173828L176.107 1046.17M-442.104 0.173828L160.539 1046.17M-457.671 0.173828L144.972 1046.17M-473.239 0.173828L129.404 1046.17M-488.807 0.173828L113.836 1046.17M-504.374 0.173828L98.2688 1046.17M-519.942 0.173828L82.7012 1046.17M-535.509 0.173828L67.1335 1046.17M-551.077 0.173828L51.5659 1046.17M-566.645 0.173828L35.9983 1046.17M-582.212 0.173828L20.4307 1046.17M-597.78 0.173828L4.86316 1046.17M-613.347 0.173828L-10.7045 1046.17M-628.915 0.173828L-26.2721 1046.17M-644.483 0.173828L-41.8396 1046.17M-660.05 0.173828L-57.4072 1046.17M-675.618 0.173828L-72.9749 1046.17M-691.185 0.173828L-88.5425 1046.17M-706.753 0.173828L-104.11 1046.17M-722.321 0.173828L-119.678 1046.17M-737.888 0.173828L-135.245 1046.17M-753.456 0.173828L-150.813 1046.17M-769.023 0.173828L-166.381 1046.17M-784.591 0.173828L-181.948 1046.17M-800.159 0.173828L-197.516 1046.17M-815.726 0.173828L-213.083 1046.17M-831.294 0.173828L-228.651 1046.17M-846.862 0.173828L-244.219 1046.17M-862.429 0.173828L-259.786 1046.17M-877.997 0.173828L-275.354 1046.17M-893.564 0.173828L-290.921 1046.17M-909.132 0.173828L-306.489 1046.17M-924.7 0.173828L-322.057 1046.17M-940.267 0.173828L-337.624 1046.17M-955.835 0.173828L-353.192 1046.17M-971.402 0.173828L-368.76 1046.17M-986.97 0.173828L-384.327 1046.17M-1002.54 0.173828L-399.895 1046.17M-1018.11 0.173828L-415.462 1046.17M-1033.67 0.173828L-431.03 1046.17M-1049.24 0.173828L-446.598 1046.17M-1064.81 0.173828L-462.165 1046.17M-1080.38 0.173828L-477.733 1046.17M-1095.94 0.173828L-493.3 1046.17M-1111.51 0.173828L-508.868 1046.17M-1127.08 0.173828L-524.436 1046.17M-1142.65 0.173828L-540.003 1046.17M-1158.21 0.173828L-555.571 1046.17M-1173.78 0.173828L-571.138 1046.17M-1189.35 0.173828L-586.706 1046.17M-1204.92 0.173828L-602.274 1046.17M-1220.48 0.173828L-617.841 1046.17M-1236.05 0.173828L-633.409 1046.17M-1251.62 0.173828L-648.977 1046.17M-1267.19 0.173828L-664.544 1046.17M-1282.75 0.173828L-680.112 1046.17M-1298.32 0.173828L-695.679 1046.17M-1313.89 0.173828L-711.247 1046.17M-1329.46 0.173828L-726.815 1046.17M-1345.03 0.173828L-742.382 1046.17M-1360.59 0.173828L-757.95 1046.17M-1376.16 0.173828L-773.517 1046.17M-1391.73 0.173828L-789.085 1046.17M-1407.3 0.173828L-804.653 1046.17M-1422.86 0.173828L-820.22 1046.17M-1438.43 0.173828L-835.788 1046.17M-1454 0.173828L-851.355 1046.17M-1469.57 0.173828L-866.923 1046.17M-1485.13 0.173828L-882.491 1046.17M-1500.7 0.173828L-898.058 1046.17M-1516.27 0.173828L-913.626 1046.17M-1531.84 0.173828L-929.193 1046.17M-1547.4 0.173828L-944.761 1046.17M-1562.97 0.173828L-960.329 1046.17M-1578.54 0.173828L-975.896 1046.17M-1594.11 0.173828L-991.464 1046.17M-1609.67 0.173828L-1007.03 1046.17M-1625.24 0.173828L-1022.6 1046.17M-1640.81 0.173828L-1038.17 1046.17M-1656.38 0.173828L-1053.73 1046.17M-1671.95 0.173828L-1069.3 1046.17M-1687.51 0.173828L-1084.87 1046.17M-1703.08 0.173828L-1100.44 1046.17M-1718.65 0.173828L-1116 1046.17M-1734.22 0.173828L-1131.57 1046.17M-1749.78 0.173828L-1147.14 1046.17M-1765.35 0.173828L-1162.71 1046.17M-1780.92 0.173828L-1178.28 1046.17M-1796.49 0.173828L-1193.84 1046.17M-1812.05 0.173828L-1209.41 1046.17M-1827.62 0.173828L-1224.98 1046.17M-1843.19 0.173828L-1240.55 1046.17M-1858.76 0.173828L-1256.11 1046.17M-1874.32 0.173828L-1271.68 1046.17M-1889.89 0.173828L-1287.25 1046.17M-1905.46 0.173828L-1302.82 1046.17M-1921.03 0.173828L-1318.38 1046.17M-1936.59 0.173828L-1333.95 1046.17M-1952.16 0.173828L-1349.52 1046.17M-1967.73 0.173828L-1365.09 1046.17M-1983.3 0.173828L-1380.65 1046.17M-1998.86 0.173828L-1396.22 1046.17M-2014.43 0.173828L-1411.79 1046.17M-2030 0.173828L-1427.36 1046.17M2056.36 0.173828L2659 1046.17M2040.79 0.173828L2643.43 1046.17M2025.22 0.173828L2627.86 1046.17M2009.65 0.173828L2612.3 1046.17M1994.09 0.173828L2596.73 1046.17M1978.52 0.173828L2581.16 1046.17M1962.95 0.173828L2565.59 1046.17M1947.38 0.173828L2550.03 1046.17M1931.82 0.173828L2534.46 1046.17M1916.25 0.173828L2518.89 1046.17M1900.68 0.173828L2503.32 1046.17M1885.11 0.173828L2487.76 1046.17M1869.55 0.173828L2472.19 1046.17M1853.98 0.173828L2456.62 1046.17M1838.41 0.173828L2441.05 1046.17M1822.84 0.173828L2425.49 1046.17M1807.28 0.173828L2409.92 1046.17M1791.71 0.173828L2394.35 1046.17M1776.14 0.173828L2378.78 1046.17M1760.57 0.173828L2363.22 1046.17M1745 0.173828L2347.65 1046.17M1729.44 0.173828L2332.08 1046.17M1713.87 0.173828L2316.51 1046.17M1698.3 0.173828L2300.94 1046.17M1682.73 0.173828L2285.38 1046.17M1667.17 0.173828L2269.81 1046.17M1651.6 0.173828L2254.24 1046.17M1636.03 0.173828L2238.67 1046.17M1620.46 0.173828L2223.11 1046.17M1604.9 0.173828L2207.54 1046.17M1589.33 0.173828L2191.97 1046.17M1573.76 0.173828L2176.4 1046.17M1558.19 0.173828L2160.84 1046.17M1542.63 0.173828L2145.27 1046.17M1527.06 0.173828L2129.7 1046.17M1511.49 0.173828L2114.13 1046.17M1495.92 0.173828L2098.57 1046.17M1480.36 0.173828L2083 1046.17M1464.79 0.173828L2067.43 1046.17M1449.22 0.173828L2051.86 1046.17M1433.65 0.173828L2036.3 1046.17M1418.08 0.173828L2020.73 1046.17M1402.52 0.173828L2005.16 1046.17M1386.95 0.173828L1989.59 1046.17M1371.38 0.173828L1974.03 1046.17M1355.81 0.173828L1958.46 1046.17M1340.25 0.173828L1942.89 1046.17M1324.68 0.173828L1927.32 1046.17M1309.11 0.173828L1911.75 1046.17M1293.54 0.173828L1896.19 1046.17M1277.98 0.173828L1880.62 1046.17M1262.41 0.173828L1865.05 1046.17M1246.84 0.173828L1849.48 1046.17M1231.27 0.173828L1833.92 1046.17M1215.71 0.173828L1818.35 1046.17M1200.14 0.173828L1802.78 1046.17M1184.57 0.173828L1787.21 1046.17M1169 0.173828L1771.65 1046.17M1153.44 0.173828L1756.08 1046.17M1137.87 0.173828L1740.51 1046.17M1122.3 0.173828L1724.94 1046.17M1106.73 0.173828L1709.38 1046.17M1091.17 0.173828L1693.81 1046.17M1075.6 0.173828L1678.24 1046.17M1060.03 0.173828L1662.67 1046.17M1044.46 0.173828L1647.11 1046.17M1028.89 0.173828L1631.54 1046.17M1013.33 0.173828L1615.97 1046.17M997.76 0.173828L1600.4 1046.17M982.192 0.173828L1584.83 1046.17M966.624 0.173828L1569.27 1046.17M951.057 0.173828L1553.7 1046.17M935.489 0.173828L1538.13 1046.17M919.921 0.173828L1522.56 1046.17M904.354 0.173828L1507 1046.17M888.786 0.173828L1491.43 1046.17M873.219 0.173828L1475.86 1046.17M857.651 0.173828L1460.29 1046.17M842.083 0.173828L1444.73 1046.17M826.516 0.173828L1429.16 1046.17M810.948 0.173828L1413.59 1046.17M795.381 0.173828L1398.02 1046.17M779.813 0.173828L1382.46 1046.17M764.245 0.173828L1366.89 1046.17M748.678 0.173828L1351.32 1046.17M733.11 0.173828L1335.75 1046.17M717.542 0.173828L1320.19 1046.17M701.975 0.173828L1304.62 1046.17M686.407 0.173828L1289.05 1046.17M670.84 0.173828L1273.48 1046.17M655.272 0.173828L1257.92 1046.17M639.705 0.173828L1242.35 1046.17M624.137 0.173828L1226.78 1046.17M608.569 0.173828L1211.21 1046.17M593.002 0.173828L1195.64 1046.17M577.434 0.173828L1180.08 1046.17M561.866 0.173828L1164.51 1046.17M546.299 0.173828L1148.94 1046.17M530.731 0.173828L1133.37 1046.17M515.164 0.173828L1117.81 1046.17M499.596 0.173828L1102.24 1046.17M484.028 0.173828L1086.67 1046.17M468.461 0.173828L1071.1 1046.17M452.893 0.173828L1055.54 1046.17M437.325 0.173828L1039.97 1046.17M421.758 0.173828L1024.4 1046.17M406.19 0.173828L1008.83 1046.17M390.623 0.173828L993.266 1046.17M375.055 0.173828L977.698 1046.17M359.488 0.173828L962.13 1046.17M343.92 0.173828L946.563 1046.17M328.352 0.173828L930.995 1046.17M312.785 0.173828L915.427 1046.17M297.217 0.173828L899.86 1046.17M281.649 0.173828L884.292 1046.17M266.082 0.173828L868.725 1046.17M250.514 0.173828L853.157 1046.17M234.947 0.173828L837.589 1046.17M219.379 0.173828L822.022 1046.17M203.811 0.173828L806.454 1046.17M188.244 0.173828L790.887 1046.17M172.676 0.173828L775.319 1046.17M157.108 0.173828L759.751 1046.17M141.541 0.173828L744.184 1046.17M125.973 0.173828L728.616 1046.17M110.406 0.173828L713.049 1046.17M94.8381 0.173828L697.481 1046.17M79.2705 0.173828L681.913 1046.17M63.7029 0.173828L666.346 1046.17M48.1353 0.173828L650.778 1046.17M32.5676 0.173828L635.21 1046.17M17 0.173828L619.643 1046.17M1.35706 0.173828L604 1046.17M-14.2104 0.173828L588.432 1046.17M-29.7781 0.173828L572.865 1046.17M-45.3457 0.173828L557.297 1046.17M-60.9133 0.173828L541.729 1046.17M-76.481 0.173828L526.162 1046.17M-92.0486 0.173828L510.594 1046.17M-107.616 0.173828L495.027 1046.17M-123.184 0.173828L479.459 1046.17M-138.751 0.173828L463.892 1046.17M-154.319 0.173828L448.324 1046.17M-169.887 0.173828L432.756 1046.17M-185.454 0.173828L417.189 1046.17M-201.022 0.173828L401.621 1046.17M-216.589 0.173828L386.053 1046.17M-232.157 0.173828L370.486 1046.17M-247.725 0.173828L354.918 1046.17M-263.292 0.173828L339.351 1046.17M-278.86 0.173828L323.783 1046.17M-294.427 0.173828L308.215 1046.17M-309.995 0.173828L292.648 1046.17M-325.563 0.173828L277.08 1046.17M-341.13 0.173828L261.512 1046.17M-356.698 0.173828L245.945 1046.17M-372.266 0.173828L230.377 1046.17M-387.833 0.173828L214.81 1046.17M-403.401 0.173828L199.242 1046.17M-418.969 0.173828L183.675 1046.17M-434.536 0.173828L168.107 1046.17M-450.104 0.173828L152.539 1046.17M-465.671 0.173828L136.972 1046.17M-481.239 0.173828L121.404 1046.17M-496.807 0.173828L105.836 1046.17M-512.374 0.173828L90.2688 1046.17M-527.942 0.173828L74.7012 1046.17M-543.509 0.173828L59.1335 1046.17M-559.077 0.173828L43.5659 1046.17M-574.645 0.173828L27.9983 1046.17M-590.212 0.173828L12.4307 1046.17M-605.78 0.173828L-3.13684 1046.17M-621.347 0.173828L-18.7045 1046.17M-636.915 0.173828L-34.2721 1046.17M-652.483 0.173828L-49.8396 1046.17M-668.05 0.173828L-65.4072 1046.17M-683.618 0.173828L-80.9749 1046.17M-699.185 0.173828L-96.5425 1046.17M-714.753 0.173828L-112.11 1046.17M-730.321 0.173828L-127.678 1046.17M-745.888 0.173828L-143.245 1046.17M-761.456 0.173828L-158.813 1046.17M-777.023 0.173828L-174.381 1046.17M-792.591 0.173828L-189.948 1046.17M-808.159 0.173828L-205.516 1046.17M-823.726 0.173828L-221.083 1046.17M-839.294 0.173828L-236.651 1046.17M-854.862 0.173828L-252.219 1046.17M-870.429 0.173828L-267.786 1046.17M-885.997 0.173828L-283.354 1046.17M-901.564 0.173828L-298.921 1046.17M-917.132 0.173828L-314.489 1046.17M-932.7 0.173828L-330.057 1046.17M-948.267 0.173828L-345.624 1046.17M-963.835 0.173828L-361.192 1046.17M-979.402 0.173828L-376.76 1046.17M-994.97 0.173828L-392.327 1046.17M-1010.54 0.173828L-407.895 1046.17M-1026.11 0.173828L-423.462 1046.17M-1041.67 0.173828L-439.03 1046.17M-1057.24 0.173828L-454.598 1046.17M-1072.81 0.173828L-470.165 1046.17M-1088.38 0.173828L-485.733 1046.17M-1103.94 0.173828L-501.3 1046.17M-1119.51 0.173828L-516.868 1046.17M-1135.08 0.173828L-532.436 1046.17M-1150.65 0.173828L-548.003 1046.17M-1166.21 0.173828L-563.571 1046.17M-1181.78 0.173828L-579.138 1046.17M-1197.35 0.173828L-594.706 1046.17M-1212.92 0.173828L-610.274 1046.17M-1228.48 0.173828L-625.841 1046.17M-1244.05 0.173828L-641.409 1046.17M-1259.62 0.173828L-656.977 1046.17M-1275.19 0.173828L-672.544 1046.17M-1290.75 0.173828L-688.112 1046.17M-1306.32 0.173828L-703.679 1046.17M-1321.89 0.173828L-719.247 1046.17M-1337.46 0.173828L-734.815 1046.17M-1353.03 0.173828L-750.382 1046.17M-1368.59 0.173828L-765.95 1046.17M-1384.16 0.173828L-781.517 1046.17M-1399.73 0.173828L-797.085 1046.17M-1415.3 0.173828L-812.653 1046.17M-1430.86 0.173828L-828.22 1046.17M-1446.43 0.173828L-843.788 1046.17M-1462 0.173828L-859.355 1046.17M-1477.57 0.173828L-874.923 1046.17M-1493.13 0.173828L-890.491 1046.17M-1508.7 0.173828L-906.058 1046.17M-1524.27 0.173828L-921.626 1046.17M-1539.84 0.173828L-937.193 1046.17M-1555.4 0.173828L-952.761 1046.17M-1570.97 0.173828L-968.329 1046.17M-1586.54 0.173828L-983.896 1046.17M-1602.11 0.173828L-999.464 1046.17M-1617.67 0.173828L-1015.03 1046.17M-1633.24 0.173828L-1030.6 1046.17M-1648.81 0.173828L-1046.17 1046.17M-1664.38 0.173828L-1061.73 1046.17M-1679.95 0.173828L-1077.3 1046.17M-1695.51 0.173828L-1092.87 1046.17M-1711.08 0.173828L-1108.44 1046.17M-1726.65 0.173828L-1124 1046.17M-1742.22 0.173828L-1139.57 1046.17M-1757.78 0.173828L-1155.14 1046.17M-1773.35 0.173828L-1170.71 1046.17M-1788.92 0.173828L-1186.28 1046.17M-1804.49 0.173828L-1201.84 1046.17M-1820.05 0.173828L-1217.41 1046.17M-1835.62 0.173828L-1232.98 1046.17M-1851.19 0.173828L-1248.55 1046.17M-1866.76 0.173828L-1264.11 1046.17M-1882.32 0.173828L-1279.68 1046.17M-1897.89 0.173828L-1295.25 1046.17M-1913.46 0.173828L-1310.82 1046.17M-1929.03 0.173828L-1326.38 1046.17M-1944.59 0.173828L-1341.95 1046.17M-1960.16 0.173828L-1357.52 1046.17M-1975.73 0.173828L-1373.09 1046.17M-1991.3 0.173828L-1388.65 1046.17M-2006.86 0.173828L-1404.22 1046.17M-2022.43 0.173828L-1419.79 1046.17M-2038 0.173828L-1435.36 1046.17" stroke="white" stroke-opacity="0.05" stroke-linecap="round"/>
</svg>
