<svg width="38" height="39" viewBox="0 0 38 39" fill="none" xmlns="http://www.w3.org/2000/svg">
<g clip-path="url(#clip0_2095_1121)">
<rect x="0.136719" y="0.139648" width="37.0745" height="37.9026" rx="10" fill="url(#paint0_linear_2095_1121)"/>
<path d="M25.4142 16.3328C25.3551 16.3328 25.2991 16.3436 25.2483 16.3643L25.1736 16.4019L19.5617 19.3126L19.4345 19.3779C19.4345 19.3779 19.4328 19.3787 19.4328 19.3795C19.1853 19.5322 19.0225 19.7888 19.0225 20.0807V26.1631C19.0225 26.372 19.2074 26.5409 19.4378 26.5409C19.5066 26.541 19.5745 26.5253 19.6363 26.495C19.6414 26.4919 19.6482 26.4888 19.6533 26.4858L25.3718 23.4521L25.3803 23.4475C25.65 23.3001 25.8298 23.0305 25.8298 22.7241V16.7091C25.8298 16.501 25.6432 16.3328 25.4142 16.3328ZM24.9878 14.7107L19.0413 12.0359C19.0413 12.0359 18.6924 11.8792 18.4987 11.8792C18.3051 11.8792 17.9579 12.0359 17.9579 12.0359L12.0062 14.7107C12.0062 14.7107 11.7448 14.8185 11.7448 15.021C11.7448 15.2357 12.0164 15.3973 12.0164 15.3973L17.9918 18.5513L18.0868 18.5997C18.2106 18.6549 18.3511 18.6864 18.4987 18.6864C18.648 18.6864 18.7905 18.6549 18.9158 18.5981L18.9989 18.5551L24.9845 15.3958C24.9845 15.3958 25.2302 15.2637 25.2302 15.0209C25.2302 14.8082 24.9878 14.7107 24.9878 14.7107ZM17.565 19.3795L17.4344 19.3126L11.8239 16.402L11.7492 16.3643C11.7003 16.3436 11.6426 16.3328 11.5833 16.3328C11.3543 16.3328 11.168 16.501 11.168 16.7091V22.7241C11.168 23.0313 11.3475 23.3002 11.6172 23.4475L11.624 23.4521L17.3428 26.4858C17.4056 26.5211 17.4802 26.541 17.56 26.541C17.7887 26.541 17.9753 26.372 17.9753 26.1632V20.0807C17.9752 19.7888 17.8124 19.5323 17.565 19.3795Z" fill="white"/>
<g clip-path="url(#clip1_2095_1121)">
<path d="M159.526 -79.6475L272.537 124.72M156.516 -79.7001L269.526 124.667M153.505 -79.7526L266.516 124.614M150.495 -79.8052L263.505 124.562M147.484 -79.8577L260.494 124.509M144.474 -79.9103L257.484 124.457M141.463 -79.9628L254.473 124.404M138.453 -80.0154L251.463 124.352M135.442 -80.0679L248.452 124.299M132.432 -80.1205L245.442 124.247M129.421 -80.173L242.431 124.194M126.411 -80.2256L239.421 124.141M123.4 -80.2781L236.41 124.089M120.39 -80.3307L233.4 124.036M117.379 -80.3832L230.389 123.984M114.368 -80.4358L227.379 123.931M111.358 -80.4883L224.368 123.879M108.347 -80.5409L221.358 123.826M105.337 -80.5934L218.347 123.774M102.326 -80.646L215.336 123.721M99.3158 -80.6985L212.326 123.669M96.3052 -80.7511L209.315 123.616M93.2947 -80.8036L206.305 123.563M90.2841 -80.8562L203.294 123.511M87.2736 -80.9087L200.284 123.458M84.2631 -80.9613L197.273 123.406M81.2525 -81.0138L194.263 123.353M78.242 -81.0664L191.252 123.301M75.2315 -81.1189L188.242 123.248M72.2209 -81.1715L185.231 123.196M69.2104 -81.224L182.221 123.143M66.1999 -81.2765L179.21 123.09M63.1893 -81.3291L176.199 123.038M60.1788 -81.3816L173.189 122.985M57.1682 -81.4342L170.178 122.933M54.1577 -81.4867L167.168 122.88M51.1472 -81.5393L164.157 122.828M48.1366 -81.5918L161.147 122.775M45.1261 -81.6444L158.136 122.723M42.1156 -81.6969L155.126 122.67M39.105 -81.7495L152.115 122.618M36.0945 -81.802L149.105 122.565M33.0839 -81.8546L146.094 122.512M30.0734 -81.9071L143.084 122.46M27.0629 -81.9597L140.073 122.407M24.0523 -82.0122L137.062 122.355M21.0418 -82.0648L134.052 122.302M18.0313 -82.1173L131.041 122.25M15.0207 -82.1699L128.031 122.197M12.0102 -82.2224L125.02 122.145M8.99965 -82.275L122.01 122.092M5.98912 -82.3275L118.999 122.04M2.97858 -82.3801L115.989 121.987M-0.0319565 -82.4326L112.978 121.934M-3.04249 -82.4852L109.968 121.882M-6.05303 -82.5377L106.957 121.829M-9.06357 -82.5903L103.947 121.777M-12.0741 -82.6428L100.936 121.724M-15.0846 -82.6954L97.9255 121.672M-18.0952 -82.7479L94.915 121.619M-21.1057 -82.8005L91.9044 121.567M-24.1162 -82.853L88.8939 121.514M-27.1268 -82.9056L85.8834 121.461M-30.1373 -82.9581L82.8728 121.409M-33.1479 -83.0107L79.8623 121.356M-36.1584 -83.0632L76.8517 121.304M-39.1689 -83.1158L73.8412 121.251M-42.1795 -83.1683L70.8307 121.199M-45.19 -83.2209L67.8201 121.146M-48.2005 -83.2734L64.8096 121.094M-51.2111 -83.326L61.7991 121.041M-54.2216 -83.3785L58.7885 120.989M-57.2322 -83.4311L55.778 120.936M-60.2427 -83.4836L52.7675 120.883M-63.2532 -83.5362L49.7569 120.831M-66.2638 -83.5887L46.7464 120.778M-69.2743 -83.6413L43.7358 120.726M-72.2848 -83.6938L40.7253 120.673M-75.2954 -83.7464L37.7148 120.621M-78.3059 -83.7989L34.7042 120.568M-81.3164 -83.8515L31.6937 120.516M-84.327 -83.904L28.6832 120.463M-87.3375 -83.9566L25.6726 120.41M-90.3481 -84.0091L22.6621 120.358M-93.3586 -84.0617L19.6515 120.305M-96.3691 -84.1142L16.641 120.253M-99.3797 -84.1668L13.6305 120.2M-102.39 -84.2193L10.6199 120.148M-105.401 -84.2718L7.6094 120.095M-108.411 -84.3244L4.59886 120.043M-111.422 -84.3769L1.58833 119.99M-114.432 -84.4295L-1.42221 119.938M-117.443 -84.482L-4.43275 119.885M-120.453 -84.5346L-7.44328 119.832M-123.464 -84.5871L-10.4538 119.78M-126.474 -84.6397L-13.4644 119.727M-129.485 -84.6922L-16.4749 119.675M-132.496 -84.7448L-19.4854 119.622M-135.506 -84.7973L-22.496 119.57M-138.517 -84.8499L-25.5065 119.517M-141.527 -84.9024L-28.517 119.465M-144.538 -84.955L-31.5276 119.412M-147.548 -85.0075L-34.5381 119.36M-150.559 -85.0601L-37.5486 119.307M-153.569 -85.1126L-40.5592 119.254M-156.58 -85.1652L-43.5697 119.202M-159.59 -85.2177L-46.5803 119.149M-162.601 -85.2703L-49.5908 119.097M-165.611 -85.3228L-52.6013 119.044M-168.622 -85.3754L-55.6119 118.992M-171.633 -85.4279L-58.6224 118.939M-174.643 -85.4805L-61.6329 118.887M-177.654 -85.533L-64.6435 118.834M-180.664 -85.5856L-67.654 118.781M-183.675 -85.6381L-70.6646 118.729M-186.685 -85.6907L-73.6751 118.676M-189.696 -85.7432L-76.6856 118.624M-192.706 -85.7958L-79.6962 118.571M-195.717 -85.8483L-82.7067 118.519M-198.727 -85.9009L-85.7172 118.466M-201.738 -85.9534L-88.7278 118.414M-204.748 -86.006L-91.7383 118.361M-207.759 -86.0585L-94.7488 118.309M-210.77 -86.1111L-97.7594 118.256M-213.78 -86.1636L-100.77 118.203M-216.791 -86.2162L-103.78 118.151M-219.801 -86.2687L-106.791 118.098M-222.812 -86.3213L-109.802 118.046M-225.822 -86.3738L-112.812 117.993M-228.833 -86.4264L-115.823 117.941M-231.843 -86.4789L-118.833 117.888M-234.854 -86.5315L-121.844 117.836" stroke="white" stroke-opacity="0.2" stroke-width="0.636364" stroke-linecap="round"/>
<path d="M158.253 -79.6697L271.263 124.697M155.243 -79.7223L268.253 124.645M152.232 -79.7748L265.242 124.592M149.221 -79.8274L262.232 124.54M146.211 -79.8799L259.221 124.487M143.2 -79.9325L256.211 124.435M140.19 -79.985L253.2 124.382M137.179 -80.0376L250.189 124.329M134.169 -80.0901L247.179 124.277M131.158 -80.1427L244.168 124.224M128.148 -80.1952L241.158 124.172M125.137 -80.2478L238.147 124.119M122.127 -80.3003L235.137 124.067M119.116 -80.3529L232.126 124.014M116.106 -80.4054L229.116 123.962M113.095 -80.458L226.105 123.909M110.084 -80.5105L223.095 123.857M107.074 -80.5631L220.084 123.804M104.063 -80.6156L217.074 123.751M101.053 -80.6682L214.063 123.699M98.0423 -80.7207L211.052 123.646M95.0318 -80.7733L208.042 123.594M92.0212 -80.8258L205.031 123.541M89.0107 -80.8784L202.021 123.489M86.0002 -80.9309L199.01 123.436M82.9896 -80.9835L196 123.384M79.9791 -81.036L192.989 123.331M76.9686 -81.0886L189.979 123.278M73.958 -81.1411L186.968 123.226M70.9475 -81.1937L183.958 123.173M67.9369 -81.2462L180.947 123.121M64.9264 -81.2988L177.937 123.068M61.9159 -81.3513L174.926 123.016M58.9053 -81.4039L171.915 122.963M55.8948 -81.4564L168.905 122.911M52.8843 -81.509L165.894 122.858M49.8737 -81.5615L162.884 122.806M46.8632 -81.6141L159.873 122.753M43.8527 -81.6666L156.863 122.7M40.8421 -81.7192L153.852 122.648M37.8316 -81.7717L150.842 122.595M34.821 -81.8243L147.831 122.543M31.8105 -81.8768L144.821 122.49M28.8 -81.9294L141.81 122.438M25.7894 -81.9819L138.8 122.385M22.7789 -82.0345L135.789 122.333M19.7684 -82.087L132.779 122.28M16.7578 -82.1396L129.768 122.227M13.7473 -82.1921L126.757 122.175M10.7368 -82.2447L123.747 122.122M7.72622 -82.2972L120.736 122.07M4.71568 -82.3497L117.726 122.017M1.70514 -82.4023L114.715 121.965M-1.30539 -82.4548L111.705 121.912M-4.31593 -82.5074L108.694 121.86M-7.32647 -82.5599L105.684 121.807M-10.337 -82.6125L102.673 121.755M-13.3475 -82.665L99.6626 121.702M-16.3581 -82.7176L96.6521 121.649M-19.3686 -82.7701L93.6415 121.597M-22.3792 -82.8227L90.631 121.544M-25.3897 -82.8752L87.6205 121.492M-28.4002 -82.9278L84.6099 121.439M-31.4108 -82.9803L81.5994 121.387M-34.4213 -83.0329L78.5888 121.334M-37.4318 -83.0854L75.5783 121.282M-40.4424 -83.138L72.5678 121.229M-43.4529 -83.1905L69.5572 121.177M-46.4634 -83.2431L66.5467 121.124M-49.474 -83.2956L63.5362 121.071M-52.4845 -83.3482L60.5256 121.019M-55.4951 -83.4007L57.5151 120.966M-58.5056 -83.4533L54.5045 120.914M-61.5161 -83.5058L51.494 120.861M-64.5267 -83.5584L48.4835 120.809M-67.5372 -83.6109L45.4729 120.756M-70.5477 -83.6635L42.4624 120.704M-73.5583 -83.716L39.4519 120.651M-76.5688 -83.7686L36.4413 120.598M-79.5793 -83.8211L33.4308 120.546M-82.5899 -83.8737L30.4203 120.493M-85.6004 -83.9262L27.4097 120.441M-88.611 -83.9788L24.3992 120.388M-91.6215 -84.0313L21.3886 120.336M-94.632 -84.0839L18.3781 120.283M-97.6426 -84.1364L15.3676 120.231M-100.653 -84.189L12.357 120.178M-103.664 -84.2415L9.3465 120.126M-106.674 -84.2941L6.33596 120.073M-109.685 -84.3466L3.32543 120.02M-112.695 -84.3992L0.31489 119.968M-115.706 -84.4517L-2.69565 119.915M-118.716 -84.5043L-5.70618 119.863M-121.727 -84.5568L-8.71672 119.81M-124.737 -84.6094L-11.7273 119.758M-127.748 -84.6619L-14.7378 119.705M-130.758 -84.7145L-17.7483 119.653M-133.769 -84.767L-20.7589 119.6M-136.78 -84.8196L-23.7694 119.547M-139.79 -84.8721L-26.7799 119.495M-142.801 -84.9247L-29.7905 119.442M-145.811 -84.9772L-32.801 119.39M-148.822 -85.0298L-35.8115 119.337M-151.832 -85.0823L-38.8221 119.285M-154.843 -85.1349L-41.8326 119.232M-157.853 -85.1874L-44.8432 119.18M-160.864 -85.24L-47.8537 119.127M-163.874 -85.2925L-50.8642 119.075M-166.885 -85.345L-53.8748 119.022M-169.895 -85.3976L-56.8853 118.969M-172.906 -85.4501L-59.8958 118.917M-175.917 -85.5027L-62.9064 118.864M-178.927 -85.5552L-65.9169 118.812M-181.938 -85.6078L-68.9275 118.759M-184.948 -85.6603L-71.938 118.707M-187.959 -85.7129L-74.9485 118.654M-190.969 -85.7654L-77.9591 118.602M-193.98 -85.818L-80.9696 118.549M-196.99 -85.8705L-83.9801 118.496M-200.001 -85.9231L-86.9907 118.444M-203.011 -85.9756L-90.0012 118.391M-206.022 -86.0282L-93.0117 118.339M-209.032 -86.0807L-96.0223 118.286M-212.043 -86.1333L-99.0328 118.234M-215.053 -86.1858L-102.043 118.181M-218.064 -86.2384L-105.054 118.129M-221.075 -86.2909L-108.064 118.076M-224.085 -86.3435L-111.075 118.024M-227.096 -86.396L-114.086 117.971M-230.106 -86.4486L-117.096 117.918M-233.117 -86.5011L-120.107 117.866M-236.127 -86.5537L-123.117 117.813" stroke="white" stroke-opacity="0.2" stroke-width="0.636364" stroke-linecap="round"/>
</g>
</g>
<g filter="url(#filter0_d_2095_1121)">
<path d="M25.4142 16.333C25.3551 16.333 25.2991 16.3438 25.2483 16.3645L25.1736 16.4022L19.5617 19.3129L19.4345 19.3782C19.4345 19.3782 19.4328 19.3789 19.4328 19.3797C19.1853 19.5325 19.0225 19.789 19.0225 20.0809V26.1634C19.0225 26.3722 19.2074 26.5412 19.4378 26.5412C19.5066 26.5412 19.5745 26.5255 19.6363 26.4952C19.6414 26.4921 19.6482 26.4891 19.6533 26.486L25.3718 23.4524L25.3803 23.4478C25.65 23.3004 25.8298 23.0308 25.8298 22.7243V16.7093C25.8298 16.5012 25.6432 16.333 25.4142 16.333ZM24.9878 14.711L19.0413 12.0362C19.0413 12.0362 18.6924 11.8794 18.4987 11.8794C18.3051 11.8794 17.9579 12.0362 17.9579 12.0362L12.0062 14.711C12.0062 14.711 11.7448 14.8187 11.7448 15.0212C11.7448 15.236 12.0164 15.3976 12.0164 15.3976L17.9918 18.5515L18.0868 18.5999C18.2106 18.6551 18.3511 18.6866 18.4987 18.6866C18.648 18.6866 18.7905 18.6551 18.9158 18.5984L18.9989 18.5554L24.9845 15.396C24.9845 15.396 25.2302 15.2639 25.2302 15.0212C25.2302 14.8085 24.9878 14.711 24.9878 14.711ZM17.565 19.3798L17.4344 19.3129L11.8239 16.4022L11.7492 16.3646C11.7003 16.3438 11.6426 16.3331 11.5833 16.3331C11.3543 16.3331 11.168 16.5012 11.168 16.7093V22.7243C11.168 23.0316 11.3475 23.3004 11.6172 23.4478L11.624 23.4524L17.3428 26.486C17.4056 26.5213 17.4802 26.5412 17.56 26.5412C17.7887 26.5412 17.9753 26.3723 17.9753 26.1634V20.0809C17.9752 19.789 17.8124 19.5325 17.565 19.3798Z" fill="white"/>
</g>
<defs>
<filter id="filter0_d_2095_1121" x="4.16797" y="8.69758" width="28.6621" height="28.6619" filterUnits="userSpaceOnUse" color-interpolation-filters="sRGB">
<feFlood flood-opacity="0" result="BackgroundImageFix"/>
<feColorMatrix in="SourceAlpha" type="matrix" values="0 0 0 0 0 0 0 0 0 0 0 0 0 0 0 0 0 0 127 0" result="hardAlpha"/>
<feOffset dy="3.81818"/>
<feGaussianBlur stdDeviation="3.5"/>
<feComposite in2="hardAlpha" operator="out"/>
<feColorMatrix type="matrix" values="0 0 0 0 0.788462 0 0 0 0 0 0 0 0 0 0.225933 0 0 0 1 0"/>
<feBlend mode="normal" in2="BackgroundImageFix" result="effect1_dropShadow_2095_1121"/>
<feBlend mode="normal" in="SourceGraphic" in2="effect1_dropShadow_2095_1121" result="shape"/>
</filter>
<linearGradient id="paint0_linear_2095_1121" x1="37.2112" y1="19.7928" x2="0.136719" y2="19.7928" gradientUnits="userSpaceOnUse">
<stop stop-color="#FC4A82"/>
<stop offset="1" stop-color="#FBA35B"/>
</linearGradient>
<clipPath id="clip0_2095_1121">
<rect x="0.136719" y="0.139648" width="37.0745" height="37.9026" rx="10" fill="white"/>
</clipPath>
<clipPath id="clip1_2095_1121">
<rect width="36.9091" height="38.1818" fill="white" transform="translate(0.0683594 -0.000244141)"/>
</clipPath>
</defs>
</svg>
