<svg width="27" height="26" viewBox="0 0 27 26" fill="none" xmlns="http://www.w3.org/2000/svg">
<path d="M25.9583 19.625V13.2917C25.9583 6.29606 20.2873 0.625 13.2917 0.625C6.29606 0.625 0.625 6.29606 0.625 13.2917V19.625M3.79167 25.1667C2.04276 25.1667 0.625 23.7489 0.625 22V18.8333C0.625 17.0844 2.04276 15.6667 3.79167 15.6667C4.66611 15.6667 5.375 16.3755 5.375 17.25V23.5833C5.375 24.4578 4.66611 25.1667 3.79167 25.1667ZM22.7917 25.1667C21.9172 25.1667 21.2083 24.4578 21.2083 23.5833V17.25C21.2083 16.3755 21.9172 15.6667 22.7917 15.6667C24.5406 15.6667 25.9583 17.0844 25.9583 18.8333V22C25.9583 23.7489 24.5406 25.1667 22.7917 25.1667Z" stroke="#331F33" stroke-width="1.25" stroke-linecap="round"/>
</svg>
