<svg width="32" height="26" viewBox="0 0 32 26" fill="none" xmlns="http://www.w3.org/2000/svg">
<path fill-rule="evenodd" clip-rule="evenodd" d="M13.4013 0.108582C12.9116 0.242295 12.5572 0.462915 12.1877 0.864256C11.8323 1.25029 11.7199 1.4512 11.5723 1.96525L11.4654 2.33693L10.849 2.5652C9.9918 2.88275 8.88486 3.43399 8.1159 3.92624L7.46602 4.34235L7.24913 4.17741C6.48804 3.5986 5.65493 3.62359 5.03826 4.24365C4.5912 4.69316 4.49039 5.33998 4.73642 6.17931L4.87424 6.64947L4.78643 6.7714C4.73816 6.83852 4.5282 7.10608 4.31984 7.36599C2.73544 9.34262 1.69165 11.7696 1.22433 14.5635L1.11665 15.207L1.08298 17.4204L1.0493 19.6338L0.854748 19.7157C0.586848 19.8284 0.171131 20.3258 0.0764524 20.6467C-0.0205595 20.9756 -0.0270936 22.3145 0.0674513 22.4939C0.211469 22.7672 2.16277 23.6539 3.83185 24.2044C7.21973 25.3218 10.8478 25.8963 15.0999 25.9888C19.8379 26.0917 24.2881 25.4848 28.1584 24.2077C29.8376 23.6536 31.7882 22.7679 31.9325 22.4939C32.0271 22.3145 32.0206 20.9756 31.9235 20.6467C31.8289 20.326 31.4132 19.8284 31.1457 19.7159L30.9515 19.6342L30.9142 17.3867L30.8768 15.1392L30.7476 14.3941C30.2446 11.4939 29.215 9.26432 27.2456 6.81055L27.1232 6.65807L27.2623 6.18364C27.5096 5.33991 27.4096 4.69397 26.9617 4.24365C26.3451 3.62359 25.512 3.5986 24.7509 4.17741L24.534 4.34235L23.8841 3.92624C23.1069 3.42864 21.997 2.87537 21.151 2.56391L20.5346 2.33693L20.4277 1.96525C20.2806 1.45323 20.1677 1.25022 19.8196 0.872181C19.4508 0.471585 19.0657 0.236402 18.559 0.102351L18.1723 0L15.9693 0.00447077L13.7664 0.00894154L13.4013 0.108582ZM13.5937 1.17497C12.9901 1.39843 12.5331 2.02872 12.5327 2.63808C12.5326 2.80777 12.7887 5.29365 13.1018 8.16231L13.6712 13.3781L13.8407 13.7342C14.024 14.1196 14.3213 14.3913 14.7164 14.5345C15.0605 14.6593 16.9395 14.6593 17.2836 14.5345C17.6787 14.3913 17.976 14.1196 18.1593 13.7342L18.3288 13.3781L18.9034 8.12844C19.2195 5.24115 19.4658 2.72018 19.4507 2.52618C19.4137 2.04999 19.1276 1.58891 18.7039 1.32263L18.3778 1.11766L16.1054 1.10201L13.8331 1.0863L13.5937 1.17497ZM10.8551 3.73089C10.1615 4.00691 9.15703 4.5375 8.46855 4.99147C8.15531 5.198 7.88921 5.37595 7.87727 5.38685C7.86534 5.39776 8.41294 7.29433 9.09409 9.60158L10.3326 13.7965V14.1483C10.3326 15.0406 9.64456 15.7366 8.75985 15.7392L8.35386 15.7404L7.99309 15.5342C7.75159 15.3962 7.57037 15.2271 7.44509 15.0229C7.3194 14.8181 6.93016 13.6082 6.26161 11.344C5.71361 9.48853 5.25555 7.96045 5.24362 7.94833C5.23175 7.9362 5.0714 8.13183 4.88731 8.38299C3.39799 10.4152 2.45234 12.8974 2.20111 15.4343C2.16291 15.8201 2.13164 16.8946 2.13164 17.822V19.5083H16H29.8684V17.822C29.8684 16.8946 29.8371 15.8201 29.7989 15.4343C29.5477 12.8974 28.602 10.4152 27.1127 8.38299C26.9286 8.13183 26.7682 7.9362 26.7564 7.94833C26.7444 7.96045 26.2878 9.48379 25.7415 11.3335C25.1543 13.3222 24.6759 14.8223 24.571 15.0042C24.1613 15.7144 23.2702 15.961 22.5196 15.572C21.9822 15.2935 21.6713 14.7785 21.6688 14.1631L21.6674 13.7965L22.9059 9.60158C23.5871 7.29433 24.1347 5.39776 24.1227 5.38685C23.9537 5.23275 22.771 4.51413 22.2226 4.23228C21.5119 3.86711 20.5559 3.47735 20.5029 3.53127C20.4875 3.54678 20.2319 5.78393 19.9347 8.50269C19.6375 11.2214 19.3629 13.5677 19.3246 13.7167C19.1357 14.4511 18.4519 15.2365 17.7525 15.5226L17.3668 15.6804H16H14.6332L14.2475 15.5226C13.5316 15.2297 12.8508 14.4359 12.6697 13.6829C12.6139 13.4505 11.5328 3.84177 11.5328 3.57753C11.5328 3.48568 11.3899 3.51799 10.8551 3.73089ZM5.9531 4.87605C5.77995 4.94873 5.6654 5.14503 5.6654 5.36924C5.6654 5.6175 8.26585 14.3783 8.3776 14.5066C8.52515 14.6759 8.77592 14.7146 8.99161 14.6013C9.19523 14.4943 9.26584 14.3735 9.26584 14.1319C9.26584 13.8587 6.66159 5.11787 6.54504 4.99987C6.39996 4.85302 6.13853 4.79835 5.9531 4.87605ZM25.6322 4.87381C25.5576 4.9045 25.4623 4.97156 25.4204 5.02283C25.3133 5.15397 22.7342 13.921 22.7342 14.154C22.7342 14.2592 22.7903 14.4157 22.8589 14.5017L22.9837 14.6583H23.2271C23.381 14.6583 23.5169 14.6097 23.5964 14.5262C23.7261 14.39 26.3346 5.67643 26.3346 5.37927C26.3346 5.13541 26.2648 5.01437 26.0631 4.90843C25.8515 4.79727 25.8235 4.79503 25.6322 4.87381ZM1.22853 20.7583L1.06484 20.9246V21.4065V21.8885L1.74826 22.2152C3.01608 22.8215 4.84263 23.4343 6.7178 23.8826C11.9736 25.139 18.3174 25.2595 23.801 24.2073C25.8654 23.8112 28.3526 23.0712 29.8017 22.4219C30.1501 22.2658 30.5476 22.0904 30.6851 22.0321L30.9352 21.9263V21.4254V20.9246L30.7715 20.7583L30.6079 20.592H16H1.39215L1.22853 20.7583Z" fill="#331F33"/>
</svg>
